<svg xmlns="http://www.w3.org/2000/svg" viewBox="0 0 94 94" width="94" height="94"><g class="title-text" fill="#d6c400"><path d="M28.42 53.49l-2.6.95-7.63-21-5.65 2.05-.88-2.42 14-5.08.88 2.42-5.71 2.08z"/><path d="M53.27 31.24a13 13 0 1 1-16.6-7.69 12.9 12.9 0 0 1 16.6 7.69zm-21.78 7.89A10.2 10.2 0 1 0 37.55 26a10.29 10.29 0 0 0-6.06 13.13zM63 40.89l-2.61.95-8.48-23.39 3.84-1.4c2-.73 4.12-1.43 6.25-.87a6.85 6.85 0 0 1 4.58 4.37 7 7 0 0 1-.4 5.84 9 9 0 0 1-5 3.57l-1.89.69zm-4.57-12.65l1.74-.63c2.88-1 5-2.81 3.8-6.16-1.39-3.81-4.56-3-7.6-1.87l-1 .35zM31 77.95l-2.05.75-6-16.52-4.48 1.62-.69-1.91 11-4 .69 1.91L25 61.43zm4-7.39l-.32 6-2.25.82L33.93 55l15.3 16.3-2.23.83-4.08-4.44zm.6-10.73l-.47 8.53 6.23-2.27zm18.11-6.95A3.6 3.6 0 0 0 49.8 52a3.11 3.11 0 0 0-2 4c.58 1.59 2.48 1.73 3.93 1.83l1.42.09c2.78.18 5.24.64 6.31 3.57a6.19 6.19 0 0 1-11.19 5.13L50 65.34a4 4 0 0 0 5 2.07 3.94 3.94 0 0 0 2.48-5c-.78-2.15-2.74-2.27-4.73-2.43l-1.3-.08c-2.51-.2-4.76-.62-5.72-3.26-1-2.86.71-5.57 3.45-6.57A5.63 5.63 0 0 1 55 51.24zm14.6 11.48l-2.05.75-6-16.52-4.46 1.62-.69-1.91 11-4 .69 1.91-4.5 1.64zm-.59-20.65l9.55-3.48.73 1.91-7.5 2.73 2 5.47 7.28-2.65.69 1.9-7.28 2.65 2.63 7.23 7.5-2.73.68 1.92-9.55 3.48z"/></g><circle class="title-circle1" cx="47.12" cy="47.12" r="42.38" transform="rotate(-14.37 47.126 47.12)" fill="none" stroke="#d6c400" stroke-miterlimit="10"/><circle class="title-circle2" cx="47.12" cy="47.12" r="45.96" transform="rotate(-14.37 47.126 47.12)" fill="none" stroke="#d6c400" stroke-miterlimit="10" stroke-width="2.5"/></svg>