<svg xmlns="http://www.w3.org/2000/svg" viewBox="0 0 94 94" width="94" height="94"><path d="M7.44 42l11.38 12 1-16.53 10 16.72-1.94.71-6.37-10.68-1 14.2-9.9-10.21 2 12.3-1.94.71zm26.03 10.89l-1.89.69-6.19-17 1.89-.69zM29.83 35L33 33.8c2.55-.93 4.75-1.35 7.38-.36a8.76 8.76 0 0 1 5.17 5.45 8.73 8.73 0 0 1-.47 7.35c-1.37 2.54-3.28 3.62-5.94 4.59L36 52zm8.82 14c2.07-.76 3.7-1.68 4.73-3.71a7.4 7.4 0 0 0-3.76-10 7.78 7.78 0 0 0-5.88.27l-1.37.5 4.91 13.49zm5.57-19.28l3.2-1.17c2.55-.93 4.75-1.35 7.38-.36a8.76 8.76 0 0 1 5.2 5.45 8.73 8.73 0 0 1-.49 7.36c-1.37 2.54-3.28 3.62-5.94 4.59l-3.16 1.15zM53 43.78c2.08-.75 3.71-1.68 4.73-3.71A7.4 7.4 0 0 0 54 30a7.78 7.78 0 0 0-5.88.27l-1.38.5 4.91 13.49zm13.5-4.9l4.69-1.71.64 1.76-6.59 2.4-6.19-17 1.9-.69zm1.01-17.64L76.33 18l.67 1.79-6.92 2.52 1.84 5.05 6.72-2.45.64 1.76-6.72 2.45L75 35.8l6.92-2.52.6 1.72-8.82 3.25zm-35.6 59.63l-2.05.75-6-16.52-4.46 1.62-.69-1.91 11-4 .69 1.91-4.5 1.63zm4.04-7.39l-.32 6-2.25.82 1.48-22.4 15.3 16.33-2.27.83-4.08-4.44zm.6-10.73l-.47 8.53L42.31 69zm18.09-6.95a3.6 3.6 0 0 0-3.91-.8 3.11 3.11 0 0 0-2 4c.58 1.59 2.48 1.73 3.93 1.83l1.42.09c2.78.18 5.24.64 6.31 3.57a6.19 6.19 0 0 1-11.2 5.13L51 68.26a4 4 0 0 0 4.93 2.08 3.94 3.94 0 0 0 2.48-5c-.78-2.15-2.74-2.27-4.73-2.43l-1.3-.08c-2.51-.2-4.76-.62-5.72-3.26-1-2.86.71-5.57 3.45-6.57a5.63 5.63 0 0 1 5.8 1.12zm14.6 11.48l-2.05.72-6-16.52-4.45 1.62-.74-1.88 11-4 .69 1.91-4.5 1.64zm-.59-20.64l9.55-3.48.69 1.91-7.5 2.73 2 5.47 7.28-2.65.69 1.91-7.28 2.65 2.63 7.23 7.5-2.73.69 1.91-9.55 3.48z" class="title-text" fill="#d6c400"/><circle class="title-circle1" cx="47.12" cy="47.12" r="42.38" transform="rotate(-14.37 47.126 47.12)" fill="none" stroke="#d6c400" stroke-miterlimit="10"/><circle class="title-circle2" cx="47.12" cy="47.12" r="45.96" transform="rotate(-14.37 47.126 47.12)" fill="none" stroke="#d6c400" stroke-miterlimit="10" stroke-width="2.5"/></svg>