<svg xmlns="http://www.w3.org/2000/svg" viewBox="0 0 94 94" width="94" height="94"><path d="M10.44 34.74l12.13-4.41.88 2.42-9.52 3.46 2.53 6.95 9.24-3.36.88 2.42-9.24 3.36 3.34 9.18 9.52-3.46.88 2.42L19 58.12zm15.11-6.63l25.19 12.47-6.59-18.11 2.61-.95L55.65 46 30.47 33.52l6.56 18-2.6.95zm24.21-7.69l4.4-1.6c3.5-1.28 6.53-1.85 10.15-.5a12 12 0 0 1 7.12 7.49 12 12 0 0 1-.64 10.1c-1.89 3.5-4.51 5-8.17 6.31l-4.34 1.58zm12.13 19.33c2.85-1 5.09-2.31 6.5-5.11a10.18 10.18 0 0 0-5.17-13.82c-2.83-1.11-5.32-.63-8.08.38l-1.89.69L60 40.44zM32 78.78l-2.05.75L23.9 63l-4.45 1.62-.69-1.91 11-4 .69 1.91-4.5 1.64zm3.51-7.21l-.32 6-2.25.82L34.41 56l15.31 16.31-2.27.83-4.08-4.44zm.6-10.73l-.47 8.53 6.23-2.27zm17.6-6.77a3.6 3.6 0 0 0-3.91-.85 3.11 3.11 0 0 0-2 4c.58 1.59 2.48 1.73 3.93 1.83l1.42.09c2.78.18 5.24.64 6.31 3.57a6.19 6.19 0 0 1-11.2 5.13L50 66.52a4 4 0 0 0 5 2.08 3.94 3.94 0 0 0 2.48-5c-.78-2.15-2.74-2.27-4.73-2.43l-1.3-.08c-2.51-.2-4.76-.62-5.72-3.26-1-2.86.71-5.57 3.45-6.57A5.63 5.63 0 0 1 55 52.42zm14.6 11.48l-2.05.75-6-16.52-4.46 1.62-.69-1.91 11-4 .69 1.91-4.5 1.6zm-1.57-20.29l9.55-3.48.71 1.91-7.5 2.73 2 5.47 7.28-2.65.69 1.91-7.28 2.65L74.8 61l7.5-2.73.7 1.93-9.55 3.48z" class="title-text" fill="#d6c400"/><circle class="title-circle1" cx="47.12" cy="47.12" r="42.38" transform="rotate(-14.37 47.126 47.12)" fill="none" stroke="#d6c400" stroke-miterlimit="10"/><circle class="title-circle2" cx="47.12" cy="47.12" r="45.96" transform="rotate(-14.37 47.126 47.12)" fill="none" stroke="#d6c400" stroke-miterlimit="10" stroke-width="2.5"/></svg>