<svg xmlns="http://www.w3.org/2000/svg" viewBox="0 0 129.86 129.86" width="129.86px" height="129.86px"><title>chef-kodawari</title><path d="M129.85,64.93c-.69,35.85-29.07,64.92-64.92,64.92A64.92,64.92,0,0,1,0,64.93C0,29.08,29.07.61,64.92,0,101.11-.6,130.57,27.75,129.85,64.93Z" style="fill:#d6c500"/><path d="M29.46,49.08A20.13,20.13,0,0,1,34,51.77a19.07,19.07,0,0,0-1.9,2.61,16.72,16.72,0,0,0-4.45-2.67Zm-.63,10.56a28.67,28.67,0,0,0,13.81-10.4,10.25,10.25,0,0,0,2,2.65A32.19,32.19,0,0,1,31.14,62.34c0,.12,0,.45-.33.45-.14,0-.25-.2-.29-.26Zm2.61-14.91A30.15,30.15,0,0,1,36.36,47c-.41.47-1.59,2.14-1.86,2.55a20.76,20.76,0,0,0-4.77-2.47Z" style="fill:#fff"/><path d="M56.47,58.85h5.34V61.5H48.43V58.85h5.18V52.61H49.86V49.86H60.34v2.75H56.47Z" style="fill:#fff"/><path d="M79.74,46.08A9.63,9.63,0,0,0,81.09,46l2.28,1.84a3.65,3.65,0,0,0-.65,1c-2,4.79-2.37,5.75-3.81,7.67-1.67,2.22-3.61,3.83-7.26,5.85A11.77,11.77,0,0,0,69.22,60c4.45-2.14,7.48-4.14,9.93-11H67.22v-2.9Z" style="fill:#fff"/><path d="M94.6,59.52a6.27,6.27,0,0,0,5.51-6.12,4.65,4.65,0,0,0-4.53-4.81C95,55.77,92,61.13,89.93,61.13c-1.53,0-4.38-2.59-4.38-6.22a9.63,9.63,0,0,1,9.62-9.14c4.3,0,8,2.92,8,7.61a9.14,9.14,0,0,1-2.32,6.06,10.86,10.86,0,0,1-4.26,2.84A12.78,12.78,0,0,0,94.6,59.52Zm-6.14-4.85c0,1.51.84,2.65,1.26,2.65s.84-.88,1.06-1.39a17.16,17.16,0,0,0,1.51-6.75A6.67,6.67,0,0,0,88.46,54.67Z" style="fill:#fff"/><path d="M32.87,80.46a5.12,5.12,0,0,0-1.77,2.47.76.76,0,0,0,.39.63,12.56,12.56,0,0,0,3.9.43A25.93,25.93,0,0,0,43,83a22.19,22.19,0,0,0,.57,3.26,41.47,41.47,0,0,1-8.32.79c-4.49,0-7.38-.82-7.38-3.81,0-1.69,1.37-3.18,2.92-4.49Zm9.38-6.85a18.91,18.91,0,0,0-6.18,3.88l-1.75-2a8,8,0,0,0,1.39-1.18c-.49,0-1.71.12-3.49.12a24.19,24.19,0,0,1-2.65-.12l-.16-3.24a34.65,34.65,0,0,0,5.93.43,25.91,25.91,0,0,0,5.32-.43Z" style="fill:#fff"/><path d="M55.57,70.92c.16,0,.33.08.33.25s-.27.28-.39.29c-.1.31-.43,1.71-.49,2a14.14,14.14,0,0,0,3.24-1l.31,3.1a22,22,0,0,1-4.4.9,50.85,50.85,0,0,1-5.12,11.46,19.62,19.62,0,0,0-2.92-1.49,31.84,31.84,0,0,0,4.79-9.54L47.38,77l-.25-3.18a17.06,17.06,0,0,0,2.22.12c.75,0,1.65,0,2.39-.08a23.13,23.13,0,0,0,.49-3.77ZM57,82.68a2.15,2.15,0,0,0-.53,1.06c0,.63.57.94,2.85.94a11.36,11.36,0,0,0,4.32-.8c0,.37,0,.61,0,1.14a13.22,13.22,0,0,0,.14,2.2,18.07,18.07,0,0,1-3.55.33c-2.36,0-6.44-.12-6.44-3.18a6.71,6.71,0,0,1,.73-2.57Zm-.92-5.53a21.22,21.22,0,0,1,4-.41,22.8,22.8,0,0,1,3.16.25,22.77,22.77,0,0,0-.2,3.1,10.52,10.52,0,0,0-3-.31,24.19,24.19,0,0,0-4,.31Zm4.49-5.38a17.56,17.56,0,0,1,1.86,2.16A6.94,6.94,0,0,0,60.92,75a18.81,18.81,0,0,0-1.73-2.18Zm1.88-1.37a11.53,11.53,0,0,1,1.81,2.06,15.12,15.12,0,0,0-1.32,1,14,14,0,0,0-1.82-2.08Z" style="fill:#fff"/><path d="M74.54,74.41a3.84,3.84,0,0,0-.67,1,7.24,7.24,0,0,1,3.94-1.14A5.36,5.36,0,0,1,83.39,80c0,6.08-6,7-7.38,7.16a8.21,8.21,0,0,0-1.55-2.84c2.14-.14,5.89-.8,5.89-4.14a2.87,2.87,0,0,0-3-3,8.25,8.25,0,0,0-4.81,2.14v8.44l-3.2.24c.22-2.45.28-4.83.29-5.44-.57.8-1.59,2.24-1.73,2.39l-2.24-2.2a27.64,27.64,0,0,0,4-5.14V77a22.42,22.42,0,0,1-3,1l-.51-3.28a20,20,0,0,0,3.59-.61c0-.63-.1-3.37-.1-3.94l3,.18c.37,0,.59,0,.59.29s-.18.24-.43.27c-.14,1.18-.16,1.67-.18,2.14a4.54,4.54,0,0,1,.41-.2Z" style="fill:#fff"/><path d="M91.56,71c.35.08.55.14.55.35s-.33.31-.47.33a15,15,0,0,0-.86,5A7.48,7.48,0,0,0,91,78.46c.16-.31.22-.47.45-1A4.49,4.49,0,0,1,92,76.3a14.22,14.22,0,0,0,2,1.63,15.25,15.25,0,0,0-2,5l-2.81.33A19.2,19.2,0,0,1,88.4,71.1c.1-.43.1-.53.14-.77Zm9-.73c.2,0,.45,0,.45.27s-.18.26-.31.29c0,.69.28,3.67.31,4.28s.1,1.53.1,2.3c0,2.47-.2,7.52-5.91,10.79a7.23,7.23,0,0,0-2.55-2.3c4.71-2.28,5.16-5.67,5.16-8.56A27.58,27.58,0,0,0,97,70.2Z" style="fill:#fff"/></svg>
