<svg id="レイヤー_1" xmlns="http://www.w3.org/2000/svg" viewBox="0 0 119.1 11.3"><style>.st0{fill:#231815}</style><path class="st0" d="M75 1.9c.2 0 .6 0 .8-.1l1.2 1c-.2.3-.2.4-.7 1.4-1.3 3-2.4 4.7-6.1 6.7-.3-.4-.7-.8-1.2-1.2 1.6-.7 4.5-2 5.9-6.2h-7.3V1.9H75zM74.9 0c.3.3.9.8 1.1 1.2-.4.2-.4.3-.9.6-.1-.2-.5-.7-1.1-1.2l.9-.6zm2 0c.4.3.8.9 1.1 1.3-.5.3-.5.3-.8.6-.3-.5-.6-.9-1-1.3l.7-.6zm5.5 1c.2 0 .2 0 .2.1s-.2.2-.2.2v7c1.8-.4 4.6-2 6.3-4.3.3.7.4.9.7 1.6-2.5 2.6-4 3.3-7.7 5l-1.1-1V.9l1.8.1zM92.5.8c1.7.9 2.5 1.5 3 2-.2.3-.4.5-1 1.3-1.4-1.2-2.5-1.7-3-2l1-1.3zM91.7 9c2.8-.6 6.3-2.4 8.7-6.3.4.7.6.9 1 1.4-.8 1.2-2.9 4.4-8.4 6.4 0 .1 0 .3-.2.3-.1 0-.2-.1-.2-.2L91.7 9zm16-5.4c1.6.8 3.2 1.8 4.2 2.8-.5.5-.6.7-1.1 1.3-1.4-1.4-2.9-2.2-3.7-2.6v5.7h-1.6V.6l1.6.1c.1 0 .2 0 .2.1s-.2.2-.2.2v3.5l.6-.9zm2.6-1.9c.4.3.8.7 1.2 1.1l-.8.8c-.2-.3-.8-.8-1.2-1.2l.8-.7zm1.1-.9c.3.2.9.8 1.2 1.1-.2.2-.3.2-.7.7-.5-.5-.7-.8-1.2-1.1l.7-.7zM7.9 10.4v.6H6.5V.5h10.1V11h-1.4v-.5H7.9v-.1zm7.3-1.3V1.7H7.9v7.4h7.3zm-3-4.4h2v1.1h-.6c.4.4.6.7.8 1.1-.1.1-.4.3-.6.4h1v1.2H8.3V7.3h2.4V5.8H8.8V4.7h1.9V3.6H8.4V2.4h6.2v1.1h-2.5v1.2h.1zm1 1.1h-1v1.5h1c0-.1-.4-.6-.8-1l.8-.5zM24 5.6v-1l1.4.1c.2 0 .3.1.3.2s-.1.2-.3.2v.5h2.8v1.1h-2.8v.8h2.1v1.1h-2.1v.9H29v1.2h-8.8v-1H24v-1h-2.3V7.6H24v-.8h-1.9c-.3.5-.5.7-.6.9-.3-.3-.5-.4-1.1-.7-.1 2.4-.9 3.6-1.3 4.2-.5-.4-1-.6-1.2-.6C19 9.3 19 7.2 19 6.1V3.4h2.6c-.2-.4-.4-.7-.7-1l.6-.2h-2.7V1H23V.1l1.6.1c.1 0 .2 0 .2.1s-.1.2-.2.2V1h4.2v1.2h-2.1.2c.1 0 .2.1.2.2s-.2.2-.3.2c-.2.4-.4.8-.4.9h2.5v1.2h-7.1l1.1.3c.2 0 .2.1.2.2s-.1.2-.3.2c-.1.2-.1.2-.1.3l1.3-.1zm-3.6-1V7c.5-.4 1.1-1.5 1.3-2.4h-1.3zm2.1-2.4c.2.4.5.8.6 1.1l-.5.2h2.1c.1-.1.4-.7.6-1.2h-2.8v-.1zM34.1 11h-1.4V7.3c-.7 1.3-1.2 1.8-1.4 2-.4-.4-.7-.6-1.3-.9 1.1-1 1.9-2.2 2.4-3.6h-2V3.5h2.2V2.3c-.2 0-1.3.2-1.5.3-.1-.1-.3-.8-.7-1.3.6 0 2.7-.2 4.4-1.2l1 1.1c0 .1.1.1.1.2s0 .1-.1.1c0 0-.1 0-.3-.1-.7.3-.9.4-1.4.5v1.5h1.8v1.4h-1.6c.1.2.7 1.3 1.9 2.3-.5.4-.6.5-1 1.1-.6-.6-1-1.2-1-1.3V11h-.1zm3.5-1.2v1h-1.5V1.2h4.7v9.3h-1.5v-.7h-1.7zm1.8-1.4V2.6h-1.8v5.8h1.8zm6.1 2.6h-1.3V7c-.4 1.1-.7 1.6-.9 1.9-.4-.4-.8-.7-1.2-.9 1-1.3 1.6-2.8 2-4.4h-1.6V2.3h1.6V.2l1.4.1c.1 0 .2 0 .2.1s-.1.2-.3.3v1.6h1.2v1.3h-1.2v.2c.3.7.9 1.7 1.7 2.7-.4.3-.7.7-1 1.1-.4-.6-.4-.8-.7-1.5l.1 4.9zm5.7-8.5V.2l1.4.1c.2 0 .3 0 .3.1s-.1.2-.3.3v1.9h.7v1.3h-.7V11h-1.4v-.7H49v.7h-1.4V3.9H47V2.5h.7V.2l1.3.1c.1 0 .3 0 .3.2 0 .1-.1.1-.3.2v1.9l2.2-.1zM49 3.9v1.8h2.2V3.9H49zM49 7v2h2.2V7H49zm9.3-1.6h.7c-.1-.2-.4-.5-.7-.8 1.2-.5 1.9-1.2 2-1.2h-1.6v-1h1.9c-.3-.2-.6-.3-.8-.5l.5-.5H59v-1h5.2l.6.7c-.6.4-1.6 1-2 1.3h2l.5.5c-.7 1.1-.7 1.2-1.3 1.9-.4-.4-.5-.5-1-.7.4-.3.5-.5.7-.7h-1v1.1c0 .7-.3.8-1.2.9h3.6V10c0 .5-.1 1.1-1.9 1-.1-.5-.3-1-.3-1.1h-1.8v.4H60V8.1l-.5-.5V11h-1.3V6.9c-.3.3-.4.4-.5.6-.2-.3-.3-.5-.5-1.1V11H56V7.3c-.3 1-.4 1.4-.6 1.6-.2-.3-.9-.9-1.2-1.2.3-.5 1.1-1.9 1.7-4.2h-1.4V2.3H56V.1l1.4.1c.1 0 .2 0 .2.1s-.2.2-.3.3v1.7h1.2v1.3h-1.2v.3c.3.8.7 1.4 1 1.9v-.4zm2.6 0c0-.3-.1-.7-.2-1-.3.3-.8.7-1.3 1h1.5zm-1.3 1.9c.4-.2.7-.4.9-.8h-.9v.8zm4.3.3h-1.4c-.3 0-.6 0-.6-.5v-.6h-1l.5.2c.1 0 .2.1.2.2s-.2.1-.3.1c-.3.4-.5.7-.8 1h2.9v1.9c.4 0 .6 0 .6-.2V7.6h-.1zm-2.3-4.2c-.1.2-.3.4-.8.9h.4c.3 0 .4 0 .4-.2v-.7zM61 1.5c.3.2.7.5.8.5.1-.1.5-.3.8-.6H61v.1zm1.4 7.2h-1.1v.5h1.1v-.5zm.6-2.2v.2c0 .2 0 .2.3.2h.7v-.4h-1z"/></svg>