<svg xmlns="http://www.w3.org/2000/svg" viewBox="0 0 412.16 103.17"><title>hero-lead</title><path d="M130.91 4.36c-1.18 3-1.44 3.58-2.32 4.82a15 15 0 0 1 2 2 8.65 8.65 0 0 0-.94 1.15 14.36 14.36 0 0 0-1.87-2.09 16.28 16.28 0 0 1-6.53 4.36 12.71 12.71 0 0 0-.91-1.22 14 14 0 0 0 6.42-4 26.32 26.32 0 0 0-3.31-2.26l.83-1a36.94 36.94 0 0 1 3.28 2.18 14.36 14.36 0 0 0 1.74-3.84h-4.85a17.49 17.49 0 0 1-3.78 4 4.63 4.63 0 0 0-1.05-1 14 14 0 0 0 5.29-7l1.41.42c.22.06.27.13.27.2s-.27.2-.36.2c-.3.57-.66 1.29-1 1.87h4.31a2.84 2.84 0 0 0 1-.16l.69.61a4.71 4.71 0 0 0-.32.76zm-.75-2a13.2 13.2 0 0 0-1.48-1.69l.8-.6A13.71 13.71 0 0 1 131 1.71a3.33 3.33 0 0 0-.85.63zm2.15 0a12.38 12.38 0 0 0-1.5-1.81l.8-.55a13.9 13.9 0 0 1 1.52 1.69 4.58 4.58 0 0 0-.83.62zm12.25-.26c-.94 3.59-2.43 8.56-9.16 11.81a5.54 5.54 0 0 0-1.07-1 14.09 14.09 0 0 0 8.8-11.76l1.57.49c.14 0 .28.09.28.2s-.27.23-.42.26zm9.3 3.26a17.77 17.77 0 0 0-4.46-3l.82-1.16a21.06 21.06 0 0 1 4.49 3 8.83 8.83 0 0 0-.85 1.16zm-3.06 8.47c0 .27 0 .36-.22.36s-.2-.11-.25-.19l-.85-1.41a18.58 18.58 0 0 0 12-8.61 8.89 8.89 0 0 0 .86 1.22c-3.52 5.69-8.98 7.72-11.54 8.63zm17.79-6.13a17.77 17.77 0 0 0-4-2.18l.78-1.11a21.58 21.58 0 0 1 4.08 2.12 4.72 4.72 0 0 0-.86 1.17zm-1.88 6.46c0 .16 0 .38-.25.38s-.19-.13-.25-.25l-.64-1.22a22.25 22.25 0 0 0 11.54-8.87 8.28 8.28 0 0 0 .89 1.13 24.59 24.59 0 0 1-11.29 8.83zM170.46 4a16.6 16.6 0 0 0-4.22-2.17L167 .82a19.09 19.09 0 0 1 4.27 2.05 6.06 6.06 0 0 0-.81 1.13zm10.08 9.27v-1.14h4.63V5.82h-3.53V4.66H190v1.16h-3.59v6.31h4.82v1.15zm25.34-9.93c-1.73 4.8-3.34 8.12-9.36 11a4 4 0 0 0-1-1.08c4.66-1.95 7.12-4.41 9-10.27H194v-1.3h10.21a2.52 2.52 0 0 0 1.1-.16l1 .89a4.42 4.42 0 0 0-.43.92zM219.43 12a9 9 0 0 1-3.75 2.13 6.4 6.4 0 0 0-.89-1.21c4.67-1 5.16-4.25 5.16-5.52a4.52 4.52 0 0 0-4.77-4.61 22.63 22.63 0 0 1-1.71 7.21c-.86 2-1.62 2.87-2.48 2.87-1.16 0-2.95-1.82-2.95-4.39a7.22 7.22 0 0 1 7.12-6.95c3.36 0 6.13 2.24 6.13 5.82a6.7 6.7 0 0 1-1.86 4.65zm-10.1-3.58c0 1.69.93 2.93 1.6 2.93s1.24-1.49 1.62-2.48A18.41 18.41 0 0 0 213.77 3a5.88 5.88 0 0 0-4.44 5.39zm21.79 5.51c-3.61 0-5.83-.74-5.83-2.85 0-.94.56-2.07 2.42-3.62l1 .82c-.31.25-2 1.62-2 2.73a1.06 1.06 0 0 0 .53 1 9.2 9.2 0 0 0 3.78.66 20.49 20.49 0 0 0 5.85-.72c.14.66.24 1.05.35 1.41a31.08 31.08 0 0 1-6.1.57zm-.17-7.86l-.83-.93c.31-.22 1.66-1.29 1.94-1.49.47-.33.52-.38.79-.58-.72.06-2.42.2-4.47.2-1 0-1.4 0-2-.06l-.13-1.44a20.74 20.74 0 0 0 4 .2 26.69 26.69 0 0 0 5.11-.39l.72 1.05a20.23 20.23 0 0 0-5.14 3.44zM246 4.85a34.79 34.79 0 0 1-4.22 9.65c-.44-.27-1.05-.55-1.33-.69A26.73 26.73 0 0 0 244.51 5a33.14 33.14 0 0 1-3.47.17l-.11-1.43h1.3c1 0 2-.06 2.59-.11a20.55 20.55 0 0 0 .47-3.13l1.52.39c.24.06.31.14.31.22s-.24.22-.31.22c-.09.35-.44 1.9-.52 2.21a13.08 13.08 0 0 0 3.4-.86L250 4a25.15 25.15 0 0 1-4 .85zm4.69 9.32c-1 0-4.41 0-4.41-2.35a3.7 3.7 0 0 1 .86-2.18l1.16.5a2.67 2.67 0 0 0-.77 1.58c0 1 1.6 1.19 3.12 1.19a11.61 11.61 0 0 0 3.34-.5 3.08 3.08 0 0 0 0 .53 3.67 3.67 0 0 0 .09.93 18.87 18.87 0 0 1-3.44.29zm2.87-6.6a12.71 12.71 0 0 0-2.34-.2 26 26 0 0 0-3.45.27V6.35a24 24 0 0 1 3.62-.27 14.16 14.16 0 0 1 2.31.16 7.3 7.3 0 0 0-.19 1.32zm-1.13-3.37a14.45 14.45 0 0 0-1.49-1.68l.74-.55a13.25 13.25 0 0 1 1.52 1.65 2.67 2.67 0 0 0-.82.57zm1.51-1.05a9.11 9.11 0 0 0-1.51-1.73l.74-.52a11.77 11.77 0 0 1 1.54 1.66 7 7 0 0 0-.82.58zM264 13.88a7.26 7.26 0 0 0-.78-1.29c2.82-.19 5.65-1.13 5.65-4.11a2.84 2.84 0 0 0-3-3.17 7.09 7.09 0 0 0-4.6 2.07v7.07l-1.49.13c.11-1.68.11-2.07.17-5.73-.39.49-2 2.71-2.34 3.17l-1-1A24.55 24.55 0 0 0 260 6.29V5.11a26.86 26.86 0 0 1-2.87.78l-.3-1.46a16.84 16.84 0 0 0 3.2-.6 30.92 30.92 0 0 0-.03-3.3l1.38.13c.31 0 .47.08.47.22s-.2.24-.34.25c-.08.61-.11 1.18-.17 2.27a8.47 8.47 0 0 0 .91-.44l.71.75a14.09 14.09 0 0 0-1.37 2A7 7 0 0 1 266 4.17a3.89 3.89 0 0 1 4.2 4.22c-.03 4.35-4.33 5.23-6.2 5.49zm13.32-3.34l-1.21.14a14.85 14.85 0 0 1-.94-5.24 19.93 19.93 0 0 1 .49-4.08c.06-.34.08-.41.11-.61l1.29.31c.22 0 .39.09.39.27s-.12.19-.33.25a14.53 14.53 0 0 0-.63 4.16 9.79 9.79 0 0 0 .24 2.32 13 13 0 0 1 1.27-2.7 4.08 4.08 0 0 0 1 .75 9.64 9.64 0 0 0-1.68 4.43zm7.23-9.44c0 .46.16 2.46.17 2.87 0 .56.08 1.32.08 2.16 0 2.49-.33 6.32-5.13 8.74a4.7 4.7 0 0 0-1.05-1c4.61-1.9 4.77-6 4.77-7.73a23.27 23.27 0 0 0-.55-5.54l1.6.08c.19 0 .41 0 .41.2s-.19.2-.3.22zm7.02 13.27a2 2 0 1 1 2-2 2 2 0 0 1-2 2zm0-3.28a1.26 1.26 0 1 0 1.27 1.27 1.26 1.26 0 0 0-1.27-1.27zM6.2 40.43c0 1.91 2.34 2.38 5.05 2.32a11.52 11.52 0 0 0-.46 1.3c-2.13-.06-5.91-.39-5.91-3.53 0-2.21 1.87-3.47 2.76-4.08a65.42 65.42 0 0 0-7.25 1.42L0 36.27a39.62 39.62 0 0 0 4-.41c3.56-3.06 4-3.4 4.53-4-2.68.34-5.08.42-5.46.44l-.17-1.36h1.07a35.67 35.67 0 0 0 7.2-.71l.53.89a40.82 40.82 0 0 0-5.6 4.39c2-.28 5.58-.8 7.48-1.24l.17 1.41c-4.23.04-7.55 2.43-7.55 4.75zm21.72 2.73c-.33 0-2.09-.12-2.09-3 0-.41.14-1.51.25-2.59s.24-2.18.24-2.54 0-1-.82-1c-1.32 0-3.48 2.18-4.42 3.29a57.32 57.32 0 0 0 .19 6.68h-1.52c.06-1 .06-2.21.06-2.63v-2.35c-1.21 1.74-1.72 2.48-2.31 3.44l-1.05-1.07a44.66 44.66 0 0 0 3.42-5.08v-1.08a17.35 17.35 0 0 1-3 .72l-.33-1.43a12.58 12.58 0 0 0 3.32-.61v-3.94l1.38.17c.17 0 .38.08.38.25s-.22.22-.31.24c0 .42-.11 1.21-.17 2.81a6 6 0 0 0 .58-.33l.6.67a15.42 15.42 0 0 0-.74 1.41c.61-.6 2.51-2.48 4.2-2.48s1.8 1.8 1.8 2.21 0 .6-.33 3.11a21.19 21.19 0 0 0-.17 2.23c0 .74.16 1.49.94 1.49.53 0 1.33-.42 2.13-1.66.09.2.49 1.13.58 1.3a4.31 4.31 0 0 1-2.81 1.77zm7.51.25l-1.19.23a20.91 20.91 0 0 1-.75-5.87 33.12 33.12 0 0 1 .86-7.36l1.43.5c.14 0 .25.08.25.24s-.14.22-.42.24a25.64 25.64 0 0 0-.85 6.54c0 1.16.09 2 .14 2.54.19-.39.89-2.15 1.05-2.49a5.5 5.5 0 0 0 .77.91 9.81 9.81 0 0 0-1.29 4.52zm10.68-1.15a8.85 8.85 0 0 0-2.59-1.63c.16 2.57-2.4 2.78-2.87 2.78a2.53 2.53 0 0 1-2.75-2.29c0-1.44 1.43-2.24 2.95-2.24A6.05 6.05 0 0 1 42 39c-.09-1-.11-1.33-.17-4.16a19.72 19.72 0 0 1-2.71.17h-1.29V33.6a15.87 15.87 0 0 0 1.79.09c.39 0 1 0 2.18-.09v-3.21l1.58.24c.11 0 .25.06.25.19s-.25.24-.36.25c-.09.75-.12 1.66-.16 2.37a18 18 0 0 0 2.74-.63v1.32c-.38.09-1.11.28-2.76.55a39.07 39.07 0 0 0 .22 4.58 11.29 11.29 0 0 1 3.39 1.85 11.21 11.21 0 0 0-.59 1.15zm-3.92-2.07a3.5 3.5 0 0 0-1.33-.19c-1 0-1.77.38-1.77 1.18s.85 1.16 1.65 1.16a1.39 1.39 0 0 0 1.54-1.47 3.58 3.58 0 0 0-.09-.68zm16.32 2.95c-1.62 0-2.31-1.07-2.34-2.63a5.05 5.05 0 0 0 1.16-.39c0 .58-.08 1.74 1.32 1.74a1.94 1.94 0 0 0 1.85-2.18 2.57 2.57 0 0 0-2.85-2.59 6.39 6.39 0 0 0-3.15.91c0 1.29 0 4 .11 5.19l-1.07.5a20.64 20.64 0 0 0-3.14-2.6l-.86.82-.54-1.43c.25-.14.88-.6 1.11-.77a34.64 34.64 0 0 1 3.12-2.26v-3c-1.3.09-1.71.14-3.33.14v-1.36a7.33 7.33 0 0 0 1.15.06c.61 0 1.54 0 2.21-.11v-3.2l1.49.25c.2 0 .33.06.33.2s-.17.22-.3.24c-.09 1.3-.11 2-.13 2.34a13.64 13.64 0 0 0 3.06-.85c0 .22 0 1.22.06 1.4a21.26 21.26 0 0 1-3.15.74v2.46a7.07 7.07 0 0 1 3.2-.82c2.34 0 4.09 1.4 4.09 3.72a3.28 3.28 0 0 1-3.4 3.48zm-5.3-4.34a22.39 22.39 0 0 0-1.91 1.5c.89.74 1.77 1.46 1.84 1.46s.08-.09.09-.31-.02-2.23-.02-2.65zm9.14-2.85A8.93 8.93 0 0 0 59 33.43l.82-1.11a12.93 12.93 0 0 1 3.42 2.54c-.24.27-.52.63-.88 1.08zM79 40.21c-.52-.11-1.07-.2-2.18-.5v4.53h-1.21v-.69h-6.75v.69h-1.25V39.9l-1.69.49a3.35 3.35 0 0 0-.77-1.13 20.75 20.75 0 0 0 6-2.07 11.46 11.46 0 0 1-2-1.65 17.59 17.59 0 0 1-2.93 2.2 3 3 0 0 0-.94-.91 13.3 13.3 0 0 0 4.94-4.38h-3.43v2h-1.27V31.3h6.07v-1.54h1.43c.19 0 .35 0 .35.19s-.2.2-.46.25v1.1H79v3.09h-1.3v-1.95h-5.76a.21.21 0 0 1 .09.16c0 .19-.28.2-.58.24a5.16 5.16 0 0 1-.53.78h5l.55.53a11.84 11.84 0 0 1-3.06 3A18.28 18.28 0 0 0 79.7 39a3.66 3.66 0 0 0-.7 1.21zm-6.7-2.32a20.31 20.31 0 0 1-3.59 1.65h7.58a19.6 19.6 0 0 1-3.99-1.65zm3.31 2.68h-6.75v1.93h6.75zM70 34.67l-.11.13a13.73 13.73 0 0 0 2.32 1.76 8.65 8.65 0 0 0 2.2-1.88zm14.66 9.57h-1.12v-7.53a15.85 15.85 0 0 1-1.6 3.92 3.17 3.17 0 0 0-.94-.83 16.53 16.53 0 0 0 2.51-5.8h-2.12v-1h2.1v-3.13l1.18.09c.08 0 .36.06.36.2s-.08.16-.38.27V33h1.68v1h-1.67v.71A14.47 14.47 0 0 0 86.73 38a3.72 3.72 0 0 0-.85 1 21.22 21.22 0 0 1-1.22-2.71zm6.94-10.48h3v1h-3v1.16h4.25v1H91.6v1.21a8.66 8.66 0 0 0 1 1.3 10.93 10.93 0 0 0 1.93-2.29l.89.64c.17.13.19.22.19.27s-.25.16-.44.16a16 16 0 0 1-1.88 1.93 9.74 9.74 0 0 0 2.79 1.91 3.67 3.67 0 0 0-.77 1.08 11.6 11.6 0 0 1-3.72-3.31v2.32c0 1.85-.47 2.13-2.46 2.15a3.69 3.69 0 0 0-.6-1.29 5.24 5.24 0 0 0 1 .08c.77 0 .82-.16.82-.71v-1.85c-1.33.85-1.82 1.16-3.22 1.91 0 .16 0 .44-.2.44s-.2-.11-.3-.28l-.55-1a25.3 25.3 0 0 0 4.27-2.29v-2.35h-3.92v-1h3.94v-1.2h-3v-1h3v-1h-3.82v-1H89a10.55 10.55 0 0 0-1.1-1.55l1.1-.5a15.56 15.56 0 0 1 1.18 1.73l-.75.3h2.31a14.81 14.81 0 0 0 1.08-2.05l1.16.41c.08 0 .22.13.22.22s-.17.16-.41.17a14.07 14.07 0 0 1-.79 1.24h2.62v1h-4zm-3.45 3.42A12.39 12.39 0 0 1 89.58 39a6.81 6.81 0 0 0-.85.67 15.29 15.29 0 0 0-1.52-1.84zm21.51 4.22a9 9 0 0 1-3.75 2.13 6.4 6.4 0 0 0-.89-1.21c4.67-1 5.16-4.25 5.16-5.52a4.52 4.52 0 0 0-4.77-4.61 22.63 22.63 0 0 1-1.71 7.23c-.86 2-1.62 2.87-2.48 2.87-1.16 0-2.95-1.82-2.95-4.39a7.22 7.22 0 0 1 7.12-6.9c3.36 0 6.13 2.24 6.13 5.82a6.7 6.7 0 0 1-1.86 4.58zm-10.1-3.58c0 1.69.93 2.93 1.6 2.93s1.24-1.49 1.62-2.48A18.39 18.39 0 0 0 104 32.4a5.88 5.88 0 0 0-4.45 5.42zm20.3-3.54a34.79 34.79 0 0 1-4.22 9.65c-.38-.24-1-.52-1.33-.69a26.73 26.73 0 0 0 4.11-8.77 33.41 33.41 0 0 1-3.47.17l-.11-1.43h1.3c1 0 2-.06 2.59-.11a20.55 20.55 0 0 0 .47-3.22l1.52.39c.24.06.31.14.31.22s-.24.22-.31.22c-.09.34-.44 1.9-.52 2.21a13 13 0 0 0 3.4-.86l.25 1.33a25.15 25.15 0 0 1-3.99.89zm4.69 9.32c-1 0-4.41 0-4.41-2.35a3.7 3.7 0 0 1 .86-2.18l1.16.5a2.68 2.68 0 0 0-.77 1.58c0 1 1.6 1.19 3.12 1.19a11.61 11.61 0 0 0 3.34-.5v.66a3.23 3.23 0 0 0 .08.8 18.87 18.87 0 0 1-3.38.3zm2.87-6.6a12.71 12.71 0 0 0-2.34-.2 26 26 0 0 0-3.45.27v-1.28a24 24 0 0 1 3.62-.27 14.16 14.16 0 0 1 2.31.16 7.3 7.3 0 0 0-.14 1.32zm10.67 6.71a4.86 4.86 0 0 0-.71-1.18c1.32-.16 5.41-.91 5.41-4.67a3.66 3.66 0 0 0-3.58-3.73 15.93 15.93 0 0 1-2.48 5.68 12.13 12.13 0 0 0 .85 1.11 14.55 14.55 0 0 0-1.13 1c-.24-.36-.44-.64-.67-1-1.4 1.4-2.27 1.62-3 1.62-1.29 0-2.06-1-2.06-2.46a7 7 0 0 1 2.32-4.89 38.18 38.18 0 0 1-1-3.83l1.43-.44a17.49 17.49 0 0 0 .69 3.37 7.42 7.42 0 0 1 3.91-1.38 17.17 17.17 0 0 0 .35-2.89l1.54.38c.09 0 .3.08.3.22s-.27.2-.36.22c0 .3-.36 1.76-.42 2.1a4.82 4.82 0 0 1 4.69 5c-.01 3.23-2.47 5.12-6.08 5.77zm-4.56-7.31a5.52 5.52 0 0 0-1.53 3.54c0 .58.17 1.25.94 1.25s1.91-1.15 2.15-1.43a28.14 28.14 0 0 1-1.57-3.36zm1-.93a18.42 18.42 0 0 0 1.47 3.14 14 14 0 0 0 1.84-4.5 6.1 6.1 0 0 0-3.28 1.36zm15.38 7.75l-1.24.38a15.37 15.37 0 0 1-.93-5.68 34 34 0 0 1 1-7.59l1.41.53c.25.09.33.16.33.23s-.19.19-.36.22A22.34 22.34 0 0 0 149 38.2a13.55 13.55 0 0 0 .19 2.42 19.83 19.83 0 0 1 1-2.53 2.46 2.46 0 0 0 .77.8 10.28 10.28 0 0 0-1.05 4.33zm10.51-1.08a25.45 25.45 0 0 1-3.64.24c-1.95 0-4.41-.19-4.41-2.21a5.34 5.34 0 0 1 .64-2.34l1.22.25a3.61 3.61 0 0 0-.6 1.77c0 1 1.15 1.25 3 1.25a15.39 15.39 0 0 0 3.83-.44 9.22 9.22 0 0 0-.04 1.48zm-5.88-8.6h-1.57v-1.36a13 13 0 0 0 1.58.08 21 21 0 0 0 5-.5c0 .13.13.94.17 1.35a28.72 28.72 0 0 1-5.18.43zm17.34 1.82a18.61 18.61 0 0 1-2.13 1.71 19.77 19.77 0 0 0 4.69-1.21l.74.91c.11.14.14.17.14.27s-.06.16-.17.16a.93.93 0 0 1-.44-.16 24.94 24.94 0 0 1-6.48 1.27c-.06.24-.13.44-.27.89h7.43c-.19 1.14-.93 3.86-1.82 4.53-.63.49-1.32.53-3.11.53A6.83 6.83 0 0 0 170 43a7.84 7.84 0 0 0 1.57.14c.86 0 1.27-.08 1.58-.6a9 9 0 0 0 .8-2.21h-6.32c-.24.64-.49 1.22-.77 1.85a8.12 8.12 0 0 0-1.32-.27 28.28 28.28 0 0 0 1.24-3 23.57 23.57 0 0 1-2.93 1.27 6.57 6.57 0 0 0-.93-1 18.57 18.57 0 0 0 4.33-1.76c.14-.52.16-.6.22-.83l.58.35a18.09 18.09 0 0 0 2.2-1.57H163v-1.12h5.73v-1.76h-4v-1.07h4v-1.61l1.33.11c.24 0 .36.08.36.19s-.16.19-.39.28v1h2.71v1.07H170v1.76h1.35a16.56 16.56 0 0 0 2.92-4l1.14.58a.36.36 0 0 1 .22.27c0 .24-.39.19-.52.19a17.49 17.49 0 0 1-2.11 2.99h4.42v1.11zm17.65 8.36c-3 0-3-1.21-3-2.1 0-.31.16-1.72.16-2s0-.78-.61-.78a1 1 0 0 0-.75.39c-1.27 1.24-3.39 3.56-4.35 4.61l-1.05-1c1.25-1.15 2.84-2.7 4.25-4.22.56-.6 3-3.36 3.47-3.89a44.12 44.12 0 0 1-6.32 1l-.33-1.45a24 24 0 0 0 8.52-1.44l.82 1a28 28 0 0 0-3.89 3.94.83.83 0 0 1 .36-.06 1.17 1.17 0 0 1 1.25 1.11c0 .41-.27 2.17-.27 2.53 0 .88.34 1.08 1.79 1.08a10.13 10.13 0 0 0 3.34-.55 9 9 0 0 0 .08 1.46 17.66 17.66 0 0 1-3.47.37zM188.6 32a25.24 25.24 0 0 1-5.25-.5l.13-1.32a16.05 16.05 0 0 0 4.57.55h.77a5.53 5.53 0 0 0-.22 1.27zm12.26.52v1.19h-1.74v2.9c1-.33 1.46-.52 2-.74a6.27 6.27 0 0 0 0 1.21 18.2 18.2 0 0 1-1.94.75v4.63c0 1.52-.63 1.76-2.73 1.74a3.6 3.6 0 0 0-.39-1.35 6 6 0 0 0 .94.08c.88 0 .91-.25.91-.71v-4c-.28.08-1.47.49-1.71.55 0 .19-.11.42-.3.42s-.19-.14-.22-.31l-.19-1.25c.78-.17 1.66-.42 2.42-.64v-3.28h-2.13v-1.19h2.13v-2.71l1.36.08c.13 0 .34 0 .34.24s-.17.24-.44.33v2.07zm.56.94v-1.17h1.74c0-.39.06-2.13.06-2.49h1.35c.16 0 .35 0 .35.2s-.14.25-.42.3v1.95h5.5v1.18h-5.57c-.09 1.1-.19 1.71-.22 2h4.16l.66.58a13.68 13.68 0 0 1-2.13 4.82 11.71 11.71 0 0 0 3.34 2.38 2.62 2.62 0 0 0-1 1 13.59 13.59 0 0 1-3.12-2.43 11.48 11.48 0 0 1-3.23 2.56 4 4 0 0 0-1-.92 10.6 10.6 0 0 0 3.48-2.56 10.93 10.93 0 0 1-1.6-3.08A13.7 13.7 0 0 1 200.5 44a3.06 3.06 0 0 0-1.05-.82c3-3.06 3.53-7.26 3.69-9.73zm3.07 3.2a9.52 9.52 0 0 0 1.57 3.26 11.06 11.06 0 0 0 1.49-3.26zm16.09 5.81a2.64 2.64 0 0 1-2.29 1.08 9.37 9.37 0 0 1-1.6-.19 6.34 6.34 0 0 0-.11-1.52 4 4 0 0 0 1.62.35 1.59 1.59 0 0 0 1.47-.77 8.67 8.67 0 0 0 1.1-4.3c0-2.21-1-2.53-2-2.53a9.56 9.56 0 0 0-1 .09 24.2 24.2 0 0 1-4.27 8.82 6.5 6.5 0 0 0-1.3-.69 19.45 19.45 0 0 0 4.14-7.91 27.51 27.51 0 0 0-3.4 1l-.49-1.41c.36-.06 1.41-.3 1.58-.35 1.29-.28 2.09-.45 2.65-.55a24.89 24.89 0 0 0 .52-3.56l1.52.49c.19.06.28.08.28.22s-.17.22-.38.27c-.06.28-.36 1.62-.55 2.42h.83c2.16 0 3.15 1.29 3.15 3.55a10.5 10.5 0 0 1-1.47 5.49zm2.89-3a5.2 5.2 0 0 0-.58-1.18c.93-.16 1.9-.36 1.9-1.19a9.18 9.18 0 0 0-2.56-4.72l1.05-.69c1.77 1.91 2.89 4.41 2.89 5.65-.01.52-.01 1.66-2.71 2.12zm16.48 3.69c-.33 0-2.09-.12-2.09-3 0-.41.14-1.51.25-2.59s.24-2.18.24-2.54 0-1-.82-1c-1.32 0-3.48 2.18-4.42 3.29a57.32 57.32 0 0 0 .19 6.68l-1.52.06c.06-1 .06-2.21.06-2.63v-2.35c-1.21 1.74-1.73 2.48-2.31 3.44l-1.05-1.07a44.66 44.66 0 0 0 3.42-5.08v-1.08a17.36 17.36 0 0 1-3 .72l-.33-1.43a12.59 12.59 0 0 0 3.33-.61v-3.94l1.38.17c.17 0 .38.08.38.25s-.22.22-.31.24c0 .42-.11 1.21-.17 2.81a6 6 0 0 0 .58-.33l.6.67a15.68 15.68 0 0 0-.74 1.41c.61-.6 2.51-2.48 4.2-2.48s1.8 1.8 1.8 2.21 0 .6-.33 3.11a21 21 0 0 0-.17 2.23c0 .74.16 1.49.94 1.49.53 0 1.33-.42 2.13-1.66.09.2.49 1.13.58 1.3a4.31 4.31 0 0 1-2.82 1.71zm10.39-8.88a34.79 34.79 0 0 1-4.22 9.65c-.38-.24-1-.52-1.33-.69a26.73 26.73 0 0 0 4.11-8.77 33.41 33.41 0 0 1-3.47.17l-.11-1.43h1.3c1 0 2-.06 2.59-.11a20.55 20.55 0 0 0 .47-3.22l1.52.39c.24.06.31.14.31.22s-.24.22-.31.22c-.09.34-.44 1.9-.52 2.21a13 13 0 0 0 3.4-.86l.25 1.33a25.15 25.15 0 0 1-3.99.89zM255 43.6c-1 0-4.41 0-4.41-2.35a3.7 3.7 0 0 1 .86-2.18l1.16.5a2.68 2.68 0 0 0-.77 1.58c0 1 1.6 1.19 3.12 1.19a11.61 11.61 0 0 0 3.34-.5v.66a3.23 3.23 0 0 0 .08.8 18.87 18.87 0 0 1-3.38.3zm2.9-6.6a12.71 12.71 0 0 0-2.34-.2 26 26 0 0 0-3.45.27v-1.28a24 24 0 0 1 3.62-.27 14.16 14.16 0 0 1 2.31.16 7.3 7.3 0 0 0-.14 1.32zm11.84-.73l.82.52c.08 0 .27.17.27.28a.2.2 0 0 1-.22.17.71.71 0 0 1-.25 0 34.9 34.9 0 0 1-3.25 2.38c1.62 0 3.23-.16 4.85-.28a13.7 13.7 0 0 0-1.18-1.13l.85-.72a21.3 21.3 0 0 1 3.09 3.2 3.22 3.22 0 0 0-.93.83 16.48 16.48 0 0 0-1-1.32c-2.16.17-2.42.2-4.14.31v3.8h-1.35v-3.7l-2.48.13.91.58c.09.06.24.17.24.27s-.16.19-.27.19h-.22a17.35 17.35 0 0 1-3 2.46 4 4 0 0 0-1.07-.91 13.74 13.74 0 0 0 3.26-2.56c-.91.06-2.18.09-3.14.13-.08.16-.16.28-.31.28s-.2-.25-.22-.38l-.08-1c1.47 0 2.93 0 4.41-.06l.38-.27a25.34 25.34 0 0 0-3.07-2.16l.82-.71c.72.47 1 .66 1.55 1.05a16.69 16.69 0 0 0 1.29-1.27h-5.49v-1h6.48V34h-5v-1h5v-1.09h-5.82v-1h5.82v-1.12l1.4.09c.14 0 .33 0 .33.17s-.25.28-.42.33v.52h5.93v1h-5.93v1.14h5v1h-5v1.22h6.54v1zm-1.88 0a.25.25 0 0 1 .13.2c0 .14-.24.14-.55.11a21.38 21.38 0 0 1-1.6 1.55l.75.6a39.32 39.32 0 0 0 3.11-2.46zm5.07 7.87a14.77 14.77 0 0 1-2.87-2.71l.89-.74a12.93 12.93 0 0 0 2.92 2.53 5.71 5.71 0 0 0-.94.93zm9.75-4.86a20.1 20.1 0 0 1-1.25-2.73v7.69h-1.23v-7.5a21.36 21.36 0 0 1-2.27 4.66 3.43 3.43 0 0 0-1.13-.74 19.65 19.65 0 0 0 3.28-6.37h-2.92v-1.12h3v-3.33l1.25.08c.2 0 .36 0 .36.19s-.2.27-.39.33v2.73h2.15v1.13h-2.15v.31a20.86 20.86 0 0 0 2.26 3.72 7.3 7.3 0 0 0-.96.95zm6.68-5v8.17c0 1.14-.14 1.85-2.93 1.77a3 3 0 0 0-.57-1.47 11 11 0 0 0 1.46.13c.77 0 .78-.17.78-.63v-6.2a19.37 19.37 0 0 1-4.39 6.13 3.19 3.19 0 0 0-1.21-.77 17.64 17.64 0 0 0 5.32-7.14h-3.58v-1.1h3.86v-3.35l1.3.13c.27 0 .38.08.38.2s-.08.22-.42.34v2.67h2.17v1.13zM303 37.59c0 .39.08 1 .08 1.84s0 1.11-.06 1.49h-1.37a14.88 14.88 0 0 0 .08-1.69v-1.05c-3 1.47-3.25 2.38-3.25 3s0 1.33 3.2 1.33a18.56 18.56 0 0 0 4.78-.63 6.47 6.47 0 0 0-.16 1.44 19 19 0 0 1-4 .38c-1.27 0-5.05 0-5.05-2.49 0-1.66 1.8-3 4.33-4.22a1.43 1.43 0 0 0-1.6-1.24 3.87 3.87 0 0 0-2.82 1.54 18.21 18.21 0 0 0-1.66 2.23l-1.1-.86a30.81 30.81 0 0 0 3.89-5.35c-1.71.08-2 .08-3.18.06V32a21.41 21.41 0 0 0 2.26.09h1.55a13.1 13.1 0 0 0 1-2.29l1.29.3c.13 0 .35.08.35.27s-.25.22-.42.24c-.19.42-.36.8-.64 1.37a19.86 19.86 0 0 0 4.13-.86v1.38c-1.85.38-3.92.63-4.82.72-.46.82-.85 1.4-1.21 2a3.62 3.62 0 0 1 1.76-.45 2.42 2.42 0 0 1 2.48 1.69c.58-.25 3.14-1.3 3.64-1.55l.53 1.41a37 37 0 0 0-4.01 1.27zm9.18-.46a17.27 17.27 0 0 0-2.63-1.91l.67-1a17.21 17.21 0 0 1 2.73 1.88 6.67 6.67 0 0 0-.77 1.03zm.46 4.49c-.17.36-1 1.88-1.16 2.21a1.43 1.43 0 0 1 .17.41.17.17 0 0 1-.17.16.82.82 0 0 1-.31-.12l-1.17-.71a32.9 32.9 0 0 0 2.63-5.16 4.65 4.65 0 0 0 1.05.82c-.37 1.01-.97 2.25-1.05 2.39zm.36-8.92a20.52 20.52 0 0 0-2.7-1.77l.71-1.05a22.52 22.52 0 0 1 2.78 1.71 6.19 6.19 0 0 0-.79 1.11zm6.51 2.73v2.4h3.39v6.38h-1.27v-1h-5.51v1h-1.29v-6.4h3.37v-2.4h-4.47v-1.16h4.47v-2.2a24.53 24.53 0 0 1-3.48.28 4.65 4.65 0 0 0-.49-1.18 21.37 21.37 0 0 0 8-1.27l.82.92a.48.48 0 0 1 .13.25c0 .14-.14.17-.22.17a1.22 1.22 0 0 1-.45-.17 19.21 19.21 0 0 1-3 .78v2.4h4.58v1.18zm2.16 3.57h-5.51v3.11h5.51zm13.08 3.47a2.64 2.64 0 0 1-2.29 1.08 9.37 9.37 0 0 1-1.6-.19 6.39 6.39 0 0 0-.11-1.52 4 4 0 0 0 1.62.35 1.59 1.59 0 0 0 1.47-.77 8.67 8.67 0 0 0 1.1-4.3c0-2.21-1-2.53-2-2.53a9.56 9.56 0 0 0-1 .09 24.2 24.2 0 0 1-4.27 8.82 6.52 6.52 0 0 0-1.3-.69 19.45 19.45 0 0 0 4.14-7.91 27.51 27.51 0 0 0-3.4 1l-.49-1.41c.36-.06 1.41-.3 1.58-.35 1.29-.28 2.09-.45 2.65-.55a24.89 24.89 0 0 0 .52-3.56l1.52.49c.19.06.28.08.28.22s-.17.22-.38.27c-.06.28-.36 1.62-.55 2.42h.83c2.16 0 3.15 1.29 3.15 3.55a10.5 10.5 0 0 1-1.47 5.49zm2.89-3a5.2 5.2 0 0 0-.58-1.18c.93-.16 1.9-.36 1.9-1.19a9.18 9.18 0 0 0-2.56-4.72l1.05-.69c1.77 1.91 2.89 4.41 2.89 5.65-.01.52-.01 1.66-2.71 2.12zm16.02-6.21h-2.76v2.65a5.55 5.55 0 0 1 .61 2.56 6.72 6.72 0 0 1-1.41 4 7.57 7.57 0 0 1-2.6 2c-.25-.25-.85-.72-1.18-1 1.79-.71 3.06-1.6 3.62-3.51a2.42 2.42 0 0 1-1.85.88c-1.38 0-2.2-1.19-2.2-2.9s1.05-3 2.49-3a2.15 2.15 0 0 1 1.16.31v-1.91c-1.79.08-5 .34-6.71.63l-.12-1.47c1.08 0 5.83-.28 6.81-.33a17.69 17.69 0 0 0-.22-2.27l1.55.16c.22 0 .38 0 .38.2s-.19.19-.28.24a14.79 14.79 0 0 0-.06 1.62c4.58-.2 5.1-.22 5.51-.25a11.21 11.21 0 0 0 0 1.43c-.56-.02-1.5-.04-2.74-.04zm-5.19 2.82c-1 0-1.4 1.05-1.4 1.93 0 .36 0 1.77 1.29 1.77.91 0 1.58-.86 1.58-2a1.56 1.56 0 0 0-1.47-1.7zm16.84 6.06c-.47.24-2.59 1.22-3 1.46l-1-1a6 6 0 0 0 .08-.93v-11l1.41.06c.22 0 .33 0 .33.16s-.22.3-.33.34v10.48a21.19 21.19 0 0 0 9.2-6.5 8.92 8.92 0 0 0 .71 1.41 24.16 24.16 0 0 1-7.4 5.52zM380 37.13a17.79 17.79 0 0 0-4-2.13l.78-1.11a21.58 21.58 0 0 1 4.06 2.11 4.74 4.74 0 0 0-.84 1.13zm-1.88 6.46c0 .16 0 .38-.25.38s-.19-.13-.25-.25L377 42.5a22.26 22.26 0 0 0 11.54-8.86 8.2 8.2 0 0 0 .91 1.13 24.59 24.59 0 0 1-11.34 8.83zm3.75-10.13a16.63 16.63 0 0 0-4.22-2.17l.78-1.05a19.11 19.11 0 0 1 4.27 2.05 6 6 0 0 0-.84 1.17zm22.42 9.7c-.92 0-5 .09-5.8.09-3.43 0-5-.08-5-3v-10l1.47.11c.14 0 .3 0 .3.19s-.19.24-.38.31v5.05a18.86 18.86 0 0 0 7.8-3.11l1.16.94a.26.26 0 0 1 .13.2c0 .11-.12.17-.33.17a1.91 1.91 0 0 1-.3 0 23.39 23.39 0 0 1-8.46 3.09V40c0 1.8.34 2 3.39 2a58.07 58.07 0 0 0 6.2-.27c-.06.42-.09.69-.18 1.43zm.46-10.51a1.41 1.41 0 1 1 1.41-1.41 1.42 1.42 0 0 1-1.42 1.41zm0-2.21a.8.8 0 0 0-.8.8.79.79 0 0 0 .8.8.8.8 0 1 0 0-1.6zm5.38 13.36a2 2 0 1 1 2-2 2 2 0 0 1-2 2zm0-3.28a1.26 1.26 0 1 0 1.27 1.27 1.26 1.26 0 0 0-1.27-1.27zM107.59 63.08c-2 5.41-4.5 7.92-9.19 10.1a4 4 0 0 0-1-1.08 13.93 13.93 0 0 0 8.83-9.4H95.71v-1.28h10.21a2.76 2.76 0 0 0 1.08-.14l1 .88a4.87 4.87 0 0 0-.41.92zm.72-1.57a1.4 1.4 0 1 1 1.41-1.41 1.4 1.4 0 0 1-1.41 1.42zm0-2.21a.81.81 0 1 0 .82.8.81.81 0 0 0-.82-.8zm7.81 12.27c-.47.24-2.59 1.22-3 1.46l-1-1a6 6 0 0 0 .08-.93v-11l1.41.06c.22 0 .33 0 .33.16s-.22.3-.33.35v10.48a21.19 21.19 0 0 0 9.22-6.51 8.92 8.92 0 0 0 .71 1.41 24.16 24.16 0 0 1-7.42 5.52zm8.95-4.38v-1.38h13.35v1.38zm19.85-2.96a17.77 17.77 0 0 0-4.46-3l.82-1.16a21.09 21.09 0 0 1 4.49 3 8.77 8.77 0 0 0-.85 1.16zm-3.06 8.47c0 .27 0 .36-.22.36s-.2-.11-.25-.19l-.85-1.41a18.58 18.58 0 0 0 12-8.61 8.89 8.89 0 0 0 .86 1.22c-3.52 5.68-8.98 7.72-11.53 8.63zm13.52-.83v-1.26h9.79v-3.54h-9.33v-1.22h9.33v-3.4h-9.57v-1.26h11v11.43h-1.4v-.75zM169 67.19v-1.38h13.35v1.38zm27.24-3.74c-1.49 3.51-3.37 8-9.13 10.29a5.29 5.29 0 0 0-1-1c2.73-1.1 6.57-3.09 8.61-9.47h-5.21a21.45 21.45 0 0 1-4 4.5 10.47 10.47 0 0 0-1.05-1 16.74 16.74 0 0 0 5.44-7.28l1.32.57c.14.06.22.11.22.22s-.24.2-.38.22c-.39.78-.58 1.11-.8 1.49h4.69a2.33 2.33 0 0 0 1-.24l.78.74a6.58 6.58 0 0 0-.49.96zm-1.49-2.26a9.34 9.34 0 0 0-1.38-1.54l.78-.61a13.4 13.4 0 0 1 1.41 1.57 4.08 4.08 0 0 0-.81.58zm2.37-.09a9.58 9.58 0 0 0-1.37-1.6l.75-.61a16.29 16.29 0 0 1 1.43 1.62 3.36 3.36 0 0 0-.81.58zm5.8.01V65a7.71 7.71 0 0 1-3.92 7.31 3.65 3.65 0 0 0-1.11-1c3.45-1.93 3.61-4.25 3.61-6.21v-4.6l1.38.09c.16 0 .36 0 .36.2s-.16.21-.32.32zM207 71.74a4.14 4.14 0 0 0-.88.71l-1-.71V60.39l1.4.06c.17 0 .31 0 .31.17s-.14.2-.31.28v9.4a16.58 16.58 0 0 0 5.3-4.92 6 6 0 0 0 .75 1.19 21.87 21.87 0 0 1-5.57 5.17zM223.75 69a22.15 22.15 0 0 0-5.8-4v8.25h-1.41V59.67l1.43.11c.2 0 .3.06.3.19s-.2.22-.31.24v4.47l.61-.85a24.93 24.93 0 0 1 6 4 7.51 7.51 0 0 0-.82 1.17zm9.36-3c-.83.41-3.59 1.74-3.59 3.59 0 2.07 3.59 2.07 4.64 2.07a18.48 18.48 0 0 0 5.24-.75 5.17 5.17 0 0 0-.11 1.57 29.68 29.68 0 0 1-5 .47 9.36 9.36 0 0 1-4.55-.8 2.89 2.89 0 0 1-1.62-2.54c0-2 1.79-3.26 3.51-4.22-.85-.89-1-2-1.19-3.83a6.41 6.41 0 0 0-.31-1.77l1.8-.38c0 .64-.08 1.07-.08 1.49a6.5 6.5 0 0 0 .89 3.91c.71-.35 1.68-.79 2.73-1.18l3.42-1.33.6 1.54a26.62 26.62 0 0 0-6.38 2.16zm17.97-.3l.82.52c.08 0 .27.17.27.28a.2.2 0 0 1-.22.17.71.71 0 0 1-.25 0 34.9 34.9 0 0 1-3.25 2.33c1.62 0 3.23-.16 4.85-.28a13.7 13.7 0 0 0-1.18-1.13l.85-.72a21.26 21.26 0 0 1 3.09 3.2 3.21 3.21 0 0 0-.93.83 16.48 16.48 0 0 0-1-1.32c-2.16.17-2.42.2-4.14.31v3.8h-1.32V70l-2.48.13.91.58c.09.06.24.17.24.27s-.16.19-.27.19h-.22a17.43 17.43 0 0 1-3 2.46 4 4 0 0 0-1.07-.91 13.74 13.74 0 0 0 3.22-2.59c-.91.06-2.18.09-3.14.13-.08.16-.16.28-.31.28s-.2-.25-.22-.38l-.08-1c1.47 0 2.93 0 4.41-.06l.38-.27a25.34 25.34 0 0 0-3.04-2.2l.82-.71c.72.47 1 .66 1.55 1.05a16.51 16.51 0 0 0 1.29-1.27h-5.49v-1h6.48v-1.25h-5v-1h5v-1.11h-5.82v-1h5.82v-1.11l1.4.09c.14 0 .33 0 .33.17s-.25.28-.42.33v.52h5.93v1H250v1.14h5v1h-5v1.22h6.54v1zm-1.88 0a.25.25 0 0 1 .13.2c0 .14-.24.14-.55.11a21.58 21.58 0 0 1-1.6 1.55l.75.6A39.32 39.32 0 0 0 251 65.7zm5.07 7.87a14.77 14.77 0 0 1-2.87-2.71l.89-.74a12.93 12.93 0 0 0 2.92 2.53 5.75 5.75 0 0 0-.94.93zm9.12-4.85a20.1 20.1 0 0 1-1.25-2.72v7.69h-1.22v-7.5a21.33 21.33 0 0 1-2.27 4.66 3.45 3.45 0 0 0-1.13-.74 19.65 19.65 0 0 0 3.28-6.37h-2.92V62.6h3v-3.33l1.25.08c.2 0 .36 0 .36.19s-.2.27-.39.33v2.73h2.15v1.13h-2.15V64a20.86 20.86 0 0 0 2.26 3.72 7.3 7.3 0 0 0-.97 1zm6.68-5v8.18c0 1.14-.14 1.85-2.93 1.77a3 3 0 0 0-.57-1.47 11 11 0 0 0 1.46.13c.77 0 .78-.17.78-.63v-6.2a19.37 19.37 0 0 1-4.39 6.13 3.19 3.19 0 0 0-1.21-.77 17.64 17.64 0 0 0 5.32-7.14H265V62.6h3.86v-3.34l1.3.13c.27 0 .38.08.38.2s-.08.22-.42.34v2.67h2.17v1.13zm15.39 7.11a9 9 0 0 1-3.75 2.17 6.4 6.4 0 0 0-.89-1.21c4.67-1 5.16-4.25 5.16-5.52a4.52 4.52 0 0 0-4.77-4.61 22.63 22.63 0 0 1-1.71 7.23c-.86 2-1.62 2.87-2.48 2.87-1.16 0-2.95-1.82-2.95-4.39a7.22 7.22 0 0 1 7.12-6.95c3.36 0 6.13 2.24 6.13 5.82a6.7 6.7 0 0 1-1.86 4.59zm-10.1-3.58c0 1.69.93 2.93 1.6 2.93s1.24-1.49 1.62-2.48a18.39 18.39 0 0 0 1.22-5.88 5.88 5.88 0 0 0-4.44 5.44zm18.42-6.36v9.57h-1.16v-.78h-1.74v1.74h-1.16V60.89zm-2.9 1.18v6.45h1.74v-6.45zm8 11.62h-1.21v-5.87a16.62 16.62 0 0 1-4.81 5.18 3.28 3.28 0 0 0-1-.88 15.35 15.35 0 0 0 5.32-5.35H294v-1.22h3.65v-2.62h-3.12v-1.15h3.12v-2.57l1.43.09c.17 0 .25.11.25.2s-.17.24-.47.33v1.94h3.73v1.15h-3.73v2.62h4.63v1.18h-4.16a16.06 16.06 0 0 0 4.69 5 3.26 3.26 0 0 0-1 1 16.92 16.92 0 0 1-4.2-4.91zM314.44 67c0 .39.08 1 .08 1.84s0 1.11-.06 1.49h-1.37a14.88 14.88 0 0 0 .08-1.69v-1.05c-3 1.47-3.25 2.38-3.25 3s0 1.33 3.2 1.33a18.56 18.56 0 0 0 4.78-.63 6.47 6.47 0 0 0-.16 1.44 18.94 18.94 0 0 1-4 .38c-1.27 0-5.05 0-5.05-2.49 0-1.66 1.8-3 4.33-4.22a1.43 1.43 0 0 0-1.6-1.24 3.87 3.87 0 0 0-2.82 1.54 18.21 18.21 0 0 0-1.66 2.23L305.8 68a30.81 30.81 0 0 0 3.89-5.35c-1.71.08-2 .08-3.18.06v-1.27a21.41 21.41 0 0 0 2.26.09h1.55a13.1 13.1 0 0 0 1-2.29l1.29.3c.13 0 .35.08.35.27s-.25.22-.42.24c-.19.42-.36.8-.64 1.37a19.86 19.86 0 0 0 4.1-.92v1.38c-1.85.38-3.92.63-4.82.72-.46.82-.85 1.4-1.21 2a3.61 3.61 0 0 1 1.76-.46 2.42 2.42 0 0 1 2.48 1.69c.58-.25 3.14-1.3 3.64-1.55l.53 1.41a37 37 0 0 0-3.94 1.31zM93.49 90.07a1.38 1.38 0 0 1-.31 0 25.73 25.73 0 0 1-4 3.69v9h-1.43v-8a29.21 29.21 0 0 1-5.68 2.76 6.44 6.44 0 0 0-1-1.19 21.57 21.57 0 0 0 11.26-7.56l1.3.94a.25.25 0 0 1 .13.22c-.02.07-.13.14-.27.14zm15.33 2.7a38.9 38.9 0 0 1-5.43 5.63 17.63 17.63 0 0 1 2.1 2.6 5.13 5.13 0 0 0-1.16 1.05 22.1 22.1 0 0 0-5.6-6.13l.91-1a30.12 30.12 0 0 1 2.84 2.48 23.85 23.85 0 0 0 4.63-4.91h-10.8v-1.24h11.45a3 3 0 0 0 1-.24l.86 1a4.16 4.16 0 0 0-.8.76zm6.92 3.23a17.79 17.79 0 0 0-4-2.18l.78-1.11a21.58 21.58 0 0 1 4.08 2.12 4.74 4.74 0 0 0-.86 1.17zm-1.88 6.46c0 .14 0 .38-.24.38s-.19-.09-.25-.22l-.66-1.25a22.26 22.26 0 0 0 11.54-8.86 6.78 6.78 0 0 0 .91 1.13 24.59 24.59 0 0 1-11.3 8.82zm3.75-10.13a16.63 16.63 0 0 0-4.22-2.17l.78-1.05a19.11 19.11 0 0 1 4.27 2.05 6 6 0 0 0-.83 1.17zm5.18-.66a14.18 14.18 0 0 0-1.73-1.52l.72-.67a19 19 0 0 1 1.72 1.47 7.71 7.71 0 0 0-.72.72zm1.29-1.13a11.65 11.65 0 0 0-1.72-1.54l.71-.61a12.29 12.29 0 0 1 1.73 1.51 3.34 3.34 0 0 0-.73.64zM137 93.87a33.72 33.72 0 0 1-3.29 3.23v5.9h-1.41v-4.88a22.31 22.31 0 0 1-5.24 2.59 5.85 5.85 0 0 0-.72-1.21 18 18 0 0 0 9-5.8h-7.47v-1.23h8.34a3.46 3.46 0 0 0 .94-.16l.74.82a10.5 10.5 0 0 0-.89.74zm-2.09-2.17a19.3 19.3 0 0 0-4.63-2l.71-1.07a23 23 0 0 1 4.61 1.93 6.87 6.87 0 0 0-.71 1.14zm3.89 9a20.31 20.31 0 0 0-4.11-3.18l.88-1a27.81 27.81 0 0 1 4.08 3 9.92 9.92 0 0 0-.87 1.15zm2.58-4.07v-1.38h13.35v1.38zm19.21-.63a17.79 17.79 0 0 0-4-2.18l.78-1.11a21.58 21.58 0 0 1 4.08 2.12 4.74 4.74 0 0 0-.86 1.17zm-1.88 6.46c0 .16 0 .38-.25.38s-.19-.13-.25-.25l-.64-1.22a22.25 22.25 0 0 0 11.54-8.86 8.28 8.28 0 0 0 .91 1.13 24.59 24.59 0 0 1-11.31 8.82zm3.75-10.13a16.63 16.63 0 0 0-4.22-2.17l.78-1.05a19.09 19.09 0 0 1 4.27 2.05 6 6 0 0 0-.83 1.17zm17.23 9.91v-.6h-7.42v-1.1h7.42v-2.77h-7v-1.13h7V94h-7.25v-1.12h8.45v9.36zm9.46-8.58a17.77 17.77 0 0 0-4.46-3l.82-1.16a21 21 0 0 1 4.49 3 8.77 8.77 0 0 0-.85 1.16zm-3.06 8.47c0 .27 0 .36-.22.36s-.2-.11-.25-.19l-.85-1.41a18.58 18.58 0 0 0 12-8.61 8.89 8.89 0 0 0 .86 1.22c-3.52 5.68-8.98 7.72-11.54 8.63zm22.08-9.71c-.83.56-3.33 2.45-3.33 5.07 0 2 1.52 3.62 4.86 4a7.81 7.81 0 0 0-.6 1.47c-2.87-.58-5.65-2.15-5.65-5.43 0-2.05 1.21-4.25 4.28-6.09-.39 0-7.2.75-8.47 1.07l-.22-1.69h.8a89.78 89.78 0 0 0 12.36-1.38l.31 1.55a7.13 7.13 0 0 0-4.34 1.43zm2.38 3.8a12.73 12.73 0 0 0-1.41-1.76l.75-.58a13.45 13.45 0 0 1 1.43 1.71 3.45 3.45 0 0 0-.76.63zm1.55-1.14a9.88 9.88 0 0 0-1.41-1.79l.75-.53a12.53 12.53 0 0 1 1.46 1.71 2.73 2.73 0 0 0-.79.6zm3.83-3.08c.3 0 .44.08.44.22s-.19.19-.33.2a14.24 14.24 0 0 1-.72 3.7 3 3 0 0 0-1.15-.36 11.24 11.24 0 0 0 .8-3.94zm2.62-1.18c.58.69 1.07 1.41 1.21 1.62a9 9 0 0 0 3.29-3.75l1.43.16c.13 0 .38 0 .38.2s-.17.25-.55.34a11.89 11.89 0 0 0 5.1 3.66 3.56 3.56 0 0 0-.85 1A14.7 14.7 0 0 1 226 92.6v1h-4.88v-.77a12.37 12.37 0 0 1-1.91 1.36 3.27 3.27 0 0 0-.86-1l.46-.22a10.86 10.86 0 0 0-1.07-1.49v11.59h-1.21V88.78l1.27.06c.09 0 .36 0 .36.2s-.24.27-.42.34v2zm2 9.11v3.18h-1.05v-8.46h4.09v7.09c0 .94-.11 1.38-1.93 1.38a2.65 2.65 0 0 0-.49-1.27 4.4 4.4 0 0 0 .85.09c.5 0 .5-.09.5-.44v-1.58zm1.94-3.07V95.7h-1.94v1.15zm0 2.13v-1.22h-1.94V99zm3.5-6.4a10.68 10.68 0 0 1-2.45-2.38 12.11 12.11 0 0 1-2.12 2.38zm-.34 2.15c.28 0 .36.06.36.2s-.2.27-.44.35v5.19h-1.13v-5.8zm1.25-.52l1.16.09c.11 0 .36 0 .36.22s-.22.27-.39.34v6.6c0 1.22-.27 1.68-2.15 1.68a2.86 2.86 0 0 0-.53-1.29 7.16 7.16 0 0 0 .89.08c.66 0 .66-.14.66-.72zm10 8.41c-3.23 0-3.33-3.22-3.33-5.74 0-1.11.2-6 .2-6.95a6.08 6.08 0 0 0 0-.88l1.66.22c.24 0 .38.06.38.2s-.22.25-.41.28A67.76 67.76 0 0 0 235 97c0 2.67.19 4.28 2 4.28 3.25 0 5.63-3.58 6.17-4.71a5.24 5.24 0 0 0 1 1.16c-2.75 4.43-5.96 4.9-7.27 4.9zm23.28-2.77a13.68 13.68 0 0 0-2.2-1.6 11 11 0 0 1-3.72 4.58 3.66 3.66 0 0 0-1.08-1 8.54 8.54 0 0 0 3.64-4.25 14 14 0 0 0-4-1.4 32.69 32.69 0 0 1-1.8 3.59 2.42 2.42 0 0 1-1.91 1.41A2.19 2.19 0 0 1 247 99c0-1.24 1-4.08 5-4 .58-1.35 1.25-2.92 1.82-4a28.71 28.71 0 0 1-4.49.77l-.3-1.46a16.06 16.06 0 0 0 5.85-1l1 .8a29 29 0 0 0-2.56 5 16 16 0 0 1 4 1.32 12.92 12.92 0 0 0 .58-3.8l1.54.5c.11 0 .2.08.2.19s-.24.2-.31.2a16.46 16.46 0 0 1-.82 3.48 15.81 15.81 0 0 1 2.49 1.62c-.43.63-.48.71-.82 1.24zM248.27 99a.84.84 0 0 0 .74.94c.31 0 .61-.25 1-.85a21.45 21.45 0 0 0 1.46-2.9 3 3 0 0 0-3.2 2.81zm26.73 2.74a10.42 10.42 0 0 0-4.2-2.26v.58c0 .91-.17 2.49-3 2.49-2.17 0-3.56-1.07-3.56-2.27 0-1.65 2.06-2.29 3.69-2.29a12.66 12.66 0 0 1 1.4.11v-1.9h-1.51c-.86 0-3.2 0-3.2-1.22 0-.55.36-1 1.11-1.68l1.07.38c-.49.39-.75.6-.75.88s1.29.42 1.93.42h1.32v-2.73c-2.78.11-4.44.3-5.35.41v-1.33c.85-.06 4.58-.22 5.35-.27 0-1.15 0-1.54-.08-2.18l1.65.28c.13 0 .25.09.25.2s-.22.22-.34.24c0 .34-.08.89-.08 1.43.77 0 4.16-.08 4.85 0v1.32c-.75 0-1.88-.13-4.85-.06v2.7a22.35 22.35 0 0 0 4.47-.71v1.37a30.06 30.06 0 0 1-4.44.53c0 .42 0 1.83.06 2.2a13.59 13.59 0 0 1 5.19 2.27 12.75 12.75 0 0 0-.98 1.09zm-5.62-2.54A4.31 4.31 0 0 0 268 99c-1.44 0-2.45.42-2.45 1.22 0 1.08 1.77 1.14 2 1.14 1.77 0 1.77-1.07 1.77-1.58.06-.2.05-.39.03-.58zm15.51 3.43c-3.23 0-3.33-3.22-3.33-5.74 0-1.11.2-6 .2-6.95a6.08 6.08 0 0 0 0-.88l1.66.22c.24 0 .38.06.38.2s-.22.25-.41.28A67.76 67.76 0 0 0 283 97c0 2.67.19 4.28 2 4.28 3.25 0 5.63-3.58 6.17-4.71a5.24 5.24 0 0 0 1 1.16c-2.76 4.43-5.98 4.9-7.28 4.9zm17.41-10.91c.25 0 .36.06.36.22s-.16.22-.25.24c0 .33-.06.75-.08 2a15.32 15.32 0 0 0 4.31-.6v1.22a17.78 17.78 0 0 1-4.28.49 24.41 24.41 0 0 0 .17 3.07 14.47 14.47 0 0 1 4.88 2.51 10.29 10.29 0 0 0-.77 1 10 10 0 0 0-4-2.34c.06 1.32.14 2.93-2.6 2.93-1.8 0-3.09-1-3.09-2.21s1.24-2.13 3.64-2.13a3.76 3.76 0 0 1 .77.06c0-.77-.11-3.51-.14-4.49a12.24 12.24 0 0 0-.22-2.19zm-1.95 7.37c-1.18 0-2.27.34-2.27 1.19 0 .53.47 1.18 1.93 1.18s1.47-.8 1.47-1.49a5.63 5.63 0 0 0 0-.77 4.7 4.7 0 0 0-1.12-.11zm15.2 4.08a5.23 5.23 0 0 0-.82-1.19c5.27-.78 6.9-3.48 6.9-5.49a2.63 2.63 0 0 0-2.6-2.9c-1.88 0-4.71 1.27-6.56 2.6l-.71-1.74a7.85 7.85 0 0 0 2.27-.77 12.84 12.84 0 0 1 5-1.33 3.8 3.8 0 0 1 4 4c-.03 3.45-3.03 6.03-7.48 6.82zm5-12.3a21.56 21.56 0 0 1-6-.8l.22-1.35a16 16 0 0 0 4.94.75h1a11.54 11.54 0 0 0-.17 1.4zm8.5 11.8a2 2 0 1 1 2-2 2 2 0 0 1-2 2zm0-3.28a1.26 1.26 0 1 0 1.27 1.27 1.26 1.26 0 0 0-1.27-1.27z" fill="#231815"/></svg>