<svg xmlns="http://www.w3.org/2000/svg" viewBox="0 0 480.61 96.02" width="480.61" height="96.02"><title>hero-title@sp</title><path d="M42 54.42a11.63 11.63 0 0 1 3.84-1.49 8.83 8.83 0 0 1 3.87.12 9.63 9.63 0 0 1 3.63 1.88 14 14 0 0 1 3.18 3.81A15.65 15.65 0 0 1 58.26 63a10 10 0 0 1 .21 4A9 9 0 0 1 57 70.73a10.79 10.79 0 0 1-3.42 3.06l-8.36 5L33.6 59.41zm9.14 16A6.38 6.38 0 0 0 52.7 69a4.59 4.59 0 0 0 1-1.91 5.8 5.8 0 0 0 0-2.45 9.23 9.23 0 0 0-1.21-3 13.18 13.18 0 0 0-1.87-2.48 6.16 6.16 0 0 0-2.14-1.46 4.85 4.85 0 0 0-2.49-.26A8 8 0 0 0 43 58.63l-3 1.82 7.3 12.21zm13.73-28.53l17.75 16.29L78 60.52l-3.8-3.71-7.52 3.82.7 5.28L63 68.18l-2.62-24zM71.4 54.1L65.11 48h-.06l1.13 8.71zm8.3-19.23L94.35 45h.06l-6-13.9 4.27-1.84L101.62 50l-4.56 2-14.6-10.2h-.06l6 13.87-4.27 1.84-8.95-20.69zm20.08-1.24a11.27 11.27 0 0 1 .78-4.29 10 10 0 0 1 2.44-3.56 12.35 12.35 0 0 1 8.79-3.15 10 10 0 0 1 4.13 1.21 11.28 11.28 0 0 1 3.33 2.82 14.13 14.13 0 0 1 2.3 4.16 13.65 13.65 0 0 1 .84 4.59 11 11 0 0 1-.8 4.23 10 10 0 0 1-2.44 3.51 12.56 12.56 0 0 1-8.79 3.15 10 10 0 0 1-4.12-1.16 11 11 0 0 1-3.31-2.76 13.61 13.61 0 0 1-2.27-4.07 14.08 14.08 0 0 1-.88-4.68zm6.79 5.49a7.46 7.46 0 0 0 1.81 1.88 5.43 5.43 0 0 0 2.37 1 6.57 6.57 0 0 0 5.36-1.92 5.42 5.42 0 0 0 1.21-2.26 7.49 7.49 0 0 0 .18-2.63 11.51 11.51 0 0 0-.62-2.72 12.33 12.33 0 0 0-1.28-2.6 7.62 7.62 0 0 0-1.83-2 5.37 5.37 0 0 0-2.37-1 6.57 6.57 0 0 0-5.4 1.97 5.37 5.37 0 0 0-1.2 2.28 7.6 7.6 0 0 0-.16 2.69 12.35 12.35 0 0 0 .66 2.82 11.44 11.44 0 0 0 1.27 2.49zm20.11-21.71L140 29.32h.06l-4.23-14.54 4.46-1.3 6.3 21.67-4.77 1.38-13.27-11.9h-.06l4.22 14.51-4.46 1.3-6.3-21.67zm35.17-9.05l.94 4.07-11.61 2.68 1.09 4.71 10.66-2.46.87 3.76-10.66 2.46 1.25 5.42 11.86-2.74.94 4.07-16.69 3.86-5.08-22zm24.01-4.16a14 14 0 0 1 2.94-.2 6.36 6.36 0 0 1 2.39.58 4.34 4.34 0 0 1 1.71 1.49 6.05 6.05 0 0 1 .91 2.55 5 5 0 0 1-.34 2.93 5.62 5.62 0 0 1-2 2.18 5.43 5.43 0 0 1 3.39 1.62 6.26 6.26 0 0 1 1.55 3.43 6.21 6.21 0 0 1-.22 3 5.75 5.75 0 0 1-1.46 2.28 7.91 7.91 0 0 1-2.36 1.54 11.53 11.53 0 0 1-2.87.81l-10.82 1.63-3.33-22.26zm.73 9.13a3.57 3.57 0 0 0 2.06-.95 2.39 2.39 0 0 0 .54-2.16 2.63 2.63 0 0 0-.47-1.22 2.11 2.11 0 0 0-.87-.67 3.2 3.2 0 0 0-1.14-.23 7.29 7.29 0 0 0-1.28.08l-4.59.69.78 5.22zm1.7 9.43a6.6 6.6 0 0 0 1.35-.35 3.43 3.43 0 0 0 1.09-.64 2.39 2.39 0 0 0 .66-1 3.1 3.1 0 0 0 .08-1.48 2.92 2.92 0 0 0-1.33-2.29 4.19 4.19 0 0 0-2.67-.35l-5.34.8.92 6.13zM203 2.08l2.4 22.44-4.93.53-2.36-22.45zm5.37 6.07a11.27 11.27 0 0 1 2-3.9 10 10 0 0 1 3.34-2.73A12.36 12.36 0 0 1 223 1a10 10 0 0 1 3.62 2.32A11.28 11.28 0 0 1 229 6.93a14.09 14.09 0 0 1 1 4.64 13.64 13.64 0 0 1-.49 4.64 11 11 0 0 1-2 3.84 10 10 0 0 1-3.33 2.68 12.55 12.55 0 0 1-9.32.55 10 10 0 0 1-3.55-2.28 11 11 0 0 1-2.4-3.58 13.65 13.65 0 0 1-1-4.55 14.09 14.09 0 0 1 .46-4.72zm5 7.18a7.46 7.46 0 0 0 1.2 2.35 5.42 5.42 0 0 0 2 1.61 6.57 6.57 0 0 0 5.68-.33 5.44 5.44 0 0 0 1.75-1.84 7.47 7.47 0 0 0 .91-2.48 11.46 11.46 0 0 0 .17-2.78 12.32 12.32 0 0 0-.5-2.85 7.62 7.62 0 0 0-1.2-2.42 5.38 5.38 0 0 0-2-1.62 6.57 6.57 0 0 0-5.68.33 5.36 5.36 0 0 0-1.79 1.85A7.6 7.6 0 0 0 213 9.7a12.35 12.35 0 0 0-.16 2.89 11.49 11.49 0 0 0 .49 2.74zm44.1-8.59a5 5 0 0 0-1.06-1.29 5.1 5.1 0 0 0-1.47-.9 5.15 5.15 0 0 0-1.74-.37 5.79 5.79 0 0 0-2.87.53 5.37 5.37 0 0 0-2 1.66 7.61 7.61 0 0 0-1.16 2.44 12.34 12.34 0 0 0-.45 2.86 11.47 11.47 0 0 0 .22 2.78 7.45 7.45 0 0 0 1 2.46 5.41 5.41 0 0 0 1.83 1.8 5.79 5.79 0 0 0 2.82.76 4.59 4.59 0 0 0 3.61-1.25 6.43 6.43 0 0 0 1.71-3.6l4.8.19a11.49 11.49 0 0 1-1.13 3.78 9.15 9.15 0 0 1-2.2 2.82 8.86 8.86 0 0 1-3.1 1.71 11.11 11.11 0 0 1-3.85.48 11.57 11.57 0 0 1-4.62-1.08 10 10 0 0 1-3.39-2.62 11 11 0 0 1-2-3.8 13.64 13.64 0 0 1-.58-4.63 14.1 14.1 0 0 1 .94-4.66 11.28 11.28 0 0 1 2.33-3.69 10 10 0 0 1 3.56-2.38 12.1 12.1 0 0 1 8.2-.05 9.57 9.57 0 0 1 2.91 1.68A8.46 8.46 0 0 1 261.84 5a9.1 9.1 0 0 1 .94 3.52l-4.78-.2a4.08 4.08 0 0 0-.53-1.58zm15.24-4.9l-.92 8.61 9.08 1 .92-8.61 4.94.53-2.39 22.44-4.93-.53 1-9.68-9.08-1-1 9.68-4.93-.53 2.39-22.44zm35.99 5.04L308 11l-11.74-2-.79 4.77 10.79 1.8-.63 3.8-10.79-1.8-.91 5.46 12 2-.68 4.12-16.9-2.81L292 4.11zm19.88 4.28l-.89 4.08L317 12.91 315.92 18l9.23 2-.83 3.77-9.23-2-2 9.11-4.85-1.06 4.83-22zm24.22 6.72a7.27 7.27 0 0 1 2.48 1.25A6.3 6.3 0 0 1 356.9 21a5.84 5.84 0 0 1 .71 2.27 6.33 6.33 0 0 1-.25 2.45 6.78 6.78 0 0 1-1.79 3.06 5.26 5.26 0 0 1-3.25 1.34v.06a3.83 3.83 0 0 1 1.23 1.18 4.29 4.29 0 0 1 .59 1.46 5.75 5.75 0 0 1 .08 1.66 13.63 13.63 0 0 1-.26 1.7q-.12.52-.3 1.23t-.32 1.46a9.89 9.89 0 0 0-.17 1.45 3.32 3.32 0 0 0 .17 1.25l-4.75-1.42a8.72 8.72 0 0 1 .25-2.6q.33-1.45.54-2.81a4.49 4.49 0 0 0-.29-2.79 3.69 3.69 0 0 0-2.34-1.56L342 29l-2.53 8.45-4.79-1.45 6.47-21.62zm-4.62 9.27a3.75 3.75 0 0 0 2.67 0 3.15 3.15 0 0 0 1.53-2.15 3 3 0 0 0-.13-2.53 3.81 3.81 0 0 0-2.25-1.4l-5.21-1.56L343 25.6zm31.56-.05l-1.42 3.9-11.21-4-1.64 4.55 10.29 3.71-1.31 3.63-10.29-3.71-1.88 5.2 11.45 4.13-1.42 3.93-16.12-5.81 7.65-21.23zM395 40a5 5 0 0 0-.53-1.58 5.18 5.18 0 0 0-2.55-2.33 5.8 5.8 0 0 0-2.87-.52 5.37 5.37 0 0 0-2.43.85 7.63 7.63 0 0 0-1.95 1.87 12.41 12.41 0 0 0-1.44 2.51 11.52 11.52 0 0 0-.78 2.67 7.48 7.48 0 0 0 0 2.64 5.42 5.42 0 0 0 1.07 2.33 5.79 5.79 0 0 0 2.36 1.71 4.59 4.59 0 0 0 3.82.12 6.43 6.43 0 0 0 2.88-2.76L397 49.4a11.5 11.5 0 0 1-2.4 3.13 9.16 9.16 0 0 1-3.06 1.85 8.87 8.87 0 0 1-3.51.49 11.12 11.12 0 0 1-3.77-.92 11.58 11.58 0 0 1-3.93-2.66 10 10 0 0 1-2.24-3.65 11 11 0 0 1-.55-4.27 13.63 13.63 0 0 1 1.11-4.53 14.12 14.12 0 0 1 2.54-4 11.29 11.29 0 0 1 3.49-2.62 10 10 0 0 1 4.21-1 12.1 12.1 0 0 1 7.68 2.87 9.57 9.57 0 0 1 2.12 2.61 8.48 8.48 0 0 1 1 3.19 9.11 9.11 0 0 1-.38 3.62l-4.42-1.89A4.06 4.06 0 0 0 395 40zm15.64.67L400.85 61l-4.47-2.15 9.79-20.33zm13.6 7.03a9.41 9.41 0 0 1 2.88 2.25 6.74 6.74 0 0 1 1.36 2.58 6.27 6.27 0 0 1 .1 2.68 8.62 8.62 0 0 1-2.58 4.71 6.23 6.23 0 0 1-2.3 1.4 6.74 6.74 0 0 1-2.9.29 9.39 9.39 0 0 1-3.47-1.16L412.79 58 409 65.11l-4.37-2.35 10.68-19.88zM418 56.41a10.39 10.39 0 0 0 1.51.67 3.82 3.82 0 0 0 1.46.23 2.67 2.67 0 0 0 1.33-.45 4.34 4.34 0 0 0 1.7-3.07 2.69 2.69 0 0 0-.36-1.36 3.84 3.84 0 0 0-1-1.09 10.45 10.45 0 0 0-1.39-.89l-3.4-1.83-3.2 6zm31.06 6.07L446.85 66l-10.11-6.31-2.56 4.1 9.28 5.79-2 3.27-9.28-5.79-2.93 4.69 10.32 6.44-2.21 3.54-14.53-9.07 12-19.15zM36.92 94.86c-1.63 1.92-3 1.26-5.16-.61L18.59 83a2.61 2.61 0 0 1-1-2c-.08-1-4.12-3.5-4.12-3.5l-1.37-5.18L15.05 74s3.47 3.88 4.37 4.21c1.43.53 1.3-.42 2.95 1l13.72 11.63c1.1.93 2 2.65.83 4.02z" fill="#004d2c"/><ellipse cx="8.85" cy="71.49" rx="6.84" ry="10.05" transform="rotate(-49.6 8.854 71.494)" fill="#004d2c"/><path d="M443.69 94.86c1.63 1.92 3 1.26 5.16-.61L462 83a2.61 2.61 0 0 0 1-2c.08-1 4.12-3.5 4.12-3.5l1.34-5.23-2.9 1.73s-3.47 3.88-4.37 4.21c-1.43.53-1.3-.42-2.95 1l-13.72 11.63c-1.1.93-2 2.65-.83 4.02z" fill="#004d2c"/><ellipse cx="471.77" cy="71.49" rx="10.05" ry="6.84" transform="rotate(-40.4 471.734 71.5)" fill="#004d2c"/></svg>