<svg xmlns="http://www.w3.org/2000/svg" viewBox="0 0 90.73 54.99" width="90.73" height="54.99"><title>hero-productname1</title><path d="M8.31 10c0 .35 0 .71.68.71h.77c.73 0 .94-.42 1-1.65a3.35 3.35 0 0 0 1.51.74c-.25 1.38-.52 2.34-1.7 2.34h-2c-1.5 0-1.91-.64-1.91-1.73V7.5H4l1.27.33c.22.05.31.09.31.22s-.21.21-.35.23a5.2 5.2 0 0 1-4.3 4.13A3.08 3.08 0 0 0 0 11a3.86 3.86 0 0 0 3.65-3.5H.25V6.08h11.92V7.5H8.31zm3.61-8.5v2.86h-1.59V2.89H2.09v1.47H.47V1.5h4.9V.31l1.7.06c.12 0 .23 0 .23.14S7.18.7 7 .78v.72zM2.54 3.78h7.37v1.4H2.54zM23.33 9a4 4 0 0 1-.68-1.9 7.7 7.7 0 0 0-.79.84 9.29 9.29 0 0 0-.69-.9 8.16 8.16 0 0 1-2 2.42A4.34 4.34 0 0 0 18 8.63a6.6 6.6 0 0 0 1.16-.91c-.46.06-1.65.16-2.18.21v.62c0 .78-.13 1.1-1.22 1.2l.31.2c.12.08.2.13.2.23s-.14.12-.36.12a9.86 9.86 0 0 1-1.53 2.14 6.08 6.08 0 0 0-1.38-.95 8.12 8.12 0 0 0 1.73-2.21 7.34 7.34 0 0 0-.31-.7 4.48 4.48 0 0 0 .73.07c.33 0 .36 0 .36-.35V8l-1.85.1c0 .08-.09.27-.22.27s-.13-.08-.17-.26L13.09 7h2.45v-.63l.9.13c.13-.1.19-.16.35-.3h-3.41v-1h5.32l.4.44a20.34 20.34 0 0 1-1.63 1.26c.42 0 1.07-.09 1.92-.21a3.19 3.19 0 0 0-.16.91 4.91 4.91 0 0 0 1-1.53 10.6 10.6 0 0 0-1.14-1l.77-.95c.48.36.53.42.75.58a13 13 0 0 0 .17-1.34h-1.56V2.07h-5.96v-.99h2.3V.33l1.72.07c.12 0 .22 0 .22.13s-.07.14-.3.29v.26h2.34v1h1.27c0-.61 0-1.1-.07-1.75l1.48.07c.1 0 .25 0 .25.16s-.17.22-.32.3v1.2h2.16a23.13 23.13 0 0 0-.39 4c0 .16 0 1.5.25 1.5s.34-1 .35-1a3.91 3.91 0 0 0 .94 1c-.09.42-.47 2.05-1.39 2.05a12.85 12.85 0 0 1 1.27 2 5.19 5.19 0 0 0-1.35.83 15.64 15.64 0 0 0-1.69-2.69zm-4.45-6.46v2.27h-5V2.54zm-3.6.83v.57h2.26v-.57zm2.89 5.94a12.08 12.08 0 0 1 .83 2.52 8.62 8.62 0 0 0-1.44.33 10.27 10.27 0 0 0-.73-2.44zM21 9.23a17.23 17.23 0 0 1 1 2.46 7.53 7.53 0 0 0-1.47.43 14.22 14.22 0 0 0-.9-2.46zm1.08-5.86a11.24 11.24 0 0 1-.35 2.39 12 12 0 0 1 .92 1.12v-.82a23.49 23.49 0 0 1 .18-2.7zM30 5.47a19.71 19.71 0 0 1 2 1.66A19.57 19.57 0 0 0 35 4h-8.26V2.31H36a2.87 2.87 0 0 0 .87-.18L38 3.43a4.85 4.85 0 0 0-.52.48 39.74 39.74 0 0 1-4.29 4.51 8.63 8.63 0 0 1 1.38 1.74l-.97.84c-.23.21-.38.35-.52.49a14.26 14.26 0 0 0-4.28-4.75zM40.94.88a14.29 14.29 0 0 1 3.41 2.24 12.15 12.15 0 0 0-1.08 1.51 13 13 0 0 0-3.42-2.21zM40 10a15.39 15.39 0 0 0 9.78-7 7.68 7.68 0 0 0 1.13 1.52 17.7 17.7 0 0 1-9.43 7.19c0 .13 0 .29-.22.29s-.17-.1-.23-.22zm13.12.6V8.89h7.77V4h-7.77V2.34h9.65v8.89h-1.88v-.63zM60.93.18a10.16 10.16 0 0 1 1.3 1.29 3.49 3.49 0 0 0-.92.72A12 12 0 0 0 60 .81zm2-.18a14.28 14.28 0 0 1 1.37 1.42 3.27 3.27 0 0 0-.88.65A9.9 9.9 0 0 0 62.06.62zm13.64 5.46v1.85H65.35V5.46zM87.8 8.18a4.72 4.72 0 0 0 .91-1.79h1.73a7.39 7.39 0 0 1-1.69 2.83l2 2.09H88.5l-.94-1a6.47 6.47 0 0 1-3.76 1.29c-2.13 0-3.55-1.2-3.55-3s1.5-2.69 2.59-3.2c-.73-.73-1.22-1.22-1.22-2.16 0-1.3 1.14-2.43 3.15-2.43 2.16 0 3.16 1.22 3.16 2.55s-1.35 2.15-2.4 2.52zM83.92 6.4c-.48.2-1.87.75-1.87 2.12 0 1.56 1.59 1.57 2.07 1.57a4.19 4.19 0 0 0 2.5-.85zm2.46-3.25c0-.51-.43-1.18-1.56-1.18s-1.6.65-1.6 1.16.73 1.2 1.31 1.69c1.58-.65 1.84-1.18 1.84-1.67zM15.83 20.47a19.71 19.71 0 0 1 2 1.66 19.57 19.57 0 0 0 3-3.19h-8.26v-1.63h9.28a2.87 2.87 0 0 0 .87-.18l1.08 1.3a4.85 4.85 0 0 0-.52.48A39.74 39.74 0 0 1 19 23.42a8.63 8.63 0 0 1 1.38 1.74l-.94.82c-.23.21-.38.35-.52.49a14.26 14.26 0 0 0-4.28-4.75zM27 15.88a14.29 14.29 0 0 1 3.41 2.24 12.15 12.15 0 0 0-1.08 1.51 13 13 0 0 0-3.42-2.21zM26.1 25a15.39 15.39 0 0 0 9.77-7A7.68 7.68 0 0 0 37 19.49a17.7 17.7 0 0 1-9.43 7.19c0 .13 0 .29-.22.29s-.17-.1-.23-.22zm17.13-5a25 25 0 0 1 2.27 1.43 10.52 10.52 0 0 0 1.12-2.38h-3.39a15 15 0 0 1-2.87 3.07A8.71 8.71 0 0 0 39 21a11.8 11.8 0 0 0 4.29-5.56L45 16c.16.05.23.08.23.16s-.23.17-.31.18c-.21.39-.4.74-.7 1.25h3.09a2.33 2.33 0 0 0 .87-.13l.81.7a5.36 5.36 0 0 0-.27.55 18.59 18.59 0 0 1-1.86 3.85 7.46 7.46 0 0 1 1.3 1.35c-.38.44-.92 1.21-1.09 1.47a11.07 11.07 0 0 0-1.26-1.44 13 13 0 0 1-5 3.3 7.56 7.56 0 0 0-1.2-1.5 11.28 11.28 0 0 0 4.89-2.93 24.45 24.45 0 0 0-2.34-1.55zm3.85-5a12.88 12.88 0 0 1 1.16 1.39 5.24 5.24 0 0 0-1 .68 12.36 12.36 0 0 0-1.13-1.37zm2.08-.06a15.4 15.4 0 0 1 1.2 1.43c-.14.12-.82.58-.95.69-.78-1-.87-1.14-1.18-1.5zm5.73.98c.16 0 .26 0 .26.13s-.16.2-.26.25v6.29h-1.82v-6.75zm6-.23c.19 0 .26.05.26.12s-.17.22-.26.26v4.21c0 4.34-2.54 5.92-5 7a3.21 3.21 0 0 0-1.14-1.42c4.25-1.39 4.34-4.11 4.34-5.54V15.6zm5.11.19a14.29 14.29 0 0 1 3.41 2.24 12.15 12.15 0 0 0-1.08 1.51 13 13 0 0 0-3.42-2.21zM65.1 25a15.39 15.39 0 0 0 9.77-7A7.71 7.71 0 0 0 76 19.49a17.69 17.69 0 0 1-9.42 7.19c0 .13 0 .29-.22.29s-.17-.1-.23-.22z" fill="#231815"/><path fill="none" stroke="#231815" stroke-miterlimit="10" d="M58.09 41.49L45.13 54.28 32.34 41.31"/></svg>