<svg xmlns="http://www.w3.org/2000/svg" viewBox="0 0 359.85 88.49"><title>hero-title</title><path d="M33.14 52a8.86 8.86 0 0 1 2.65-1.66 6.7 6.7 0 0 1 2.9-.46 7.31 7.31 0 0 1 3 .89 10.68 10.68 0 0 1 2.91 2.39A11.93 11.93 0 0 1 46.52 56a7.62 7.62 0 0 1 .74 3 6.82 6.82 0 0 1-.61 3 8.22 8.22 0 0 1-2.12 2.77L39 69.67l-11.38-12.8zm9.09 10.61a4.84 4.84 0 0 0 1-1.25 3.48 3.48 0 0 0 .44-1.56 4.41 4.41 0 0 0-.34-1.83 7 7 0 0 0-1.33-2 10 10 0 0 0-1.74-1.58 4.65 4.65 0 0 0-1.81-.78 3.67 3.67 0 0 0-1.9.16 6.09 6.09 0 0 0-2 1.26l-2 1.79 7.18 8.07zM49 39.38l15.23 10.16-3.17 2.29-3.28-2.34-5.2 3.74 1.14 3.88-3.08 2.21-4.76-17.68zm6.32 8.41l-5.43-3.84 1.86 6.41zm4.47-15.48l12 6.32L66 28.68l3-1.78 8.7 14.8-3.25 1.9-11.95-6.32 5.78 9.91L65.2 49l-8.64-14.8zm15.28-2.85a8.54 8.54 0 0 1 .3-3.3A7.56 7.56 0 0 1 77 23.3a9.39 9.39 0 0 1 6.44-3 7.6 7.6 0 0 1 3.2.63 8.56 8.56 0 0 1 2.71 1.91 10.7 10.7 0 0 1 2 3 10.33 10.33 0 0 1 .95 3.41 8.32 8.32 0 0 1-.3 3.26 7.6 7.6 0 0 1-1.6 2.82 9.53 9.53 0 0 1-6.43 3 7.58 7.58 0 0 1-3.2-.59A8.34 8.34 0 0 1 78 35.86a10.33 10.33 0 0 1-2-2.93 10.68 10.68 0 0 1-.93-3.47zm5.51 3.69a5.69 5.69 0 0 0 1.5 1.33 4.12 4.12 0 0 0 1.86.58 5 5 0 0 0 3.92-1.82 4.1 4.1 0 0 0 .76-1.79 5.68 5.68 0 0 0 0-2 8.74 8.74 0 0 0-.65-2 9.41 9.41 0 0 0-1.15-1.88 5.78 5.78 0 0 0-1.52-1.37 4.07 4.07 0 0 0-1.86-.59 5 5 0 0 0-3.92 1.82 4.07 4.07 0 0 0-.75 1.8 5.74 5.74 0 0 0 .06 2 9.36 9.36 0 0 0 .69 2.09 8.76 8.76 0 0 0 1.05 1.83zm14.08-17.76l10.62 8.39L101.44 13l3.32-1.19 5.8 16.12-3.56 1.23-10.58-8.38 3.89 10.79-3.32 1.19-5.8-16.12zm26.6-8.29l.84 3.05-8.72 2.4 1 3.54 8-2.2.78 2.82-8 2.2 1.11 4 8.91-2.45.84 3.05L113.44 27l-4.54-16.5zm18.42-3.65a10.67 10.67 0 0 1 2.24-.16 4.82 4.82 0 0 1 1.82.41 3.3 3.3 0 0 1 1.32 1.1 4.6 4.6 0 0 1 .73 1.92 3.76 3.76 0 0 1-.22 2.28 4.28 4.28 0 0 1-1.48 1.69 4.12 4.12 0 0 1 2.6 1.18 4.76 4.76 0 0 1 1.23 2.58 4.72 4.72 0 0 1-.12 2.3 4.37 4.37 0 0 1-1.08 1.75 6 6 0 0 1-1.77 1.2 8.77 8.77 0 0 1-2.17.66l-8.19 1.38-2.85-16.9zm.68 6.92a2.7 2.7 0 0 0 1.55-.75A1.81 1.81 0 0 0 142.3 8a2 2 0 0 0-.38-.93 1.6 1.6 0 0 0-.67-.5 2.42 2.42 0 0 0-.87-.16 5.53 5.53 0 0 0-1 .08l-3.45.51.67 4zm1.42 7.13a5.06 5.06 0 0 0 1-.28 2.6 2.6 0 0 0 .82-.5 1.82 1.82 0 0 0 .49-.78 2.36 2.36 0 0 0 0-1.13 2.22 2.22 0 0 0-1-1.73 3.18 3.18 0 0 0-2-.23l-4 .68.78 4.64zm11.03-15.84l2 17-3.74.44-2-17zm4.13 4.56a8.55 8.55 0 0 1 1.48-3 7.58 7.58 0 0 1 2.53-2.08 9.38 9.38 0 0 1 7.05-.4 7.61 7.61 0 0 1 2.75 1.75 8.56 8.56 0 0 1 1.83 2.76 10.7 10.7 0 0 1 .79 3.52 10.37 10.37 0 0 1-.37 3.53 8.35 8.35 0 0 1-1.48 2.92 7.62 7.62 0 0 1-2.52 2 9.53 9.53 0 0 1-7.08.44 7.57 7.57 0 0 1-2.71-1.66 8.33 8.33 0 0 1-1.83-2.71 10.35 10.35 0 0 1-.79-3.45 10.71 10.71 0 0 1 .35-3.62zm3.79 5.44a5.63 5.63 0 0 0 .92 1.78 4.11 4.11 0 0 0 1.52 1.22 5 5 0 0 0 4.31-.27 4.12 4.12 0 0 0 1.35-1.39 5.67 5.67 0 0 0 .69-1.88 8.73 8.73 0 0 0 .12-2.12 9.37 9.37 0 0 0-.39-2.16 5.78 5.78 0 0 0-.91-1.84 4.08 4.08 0 0 0-1.52-1.23 5 5 0 0 0-4.31.27 4.07 4.07 0 0 0-1.36 1.41 5.77 5.77 0 0 0-.69 1.93 9.36 9.36 0 0 0-.12 2.2 8.68 8.68 0 0 0 .39 2.08zm33.51-6.54a3.79 3.79 0 0 0-.8-1 3.93 3.93 0 0 0-2.43-1 4.4 4.4 0 0 0-2.18.4 4.08 4.08 0 0 0-1.49 1.26 5.75 5.75 0 0 0-.88 1.85 9.38 9.38 0 0 0-.34 2.17 8.75 8.75 0 0 0 .17 2.11 5.65 5.65 0 0 0 .73 1.87 4.12 4.12 0 0 0 1.39 1.37 4.4 4.4 0 0 0 2.14.58 3.49 3.49 0 0 0 2.74-.95 4.89 4.89 0 0 0 1.3-2.73l3.64.15a8.72 8.72 0 0 1-.86 2.87 7 7 0 0 1-1.67 2.14 6.73 6.73 0 0 1-2.36 1.3 8.45 8.45 0 0 1-2.92.36 8.79 8.79 0 0 1-3.51-.83 7.6 7.6 0 0 1-2.57-2 8.33 8.33 0 0 1-1.54-2.89 10.35 10.35 0 0 1-.43-3.51 10.67 10.67 0 0 1 .72-3.54 8.56 8.56 0 0 1 1.77-2.8 7.57 7.57 0 0 1 2.71-1.74 9.19 9.19 0 0 1 6.22 0A7.26 7.26 0 0 1 196 1.8a6.42 6.42 0 0 1 1.56 2 6.92 6.92 0 0 1 .71 2.67l-3.65-.15a3.08 3.08 0 0 0-.38-1.2zm11.68-3.66L205.16 8l6.89.8.76-6.53 3.74.43-2 17-3.74-.43.85-7.34-6.89-.8-.85 7.34-3.71-.47 2-17zm27.41 4.28l-.59 3.11-8.89-1.68-.68 3.61 8.16 1.54-.54 2.88-8.16-1.54-.78 4.13 9.08 1.71-.59 3.11-12.78-2.41 3.18-16.84zm15.17 3.83l-.79 3.07-8-2.07-1 3.83 6.95 1.79-.75 2.81-6.91-1.76-1.77 6.86-3.65-.94 4.28-16.59zm18.4 6.25a5.52 5.52 0 0 1 1.82 1.07 4.78 4.78 0 0 1 1.13 1.51 4.43 4.43 0 0 1 .42 1.76A4.83 4.83 0 0 1 270 22a5.15 5.15 0 0 1-1.51 2.23 4 4 0 0 1-2.53.85 2.91 2.91 0 0 1 .87 1 3.25 3.25 0 0 1 .37 1.14 4.34 4.34 0 0 1 0 1.26 10.43 10.43 0 0 1-.28 1.28l-.29.92q-.17.53-.31 1.09a7.48 7.48 0 0 0-.2 1.09 2.51 2.51 0 0 0 .07 1l-3.53-1.31a6.64 6.64 0 0 1 .32-2q.33-1.08.55-2.1a3.4 3.4 0 0 0-.08-2.13 2.8 2.8 0 0 0-1.69-1.3l-3.53-1.31L255.8 30l-3.53-1.31 6-16.06zm-4 6.8a2.85 2.85 0 0 0 2 .14 2.4 2.4 0 0 0 1.26-1.53 2.29 2.29 0 0 0 0-1.92 2.89 2.89 0 0 0-1.63-1.21l-3.87-1.44-1.68 4.52zm24.1 1.99l-1.34 2.87-8.2-3.83-1.55 3.35 7.52 3.51-1.24 2.65-7.52-3.51-1.78 3.81 8.37 3.91-1.34 2.87-11.79-5.5 7.25-15.53zm10.69 11.22a3.77 3.77 0 0 0-.25-1.24 3.87 3.87 0 0 0-.67-1.12 3.91 3.91 0 0 0-1-.86 4.4 4.4 0 0 0-2.12-.65 4.08 4.08 0 0 0-1.91.42 5.8 5.8 0 0 0-1.64 1.23 9.37 9.37 0 0 0-1.31 1.77 8.71 8.71 0 0 0-.83 1.95 5.63 5.63 0 0 0-.22 2 4.11 4.11 0 0 0 .59 1.85 4.41 4.41 0 0 0 1.63 1.5 3.49 3.49 0 0 0 2.87.43 4.88 4.88 0 0 0 2.42-1.82l3.16 1.82a8.7 8.7 0 0 1-2.09 2.14 7 7 0 0 1-2.48 1.12 6.73 6.73 0 0 1-2.69.05 8.44 8.44 0 0 1-2.76-1 8.79 8.79 0 0 1-2.76-2.42 7.59 7.59 0 0 1-1.36-3 8.34 8.34 0 0 1 0-3.27 10.37 10.37 0 0 1 1.25-3.31 10.74 10.74 0 0 1 2.28-2.8 8.57 8.57 0 0 1 2.84-1.62 7.57 7.57 0 0 1 3.26-.34 9.19 9.19 0 0 1 5.53 2.85 7.24 7.24 0 0 1 1.36 2.16 6.41 6.41 0 0 1 .46 2.49 6.89 6.89 0 0 1-.61 2.69l-3.16-1.82a3.06 3.06 0 0 0 .21-1.2zm11.9 2.24L300 52.3l-3.13-2.1 9.59-14.2zm9.58 7.05a7.14 7.14 0 0 1 1.88 2 5.12 5.12 0 0 1 .7 2.1 4.78 4.78 0 0 1-.26 2A6.54 6.54 0 0 1 319 54.5a4.72 4.72 0 0 1-1.89.76 5.12 5.12 0 0 1-2.21-.14 7.15 7.15 0 0 1-2.45-1.3l-3.13-2.42-3.76 4.86-3-2.3 10.48-13.56zm-5.75 5.75a8 8 0 0 0 1 .69 2.93 2.93 0 0 0 1.06.35 2 2 0 0 0 1.06-.17 3.29 3.29 0 0 0 1.61-2.09 2 2 0 0 0-.1-1.06 2.91 2.91 0 0 0-.61-.94 7.88 7.88 0 0 0-.93-.84L314.25 45l-3.14 4.06zm22.49 9.05l-2.17 2.3-6.59-6.22-2.52 2.67 6 5.7-2 2.13-6-5.7-2.88 3.06 6.72 6.34-2.17 2.31-9.46-8.92 11.76-12.47zM30.36 84.26c-1 1.6-2.11 1.23-3.95 0l-11-7.19a2 2 0 0 1-1-1.4c-.16-.76-3.43-2.25-3.43-2.25l-1.46-3.78 2.38 1s3 2.59 3.69 2.76c1.13.26.94-.44 2.31.46l11.44 7.49c.93.56 1.77 1.77 1.02 2.91z" fill="#00584a"/><ellipse cx="6.99" cy="69.33" rx="5.19" ry="7.63" transform="rotate(-56.79 6.987 69.323)" fill="#00584a"/><path d="M329.62 87.43c1.06 1.59 2.12 1.21 3.95 0l10.93-7.28a2 2 0 0 0 1-1.41c.15-.76 3.42-2.28 3.42-2.28l1.48-3.83-2.37 1s-3 2.61-3.67 2.79c-1.13.27-.94-.43-2.31.48l-11.38 7.59c-.97.59-1.8 1.81-1.05 2.94z" fill="#00584a"/><ellipse cx="352.87" cy="72.31" rx="7.63" ry="5.19" transform="rotate(-33.68 352.849 72.304)" fill="#00584a"/></svg>