<svg id="レイヤー_1" xmlns="http://www.w3.org/2000/svg" width="448.5" height="77.7" viewBox="0 0 448.5 77.7"><style>.st0{fill:#231815}</style><title>hero-copy@sp</title><path class="st0" d="M95 5.7c.2.1.3.2.3.5 0 .5-.7.4-1 .4-.8 1.2-1.7 2.3-5.5 6.9.4-.1 2.5-.2 3-.3-.2-.7-.4-1.2-.6-1.7l2.6-.9c-.4-.2-.5-.2-.9-.3 4.6-4.1 6.5-8.5 6.9-9.6l3.5 1c.2.1.4.2.4.4 0 .5-.7.5-1 .5-.2.3-.4.7-.6 1.1h6.5l1.5 1.5c-1.9 2.7-2.1 3-2.9 4.1h3.8v12h-3.4v-1h-8v4.3c0 1.3.4 1.5 1.7 1.5h5.5c1.3 0 2.2-.3 2.5-3.2 1 .8 1.8 1.2 3.2 1.4-.8 5-3.2 5-5.4 5h-6.8c-1.7 0-4-.1-4-3.4V12l-.1.1c-.4-.3-1.1-.9-2.3-1.5.5 1.4 1.3 3.6 1.7 5.9-.4.1-2.4.7-3 1 0-.5 0-.5-.2-1.5l-1.2.1v13.6h-3.5V16.5c-1.1.1-3 .3-3.3.3-.3.5-.3.6-.6.6-.4 0-.4-.4-.5-.6l-.4-3h1.9c.7-.8 1.3-1.6 2-2.5-.4-.4-3-2.8-4.4-3.7l2-2.6c.4.2.6.3 1.1.8.4-.6 1.7-2.4 2.9-5.2l3 1.7c.3.1.3.2.3.4.2.4-.3.3-.7.3-.5.7-2.6 4-3.1 4.6.2.2.3.3 1 .9C90.5 6.3 91.3 5 92 3.8l3 1.9zm-7.8 12.9c.2 0 .5.2.5.5 0 .4-.4.5-.7.5-.1 2-.5 4.8-1 7-1.1-.5-2.5-.8-3.2-.9 1.3-4.8 1.3-6.7 1.3-7.8l3.1.7zm7.5-1c.2 2.5.4 3.7 1.1 5.9-1.3.3-2.1.5-3.1 1-.5-2.4-.7-3.8-.9-6.6l2.9-.3zm8.6-8.2c1-1.3 1-1.5 1.8-2.8h-4.7c-1 1.6-1.6 2.3-2 2.8h4.9zm-1.2 7.7v-4.5h-2.4v4.5h2.4zm3-4.5v4.5h2.5v-4.5h-2.5zm13.4-2.3c2 1.8 3.3 3.4 4.6 5.1 1.1-2.8 1.7-4.7 2-6.6h-10.2V5.4h6.2V.5l4.2.2c.3 0 .6.1.6.4s-.4.4-.6.5v3.7h5.8v3.4h-2.3c-.6 3.7-2 7.3-3.2 9.9.9 1.3 2.5 4 4 7.1-1.7.8-2.6 1.3-3.8 2-.9-2.4-1.2-3-2.3-5.4-2.7 4-4.8 5.9-6.4 7.3-1.1-1.2-1.8-1.7-3.3-2.2 2.5-1.9 5-4.3 7.4-8.5-1.9-2.8-3.9-5-5.7-6.7l3-1.9zm13.5 4c1 1.4 2.4 3.6 3.4 6.1-.6.3-1.2.5-3.6 1.9-.5-1.7-2-4.5-3.1-6.2l3.3-1.8zm12.6-5.4v3.6h-3.2v13c0 4.3-2.8 4.3-6.8 4.3 0-2.2-1.4-3.9-1.8-4.4 1.2.2 3 .4 3.2.4 1.2 0 1.3-.5 1.3-2V12.4h-7V8.9h7V.7l4 .3c.4 0 .6.1.6.4 0 .2-.1.3-.6.5v7h3.3zm10-5.9c.5.2.7.3.7.5 0 .3-.3.4-.8.4-.5 1.7-2.1 6.3-2.1 13.2 0 1.8.1 2.5.3 3.5.1-.3 1.1-2.4 1.6-3.3.6.9 1.2 1.6 2.2 2.3-.4.8-2.3 4.9-2.2 8l-3.8 1.1c-1-2.8-2.1-6.3-2.1-12.3 0-5.9 1-10.2 2-14.9l4.2 1.5zm8.4 14.8c-.6 1.4-.8 2.3-.8 2.7 0 1.6 1.5 1.9 4.9 1.9 2.3 0 5.1-.1 8-.9-.4 2-.4 3.8-.4 4.4-1.9.3-5.4.4-7.4.4-6.4 0-9-1.4-9-4.6 0-.7.1-2.4 1.1-4.7l3.6.8zm-3.5-13c.9.1 2 .2 3.8.2 3 0 6.3-.2 9.6-1 .2 2.9.3 3.6.4 4.1-3.3.7-6.6.9-10 .9-1.7 0-2.9-.1-3.8-.1V4.8zm19.7 21.8c1.4-.2 3.2-.5 5-.9V9.9c-1.2.6-2.4 1.1-3.7 1.6-.8-1.3-1.2-1.9-2.4-2.9 3-1.1 9-3.2 13.1-8.4l3.7.6c.4.1.6.3.6.4 0 .2-.2.3-.4.5 1.6 1.7 6.9 5 12.9 6.5-1.6 1.7-1.9 2.2-2.4 3.1-2.3-.8-3.2-1.2-3.8-1.5v9.8c.7-.6 1.2-1.1 1.7-1.7l2.7 2.4c.1.1.3.3.3.5 0 .3-.2.4-.4.4h-.5c-1.9 1.7-4.3 3.3-4.7 3.6 2.4 1 4.4 1.5 7 1.9-.9.8-1.9 2-2.3 3.2-2.6-.5-5.3-1.7-6.2-2.2-2.8-1.3-4.1-2.3-5.5-3.6-.3 1.2-.4 1.8-.5 2.8-5.8 1.5-10.5 2.5-12.2 2.8-.2.4-.4.7-.6.7-.3 0-.4-.3-.5-.7l-.9-3.1zm21.4-17.4c-3.7-1.7-5.8-3.4-7.9-5.3-3 3-6.6 5-7.3 5.3h5.6V6l4 .2c.3 0 .5.2.5.4 0 .3-.3.5-.8.8v1.7h5.9zm-12.5 4.3h9.9v-1.4h-9.9v1.4zm9.8 2.5H188v1.5h9.9V16zm-9.8 9c2.2-.4 3.3-.7 5.5-1.2-1.4-1.3-2.3-2.2-3.1-3.6h-2.4V25zm6.5-4.7c.9 1 1.6 1.7 2.8 2.6 1.4-.9 3.1-2.2 3.6-2.6h-6.4zm14.7-2.8c.8-.6 3.5-2.5 7.1-7.3 2.7-3.7 3.4-4.7 5.3-4.7 2.1 0 2.8.9 6.9 5.9 2.2 2.6 6.7 7.7 11.5 10.9-1.4 1.4-2.7 3.6-3.1 4.1-4-3.4-7.7-7.3-11-11.4-1.2-1.5-3.2-3.9-3.7-4.3-.2-.2-.4-.3-.7-.3-.4 0-.7.1-1.7 1.5-4 5.6-4.5 6.4-7 9l-3.6-3.4zm24-12.7c.9.8 2.4 2.3 3.3 3.2-.5.4-1.6 1.3-2.1 1.8-.7-.8-2.2-2.4-3.2-3.3l2-1.7zm2.9-2.5c.3.3 2.1 1.7 3.4 3.2-.8.5-1.5 1.1-2.1 1.8-1-1.2-2.1-2.3-3.3-3.3l2-1.7zm20.5-.5c.4.1.6.2.6.4 0 .1 0 .4-.6.5-.2.6-.8 3.1-.9 3.6 3.1-.5 4.5-1.1 5.9-1.6l.5 4.2c-1.7.5-3.4 1-7.5 1.6-3.1 10.4-7.2 17-8.5 18.9-1.3-.8-1.8-1-4.1-2.1 1.7-2.1 5.8-8.2 8.1-16.2-1.9.2-3.3.2-6.3.3l-.3-4.4c.8.1 1.8.1 3.1.1.6 0 2.4 0 4.5-.2.5-2.9.7-4.6.8-6.2l4.7 1.1zm2.6 19.1c-.6.7-1.1 1.5-1.1 2.4 0 1.7 3.9 1.7 5.3 1.7 2.4 0 4.6-.4 6.9-1-.1.5-.2 1.2-.2 2.2 0 1 .1 1.7.2 2.2-2.9.5-5.2.6-6.6.6-3 0-9.5-.3-9.5-5 0-1.3.4-2.4 1.4-4.3l3.6 1.2zm-1.4-8.6c3.1-.6 6.3-.6 7.1-.6 2.7 0 4 .2 4.7.3-.2 1.3-.3 2.3-.3 4.2-1-.2-2.3-.5-4.7-.5-2.5 0-5.8.4-6.9.5v-3.9zm38.8-9.4c.2.1.4.3.4.5 0 .1-.1.3-.4.3-.1 0-.3 0-.6-.1-1.3 1.2-6.9 5.9-11.5 9.6-1.4 1.1-1.4 1.3-1.4 1.5 0 .4.3.6 1.2 1.1.5.3 9 5.6 13.2 10.9-1.4 1.3-1.9 1.9-3.2 3.6-2.7-4-10.5-10-13.8-12.2-2.9-1.9-3.2-2.1-3.2-3.3 0-.7.1-1.1 2.7-3.2 4-3.1 8.6-7 12.7-11.9l3.9 3.2zM307.4 6c.9.1 1.8.3 3.4.3.8 0 1.7 0 3.5-.2.7-2.6 1-4.2 1.2-5.5l4.3 1.3c.4.1.6.3.6.5 0 .3-.4.4-.6.4-.2.3-.8 2.2-.8 2.6 2-.4 3-.8 4-1.1-.1 1.1 0 2.9.1 4.1-.8.2-2.5.7-5.3 1.1-.9 2.5-3.9 10.7-7.2 15.3-.9-.4-2.2-1.1-4-1.7 4.1-5.6 6-11.3 6.6-13.1-1.1.1-3.6.1-5.2.2l-.6-4.2zm20.3 8.3c-1 1.2-1.3 2-1.3 3.2 0 1.3.2 2.7.4 3.4 1.9.9 5 2.5 6.9 4.1-1 1.1-2.3 2.9-2.5 3.2-2.7-2.1-3.2-2.5-4.3-3-.5 4.1-4.6 4.2-6.2 4.2-4.5 0-7.1-2-7.1-5 0-2 1.4-4.8 6.1-4.8 1.1 0 2.1.2 2.7.3-.2-1.5-.2-2.3-.2-2.8 0-2.4 1.6-4.2 2.2-4.7l3.3 1.9zm-7.8 8.4c-1 0-2.4.5-2.4 1.6 0 1.4 2 1.6 2.8 1.6 2.4 0 2.6-1.3 2.7-2.5-1.5-.7-2.9-.7-3.1-.7zM326 6.3c4.9 1.6 6.7 2.9 8.3 4.1-.6.9-1.6 2.2-2.4 3.5-2.3-2-5.5-3.3-8.1-4.1l2.2-3.5zm34-2.1c-1.9 1.5-7.2 6.4-8.4 7.7.8-.3 2.2-.7 4.2-.7 4.7 0 9 2.8 9 8.2 0 6.9-6.7 9.9-11.9 9.9-4.9 0-7.7-2.3-7.7-5.3 0-2.7 2.5-4.8 5.8-4.8 2.4 0 6 1.3 6.8 5 2.8-1.3 2.8-3.8 2.8-4.4 0-1.8-1.1-5.1-5.7-5.1-5.6 0-8.8 3.3-13.3 8l-3.2-3.2c3.4-2.4 12.1-10.9 13.9-13.3-2.8.6-7.6 1-9.6 1.2l-.7-4.3c2.4.1 11.2-.1 16-1.9l2 3zm-9.3 18.5c-1.2 0-1.7.7-1.7 1.4 0 1.3 1.7 2 3.3 2 .8 0 1.5-.2 1.9-.3-.4-1.9-1.7-3.1-3.5-3.1zM7.7 63.4c-.5.4-3.3 2.9-3.3 4.5 0 .9.6 1.3.8 1.4 1.6.8 5 .9 6.8.9 6.7 0 10.5-1.1 12.1-1.6.1 1 .4 2.8.9 4.5-4.4 1.1-10.9 1.3-13.1 1.3C4.8 74.3 0 73 0 68.3c0-1.4.5-3.7 4.8-7.3l2.9 2.4zm15.2-11.5c-3.3 1.3-7.3 3.9-10.2 6.6-.4-.4-2.1-2.4-2.4-2.8.3-.2 2.7-2 3.4-2.7-1.7.1-4 .3-6.9.3-2.4 0-3.3-.1-4.1-.2l-.3-4.5c2.9.6 8.4.6 9.1.6 3.1 0 6.2-.1 9.3-.7l2.1 3.4zm21-4.2c.4.1.6.2.6.4 0 .4-.4.4-.6.5-.2.6-.8 3.1-.9 3.6 3.1-.5 4.5-1.1 5.9-1.6l.5 4.2c-1.7.5-3.4 1-7.5 1.6-3.1 10.4-7.2 17-8.5 18.9-1.3-.8-1.8-1-4.1-2.1C31 71.1 35.1 65 37.4 57c-1.9.2-3.3.2-6.3.3l-.4-4.5c.8.1 1.8.1 3.1.1.6 0 2.4 0 4.5-.2.5-2.9.7-4.6.8-6.2l4.8 1.2zm2.6 19.1c-.6.7-1.1 1.5-1.1 2.4 0 1.7 3.9 1.7 5.3 1.7 2.4 0 4.6-.4 6.9-1.1-.1.5-.2 1.2-.2 2.2 0 1 .1 1.7.2 2.2-2.9.5-5.2.6-6.6.6-3 0-9.5-.3-9.5-5 0-1.3.4-2.4 1.4-4.3l3.6 1.3zm-1.4-8.6c3.1-.6 6.3-.6 7.1-.6 2.7 0 4 .2 4.7.3-.2 1.3-.3 2.3-.3 4.2-1-.2-2.3-.5-4.7-.5-2.5 0-5.8.4-6.9.5v-3.9zm7.7-8.8c1.1 1 2.2 2.2 3.1 3.4-1 .5-1.3.8-2.1 1.5-.9-1.2-1.9-2.4-2.9-3.4l1.9-1.5zm3.2-2.1c1 .8 2.4 2.5 3 3.3-1 .7-1.1.8-1.9 1.5-.2-.2-1.6-2.2-3-3.4l1.9-1.4zm19.1 6.2c-.1.1-1.1 1.3-1.7 2.4 3-1.9 5.4-2.3 7.1-2.3 3.5 0 8.9 1.9 8.9 9 0 9.6-9.8 11.1-12.2 11.4-.7-1.8-1.3-2.8-2.2-3.9 4.3-.3 10.2-1.7 10.2-7.3 0-3.6-2.4-5.4-5.2-5.4-3.6 0-6.9 2.5-8.3 3.7V75l-4.5.4c.2-2.7.2-3.5.3-9.6-.5.7-2.8 3.9-3.3 4.5l-3.1-3.1c2.7-2.8 5.3-6.3 6.7-8.8V57c-2.1.9-4 1.4-5.2 1.7l-.6-4.4c2.7-.2 5-.8 6-1 0-3 0-3.4-.2-6.5l4.2.2c.5 0 1 .1 1 .4 0 .4-.4.4-.7.5-.1.7-.2 1.4-.3 3.8.3-.1.5-.2 1.1-.5l2 2.3zm27.5-5.5c.5.1.9.2.9.5 0 .4-.4.5-.7.5-1.4 4.1-1.4 7.5-1.4 8.2 0 1.7.2 2.6.4 3.4.6-1.4 1.2-2.6 2.1-4.2 1 1 1.5 1.5 2.8 2.3-1.7 2.5-2.9 5.3-3.3 8.3l-3.8.4c-1.4-3.6-2.2-7.5-2.2-11.4 0-2.6.3-4.7 1-8 .2-.7.2-.9.2-1.2l4 1.2zm14.7-1.1c.5 0 .8.1.8.4 0 .4-.3.4-.5.5 0 1 .3 5.6.4 6.6.1.9.1 2.3.1 3.9 0 4-.2 12.3-9.8 17.6-1.3-1.7-2.2-2.4-3.5-3.2 6.2-2.8 8.7-7.4 8.7-14.6 0-2.4-.3-8.3-1.1-11.4l4.9.2zM139 70.8c7.5-1.4 9.4-7 9.4-10.4 0-3.7-2.4-8-8.1-8.3-1.1 11.9-5.7 20.4-8.9 20.4-2.4 0-6.7-4-6.7-9.7 0-6.8 6.1-14.6 15.2-14.6 6.8 0 12.9 4.6 12.9 12.2 0 4.7-2.1 7.8-3.8 9.6-2.2 2.4-4.8 3.6-7.2 4.5-.9-1.5-1.5-2.3-2.8-3.7zm-10.3-8.3c0 2.7 1.4 4.8 2.4 4.8.9 0 1.8-2.2 2.3-3.4 2.3-5.4 2.3-9.6 2.4-11-4.3 1.3-7.1 6.3-7.1 9.6zm53.5-7.5c.2.1.3.3.3.4 0 .3-.3.4-.7.4-.1 0-.3 0-.6-.1-6.8 4.2-13.9 5.7-16.8 6.1V67c0 3 .5 3.1 5.9 3.1 1 0 7.3 0 12.5-.6-.4 1.6-.5 2.2-.6 4.3-.9.1-1.7.1-6.6.1-11.6 0-12.9 0-14.6-1.8-.7-.8-1.1-1.8-1.1-4.2V47.3l4.6.3c.3 0 .6.1.6.4 0 .3-.3.4-.8.6V58c5.3-.9 11.5-3.6 14.2-5.9l3.7 2.9zm9.7 9.7c7.3 1.3 14.7 3.7 20.1 7-.3.9-1.1 3-1.4 4.2-4.4-2.8-10.8-5.6-19.6-7.1l.9-4.1zm.7-18c5.9.6 11.7 2 17 4.6-.3 1-.7 3.1-.8 4.4-3.8-2.3-10.1-4.1-16.6-5l.4-4zm1.8 9.1c4.8.6 11 2.6 13.9 4.4-.4 1.3-.6 2.4-.8 4.3-3.7-2.3-9-4.2-13.8-4.8l.7-3.9zm26.8-5.8c1.5 2.2 3 5.4 3.7 7.5-.7.3-2.6 1.2-3.9 1.8-1.7-4.5-3.1-6.7-3.7-7.7l3.9-1.6zm23.2.4c.4.1.5.3.5.4 0 .5-.4.5-.6.5-1.8 7.6-4.6 13-9.3 17.2-1 1-4.7 4.2-10.2 6.3-.8-1.4-1.6-2.3-3-3.6 13.1-4.2 17.1-15.2 18-22.3l4.6 1.5zm-15-2.3c1.3 2.2 2.6 5.2 3.3 7.7-1.7.6-1.9.7-3.9 1.6-.6-2.5-2-5.6-3.3-7.8l3.9-1.5zm35-1c.2.1.6.1.6.5 0 .3-.4.5-.8.5-.3.8-.6 1.2-1 2 4.5-.6 6.1-1.2 7.2-1.6v4.1c-3 .5-6.2 1.1-9.3 1.4-.4.7-1.1 1.9-1.7 2.8 1.3-.7 2.7-.7 3-.7.5 0 3.4.1 4.8 2.9 2.3-1 5.4-2.4 6.7-3.1l1.6 4.3c-2.8.9-5.2 1.7-7.5 2.6.1 1.2.1 2.4.1 3.2 0 1.4-.1 2.4-.1 3.1-.2 0-2.8-.1-4.3 0 .2-1.6.2-1.9.2-4.4-3.5 1.9-4.8 3.3-4.8 4.6 0 1.4 1.6 1.9 5.4 1.9 1.1 0 4.9 0 10-1.4-.4 1.7-.5 3.1-.5 4.4-3.9.9-7.9.9-8.8.9-1.8 0-10.1 0-10.1-5.4 0-4.4 6.6-7.9 8.5-8.9-.3-.8-.9-1.7-2.6-1.7-2.5 0-4.8 1.9-7.9 6.8l-3.8-2.2c1.4-1.4 4.6-5.4 7-9.4-1.6.1-2.5.1-5.1.1v-4c.7.1 2.6.3 5.1.3 1.1 0 1.6 0 1.9-.1.2-.4 1.2-2.5 1.8-4.3l4.4.8zm19.8 17.2c.2 0 .6.2.6.4 0 .4-.4.5-.8.6-.4 4.5-.5 5-1.2 7.9-.9-.3-2.3-.7-3.4-.8 1.2-3.5 1.3-5 1.4-8.7l3.4.6zm7.6-13.2c.3.2.6.4.6.6 0 .4-.3.4-1.1.4-1.3 2.6-4.2 6.8-4.5 7.2 1.6-.2 2.2-.3 2.6-.3-.3-1-.4-1.4-.6-1.9l3.1-1c.6 1.7.9 2.7 1.1 3.5 3.2-2.2 4.3-5.8 4.5-8.8h-4.7v-3.2h15.8c0 12.1-.7 14.4-6.8 14.3-.1-1.2-.5-2.3-1.2-3.7.5.1.9.1 1.7.1 1.3 0 1.9-.2 2.2-1.8.4-2.7.4-4.7.4-5.7H301c-.4 5.6-2.5 9.1-5.8 11.6-.3-.4-1.1-1.6-2.1-2.2.3 1 .4 1.8.5 2.5-.4.1-2.1.5-3.3 1-.1-.9-.1-1.3-.3-2-.3 0-.6.1-1.6.2v13.7h-3.5V62.4c-.9.1-2.7.3-3.7.4l-.3.6c-.1.1-.1.3-.3.3-.3 0-.4-.4-.4-.7l-.5-3.3c1.2 0 2.1-.1 3.3-.1.2-.3.5-.7 1.4-1.9-.6-.6-3.1-2.8-4.6-3.8l1.8-2.6c.6.3.8.5 1.2.8 1.2-2.1 2-3.8 2.7-5.7l2.9 1.5c.3.2.4.3.4.5 0 .4-.7.4-1 .4-.8 1.7-2.1 4.2-2.7 5.2.3.2.5.4 1 .9 1.8-3.1 2.4-4.6 2.7-5.5l3 1.7zm.6 13c.1 4 .6 6 .9 7-.6.1-2.9.6-3.2.7-.6-3.1-.7-4.9-.7-7.5l3-.2zm5.2 10.3v1.2H294V62.7h14.4v12.9H305v-1.2h-7.4zm7.4-3.3v-5.2h-7.4v5.2h7.4zm23.5-24.5c.5 0 .8.1.8.4 0 .2-.2.3-.4.5 1.2 1.6 5.3 6.9 13.1 9.8-1.2 1.4-1.9 3.1-2.1 3.5-2.5-1.2-8.5-4-13.6-11-3.7 5.1-8.2 8.7-12.7 11.1-.4-.9-1-1.8-2.8-3.2 2.9-1.3 9.6-4.5 13.1-11.5l4.6.4zm-5.4 11.6c.6 0 .8.2.8.4 0 .3-.3.4-.6.6 0 4-.1 7-1 9.5-.7 2-2.8 5.5-6.5 7.5-.8-1.2-1.5-1.9-3-2.9 4.9-2.1 5.9-5.8 6.1-7 .4-2 .4-5 .3-8.4l3.9.3zm10.5 0c.5 0 .8.1.8.4 0 .2-.2.4-.5.5v16.6H330V57.9l3.6.3zm20.8-10.4c.5.1.7.1.7.4 0 .3-.4.5-.7.5-.9 4.9-.9 12.6-.9 14.3 0 5.5.5 7.6 3.5 7.6 5.4 0 10.2-6.5 11.5-9.3 1.7 2.2 2.5 3 3.2 3.6-5.2 8.3-11.4 10.2-15.1 10.2-7.2 0-7.4-6.9-7.4-13.2 0-2 .4-10.8.4-12.7 0-1.3 0-1.5-.1-2.2l4.9.8zm38.3-.4c.3.1.6.1.6.4 0 .4-.3.5-.6.5-.1.7-.1 1.3-.2 2.2.8 0 2.2-.1 4.4-.1 1.8 0 2.9 0 4.8.2v4c-1.5-.1-4.1-.3-9.3-.2v4.1c.8-.1 4.6-.3 8.4-1.5v4.1c-2.6.6-5.6.8-8.3 1 0 .5.1 2.9.1 3.4 4.5.8 9.1 3.2 10.6 4.3-1.1 1.2-1.9 2.1-3 3.4-1.6-1.4-4.3-3.2-7.4-4.2.1 2 .2 5.7-6.5 5.7-5.5 0-7.9-2.7-7.9-5 0-4 5.6-4.9 8.1-4.9.4 0 1.4.1 1.8.1v-2.5c-3.7.1-9.1.2-9.1-2.8 0-1.1.6-2 2.3-3.7l3.1.8c-.4.4-.9 1-.9 1.2 0 .8 1.2.9 2.8.9h1.8v-4.2c-4.5.2-7.7.6-10.3.9v-4.3c1.6-.2 8.8-.4 10.3-.5-.1-2.9-.1-3.2-.2-4.1l4.6.8zm-6.1 20.8c-1 0-3.8.2-3.8 1.7 0 1.3 2.4 1.4 2.9 1.4 1.9 0 2.9-.8 2.7-3-.4 0-.9-.1-1.8-.1zm38.3-21.1c.5.1.7.1.7.4 0 .3-.2.4-.5.5-.1.6-.1 1.1-.2 2.5 9.3-.4 10.4-.4 10.8-.5-.1.5-.1.6-.1 1.6 0 .8 0 2 .1 2.8-6-.3-9.3-.2-10.7-.1 0 .5-.1 2.6 0 4.1 1.6 2.2 1.6 5.4 1.6 5.8 0 3.4-1.7 9-7.6 12.2-1-.9-1.8-1.6-3.8-2.8 5-2 6-4.5 6.4-5.4-.9.8-1.9 1.1-3.1 1.1-3.9 0-4.6-3.9-4.6-6 0-3.9 2.2-6.5 5.6-6.5.7 0 1 .1 1.3.2v-2.5c-7.2.4-10.8 1.1-13 1.5l-.3-4.5c1 0 2.3-.1 13.2-.7-.2-2.5-.3-3.4-.4-4.2l4.6.5zm-7.4 16c0 2.6 1.4 3 2 3 1.3 0 2.1-1.5 2.1-3.4 0-.7-.2-2.5-2-2.5-1.1 0-2.1.9-2.1 2.9zm31 7.6c0 2.4-2 4.3-4.3 4.3-2.4 0-4.3-1.9-4.3-4.3s1.9-4.4 4.3-4.4 4.3 2 4.3 4.4zm-6.9 0c0 1.4 1.1 2.5 2.5 2.5s2.5-1.1 2.5-2.5-1.1-2.5-2.5-2.5c-1.3 0-2.5 1.1-2.5 2.5z"/></svg>