<svg xmlns="http://www.w3.org/2000/svg" viewBox="0 0 221.54 15.32" width="221.54" height="15.32"><title>アセット 1</title><path d="M4.95 6.31a27.55 27.55 0 0 1 3.14 2A14.28 14.28 0 0 0 9.72 4.8H5.06a19.27 19.27 0 0 1-3.75 4A6.58 6.58 0 0 0 0 7.62a14.29 14.29 0 0 0 5.36-7l1.7.53c.18 0 .27.1.27.21S7 1.54 7 1.54c-.3.58-.64 1.22-1 1.78h4.19a2.88 2.88 0 0 0 1.06-.16l.8.7a7 7 0 0 0-.32.67c-1.26 3.07-1.49 3.62-2.35 4.85a11 11 0 0 1 1.86 1.9 11.79 11.79 0 0 0-1.09 1.41 13.74 13.74 0 0 0-1.78-2A17.13 17.13 0 0 1 1.89 15a8.41 8.41 0 0 0-1.12-1.47 14.11 14.11 0 0 0 6.35-3.91 26.61 26.61 0 0 0-3.2-2.16zM10.18.06a13.94 13.94 0 0 1 1.47 1.68 4.94 4.94 0 0 0-1 .71A13.75 13.75 0 0 0 9.22.75zM12.45 0A14.28 14.28 0 0 1 14 1.73a9.49 9.49 0 0 0-1 .7A15.2 15.2 0 0 0 11.51.62zm14.72 1.74c.18 0 .27.11.27.22s-.3.26-.43.29c-1 3.83-2.69 8.76-9.32 12A6 6 0 0 0 16.38 13c3.62-1.62 7.85-4.56 8.87-11.83zm6.64-.51a19.51 19.51 0 0 1 4.45 2.93 11.67 11.67 0 0 0-1 1.44 16.79 16.79 0 0 0-4.46-2.93zm-.88 11.48A18.87 18.87 0 0 0 45.08 4a9.52 9.52 0 0 0 1.07 1.47c-3.12 4.91-7.49 7.31-11.72 8.82 0 .18-.06.35-.22.35a.32.32 0 0 1-.26-.19zM54.5 6.16v7.48h-1.44v-.58h-1.7v1.79h-1.44V9.67a7.88 7.88 0 0 1-1.07 1.44A4.66 4.66 0 0 0 47.47 10a13.22 13.22 0 0 0 3.31-7.54h-2.41V1h6.51v1.45h-2.5a17.35 17.35 0 0 1-.83 3.71zm-3.14 1.5v4h1.7v-4zm10-1.46h1.39v1.48h-1.4v7.48h-1.59V7.68H58c-.08 2.1-.21 5.17-2.91 7.64a3.58 3.58 0 0 0-1.41-.94c1.17-1 2.72-2.45 2.8-6.69h-1.34V6.21h1.38V2.46h-1V1h6.82v1.46h-1zm-1.6-3.74h-1.68v3.75h1.68zm19.03-.75v3.24h-1.25C77.12 6.5 76.56 7 75.4 7h-1.83c-.72 0-1.06-.18-1.26-.5 0 .24-.26.32-.46.35 0 .42 0 .74-.06 1.3l4-.08c0 .13-.42 4.23-.42 4.75s.18.54.94.54 1.07-.06 1.34-2a3.33 3.33 0 0 0 1.57.78C78.63 14.9 78.1 15 76.05 15c-1.39 0-2.35 0-2.35-1.63 0-.43.27-3.28.3-3.63h-2.47c-.26 1.17-1.09 4.43-6.34 5.55a4.28 4.28 0 0 0-1-1.52c1.06-.11 4.63-.64 5.54-4l-4.61.08-.08-1.55 5-.08a11.94 11.94 0 0 0 .08-2l1.55.08c.35 0 .42 0 .56.13a1.71 1.71 0 0 1-.18-.85V3.17h-2.32l1.17.46c.16.06.27.11.27.27s-.32.19-.46.19a8.8 8.8 0 0 1-4.4 3.62 4.21 4.21 0 0 0-.94-1.34 6.45 6.45 0 0 0 4.13-3.2h-3.13V5H64.7V1.71h6.16V.43h1.78c.21 0 .37 0 .37.19s-.22.27-.4.32v.75zm-5 1.46v1.74c0 .51.14.66.56.66h.8c.59 0 .78-.32.91-1.34a3.45 3.45 0 0 0 1.1.56V3.17zM87.51.93V6H83v9.09h-1.59V.93zM86 3v-.87h-3V3zm-3 1v.86h3V4zm7.56 5.7h2V11h-2v3.65h-1.5V11h-1.67a5.78 5.78 0 0 1-2.51 4 2.7 2.7 0 0 0-1.28-1 4.47 4.47 0 0 0 2.26-3H84V9.7h2V8.34h-1.62V7.06h7.7v1.28h-1.52zm-1.5-1.36h-1.52V9.7h1.52zM95 .93v12.13c0 1.9-.93 2.1-2.82 2.1a4.47 4.47 0 0 0-.69-1.71 5.22 5.22 0 0 0 1.07.11c.45 0 .8-.1.8-.71V6.07h-4.51V.93zM93.36 3v-.86h-3V3zm-3 1v.86h3V4zm18.01 2.95h-1.31v2h3.39v1.5h-3.39v2.16c0 .64.06.79 1 .79h1c.72 0 1.18 0 1.47-1.91a6.69 6.69 0 0 0 1.47.83c-.64 2.19-.94 2.58-2.79 2.58h-1.84c-1.94 0-1.94-1.09-1.94-1.81V10.4h-2a6.47 6.47 0 0 1-4.85 4.8 7.14 7.14 0 0 0-1-1.38 5.25 5.25 0 0 0 4.24-3.42h-3V8.9h3.28V6.95H101v-.76a12.93 12.93 0 0 1-3 2A4.76 4.76 0 0 0 96.9 7a10 10 0 0 0 2.77-1.63A18.81 18.81 0 0 0 98 3.91l1.06-1a15.16 15.16 0 0 1 1.78 1.42A5.63 5.63 0 0 0 102 2.74h-3.78V1.36h5.62l.42.64a11.45 11.45 0 0 1-2.4 3.41h5.83a16.22 16.22 0 0 1-3.07-4.18l1.25-.7a14.08 14.08 0 0 0 1.09 1.68 9.46 9.46 0 0 0 1.32-1.62l1.2.8a.31.31 0 0 1 .16.24c0 .22-.35.19-.54.16a9.88 9.88 0 0 1-1.33 1.47 9.53 9.53 0 0 0 .86.9 12.18 12.18 0 0 0 1.58-1.89l1.22.86c.13.1.18.13.18.22s-.27.18-.48.18A14.74 14.74 0 0 1 109.7 5a14.65 14.65 0 0 0 2.4 1.46 5.82 5.82 0 0 0-1.1 1.42A11.79 11.79 0 0 1 108.37 6zm-4.66 0V8.9h1.74v-2zM118 6.51a12.84 12.84 0 0 0 1-3l1.57.66c.1 0 .19.13.19.22s-.26.19-.4.19a12.19 12.19 0 0 1-.85 1.89h2.06v1.39h-8.07V6.51h2a11.33 11.33 0 0 0-1-2.35l1.38-.59A12.41 12.41 0 0 1 117 6l-1.25.46zm3.3-4.35v1.31H114V2.16h2.8V.43l1.76.08c.11 0 .34.06.34.22s-.1.19-.38.32v1.1zm-.59 13h-1.67v-.85h-3v.86h-1.65V8.75h6.27zm-4.63-5v2.71h3v-2.69zM128.21 2a45.74 45.74 0 0 1-2 4.35 5.91 5.91 0 0 1 2.08 4.18c0 2.27-1.31 3-3.39 3.09a3.05 3.05 0 0 0-1-1.81 11 11 0 0 0 1.2.08c1.18 0 1.58-.51 1.58-1.34 0-1.73-1.62-3.35-2.3-3.92a18.48 18.48 0 0 0 1.79-4h-2.29v12.5h-1.6V1.22h5.2zm31.44 7.19v5.94H158v-.77h-6.74v.77h-1.63v-3.85a11.71 11.71 0 0 1-2.34 1.39 4.75 4.75 0 0 0-1.17-1.3 10.79 10.79 0 0 0 5.12-3.76h-4.74V6.13h14.58v1.49h-8a12.79 12.79 0 0 1-1.14 1.57zm-6.7-8.73l1.73.06c.14 0 .38 0 .38.18s-.24.24-.46.32v2.6h3.4V1l1.79.08c.13 0 .38 0 .38.18s-.21.27-.48.32v3.56H147.9V1l1.78.08c.1 0 .3 0 .3.14s-.14.22-.38.32v2.08h3.35zm5 12.36v-2.13h-6.74v2.13zM171 11h2.67v1.54H171v2.59h-1.63v-2.55h-2.56V11h2.56V6.75a20.86 20.86 0 0 1-5.28 6.8 3.9 3.9 0 0 0-1.55-1.2 20.51 20.51 0 0 0 6.21-7.25h-5.87V3.67h6.5V.46l1.57.11c.19 0 .42 0 .42.22s-.14.22-.35.3v2.58h6.55v1.44h-6a20.17 20.17 0 0 0 6.26 7 4.18 4.18 0 0 0-1.3 1.3A18.68 18.68 0 0 1 171 6.67zm9.88-6.61a21.85 21.85 0 0 1 4.07 2.18 7.21 7.21 0 0 0-1 1.42 16.79 16.79 0 0 0-4-2.21zm0 8.79a22.59 22.59 0 0 0 11.65-8.9 6.84 6.84 0 0 0 1.1 1.39 25.33 25.33 0 0 1-11.41 8.9c0 .14-.06.38-.26.38s-.18-.1-.24-.22zM182.56.75a21 21 0 0 1 4.27 2 12.29 12.29 0 0 0-1 1.41A17.19 17.19 0 0 0 181.62 2zm18.55 11.48h4.77v1.42H195v-1.42h4.61V6.15h-3.47V4.71h8.51v1.44h-3.54zM219.2 1.71a3.24 3.24 0 0 0 1.1-.14l1.23 1a3.91 3.91 0 0 0-.46.93c-1.73 4.56-3.11 8.07-9.43 11.16a5.48 5.48 0 0 0-1.28-1.31c4.8-2.06 7.07-4.51 8.93-10.12h-10.46V1.71z" fill="#231815"/></svg>