<svg id="レイヤー_1" xmlns="http://www.w3.org/2000/svg" viewBox="0 0 140 14"><style>.st0{fill:#00937d}</style><title>hero-productname2@sp</title><path class="st0" d="M9.7 12.6v.8H8.3V1.1H20v12.3h-1.4v-.7H9.7zm8.9-1.3v-9H9.7v9h8.9zM14.8 6h2.5v1.1h-.9c.2.3.7.8 1.1 1.4-.2.1-.5.3-.7.5H18v1.2h-7.7V9.1h3V7.2H11V6h2.4V4.5h-2.8V3.3H18v1.1h-3.1V6zm1.4 1.2h-1.4v1.9h1.5c-.1-.2-.5-.8-1-1.3l.9-.6zm17.9-5.5v1.2h-2.6l.4.1c.1 0 .3 0 .3.2 0 .1-.3.2-.4.2-.2.4-.2.5-.6 1.2h3.2v1.2H24.2v2.1c0 1.5-.2 4-1.5 5.9-.5-.4-1.1-.6-1.2-.7 1.3-1.5 1.3-3.8 1.3-5.3V4.5h3.1c-.3-.5-.5-.8-.9-1.3l1-.3h-3.6V1.7h5V.5l1.6.1c.1 0 .3 0 .3.2 0 .1-.2.2-.3.2v.7h5.1zm-5.4 5.5V5.9l1.4.1c.1 0 .3 0 .3.2 0 .1-.1.2-.3.2v.8h3.5v1.1h-3.5v1.2h2.6v1.1h-2.6V12h4.4v1.2H24V12h4.6v-1.3h-2.9V9.5h2.9V8.3h-2.4c-.4.7-.6.9-.8 1.2-.3-.3-.6-.4-1.2-.7.7-.7 1.5-2 1.7-2.9l1.2.4c.1 0 .3.1.3.2 0 .2-.2.2-.4.2 0 .2 0 .3-.1.5h1.8zm-2.2-4.4c.1.1.6.9.8 1.4l-.8.2h2.9c.1-.2.5-1 .8-1.7h-3.7zM40 13.4h-1.4v-5c-.5 1.1-1.1 2.1-1.9 3-.4-.4-.7-.7-1.3-.9C37 8.9 38 6.9 38.3 6h-2.4V4.6h2.6V3c-.1 0-1.7.3-1.9.4 0-.1-.3-.8-.7-1.3 2.5-.2 4.2-.9 5.2-1.5l1 1.1c.1.1.1.1.1.3H42c-.1 0-.3-.1-.4-.1-.8.4-1 .4-1.7.6v2h2.3V6h-2.1c.4.7 1.2 2 2.4 3-.5.4-.6.5-1 1.1-.7-.7-1-1.3-1.4-1.9v5.2zm4.1-1.6V13h-1.5V2H48v10.9h-1.5v-1h-2.4zm2.5-1.3V3.3h-2.5v7.2h2.5zm3.3-6V3.3h1.8V.6l1.4.1c.1 0 .3 0 .3.2s-.2.2-.4.3v2.1h1.4v1.2H53V5c.2.5 1 2 1.9 3.2-.5.4-.8.9-1 1.1-.2-.5-.5-1-1-2.1v6.2h-1.3V7.8c-.2.7-.7 2.2-1.3 3.2-.3-.4-.7-.7-1.2-.9 1.6-2.3 2.3-4.9 2.4-5.5h-1.6zm10.2-1V.6l1.5.1c.1 0 .3 0 .3.2 0 .1-.2.2-.4.3v2.3h1v1.3h-1v8.6h-1.4v-1h-2.9v1h-1.4V4.8h-.9V3.5h.9V.6l1.4.1c.1 0 .4 0 .4.2s-.2.2-.4.3v2.4h2.9zm-2.9 1.3v2.3h2.9V4.8h-2.9zm0 3.7v2.6h2.9V8.5h-2.9zm11-1.7h8v5.4c0 .6 0 1.3-2.1 1.2 0-.4-.2-.9-.4-1.4.3 0 .5.1.7.1.3 0 .5 0 .5-.3V9.4h-1.8c-.4 0-.7 0-.7-.6v-.9h-1l.4.2c.1 0 .2.1.2.2 0 .2-.3.2-.3.2-.4.5-.7.8-1.2 1.2h3.7V12h-2.7v.5h-1.1V9.8l-.2.1c-.3-.4-.4-.4-.6-.7v4.2h-1.3v-5c-.3.3-.5.6-.7.8-.1-.3-.4-1-.7-2v6.1h-1.2V7.5c-.6 2.3-.9 3-1.1 3.5-.3-.3-.8-.9-1.1-1.1.9-1.4 1.8-3.9 2.1-5.4h-1.7V3.3h1.8V.6l1.4.1c.2 0 .3.1.3.2-.3.1-.4.1-.6.2v2.3h1.5v1.1h-1.5v.6c.2.4.7 1.5 1.5 2.6v-.9zm7.7-3.5l.5.5c-.2.3-.6 1.1-1.6 2-.3-.4-.5-.5-1-.7.4-.3.7-.6 1-1h-1.6v1.4c0 .8-.2 1.1-2 1.1 0-.6-.3-1-.4-1.2.2 0 .4.1.7.1.5 0 .5-.1.5-.3v-.9c-.5.6-1.7 1.8-3 2.5-.2-.4-.5-.7-.9-.9 1.6-.7 2.4-1.4 2.7-1.7h-2.2v-.9h2.9c-.6-.4-1.1-.7-1.6-.9l.5-.5H69V1h5.9l.6.7c-1 .7-1.6 1.1-2.6 1.6h3zM69.5 9c.7-.3 1.1-.8 1.3-1.1h-1.3V9zm1.4-7.1c.7.4 1.1.7 1.3.8.6-.3.9-.5 1.3-.8h-2.6zm2.2 8.6h-1.6v.6h1.6v-.6zm1.8-1.9v-.7h-1.5v.4c0 .3 0 .3.3.3h1.2zm12.8-6.1c.6 0 .8-.1 1-.1l1.1.9c-.2.4-.3.5-.4.8-1.7 4.5-3.5 6.8-8 9.1-.4-.6-.9-1-1.1-1.1 2-.9 5.7-2.4 7.6-8.2h-9.2V2.5h9zM87.5.1c.4.3 1 1 1.4 1.4-.4.2-.5.3-.9.6-.2-.2-.7-.9-1.3-1.5l.8-.5zm2.3 0c.4.4 1 1.1 1.3 1.5-.4.2-.5.3-.8.6-.4-.6-.8-1.1-1.3-1.6l.8-.5zm5.8 1.2c.2 0 .3 0 .3.1 0 .2-.2.3-.3.3v9.1c2.7-.9 6.1-3.1 8-5.6.3.8.4.9.7 1.5-1.2 1.3-3.1 3.2-6.6 4.9-.4.2-2.3 1.1-2.7 1.3l-1-1c0-.2.1-.6.1-.8V1.3h1.5zm12-.1c1 .5 2.5 1.3 3.9 2.6-.2.2-.4.5-.9 1.3-1.8-1.6-3.2-2.3-3.9-2.6l.9-1.3zm-.8 10.1c2.7-.6 7.5-2.4 10.6-7.6.4.7.5.8.9 1.3-2.7 4.3-6.6 6.4-10.3 7.7 0 .2-.1.3-.2.3s-.2-.1-.2-.2l-.8-1.5zM126 4.6c1.5.7 3.6 1.9 5.3 3.5-.2.2-.4.5-.9 1.2-1.8-1.8-3.8-2.9-5-3.4v7.2h-1.5V.9l1.5.1c.2 0 .3.1.3.2 0 .2-.2.2-.3.2v4.1l.6-.9zm3.7-2.2c.6.4 1.3 1.1 1.5 1.3-.3.2-.6.5-.8.8-.4-.5-.9-1-1.5-1.4l.8-.7zm1.3-1c.3.3 1.1.9 1.5 1.4-.3.2-.5.4-.7.7-.6-.7-1.1-1.1-1.5-1.4l.7-.7z"/></svg>