<svg xmlns="http://www.w3.org/2000/svg" viewBox="0 0 101.73 54.75" width="101.73" height="54.75"><title>hero-productname2</title><path fill="none" stroke="#231815" stroke-miterlimit="10" d="M66.47 41.26L53.5 54.05 40.72 41.08"/><path d="M38.62 3.24a11 11 0 0 1 2.09 1.34 16 16 0 0 0-.9 1.35 11.51 11.51 0 0 0-2.13-1.4zM37.78 11a17 17 0 0 0 2.42-4.19 4.93 4.93 0 0 0 1.17 1.07 21.27 21.27 0 0 1-2 3.63.78.78 0 0 1 .09.29c0 .07 0 .18-.14.18s-.08 0-.2-.09zM39.7.16a10.17 10.17 0 0 1 2 1.25 14.47 14.47 0 0 0-.94 1.27 10.54 10.54 0 0 0-1.96-1.29zm7 4.78h2.33v1.4h-2.29v1.37h3.21v1.43h-3.21v2.91H45V9.14h-3.35V7.71H45V6.34h-2.54v-1.4H45V3.76h-3.14V2.41h2A13.06 13.06 0 0 0 42.58.86L43.86 0a13 13 0 0 1 1.54 2 7.37 7.37 0 0 0-.78.46h1.58A15 15 0 0 0 47.4 0l1.6.58c.17.05.19.1.19.17s-.18.17-.42.17c-.35.65-.56 1-.86 1.48h1.89v1.36h-3.06zm11.06.99c.12 0 .29.07.29.18s-.1.18-.35.29v.69h5.12v1.33h-4.09a11.74 11.74 0 0 0 3.89 2.52c-.1.12-.64.58-.73.7a5.23 5.23 0 0 0-.35.48A11.33 11.33 0 0 1 57.69 9v3.08h-1.58V9A12.1 12.1 0 0 1 52 12a6 6 0 0 0-1.2-1.14A12.41 12.41 0 0 0 55 8.42h-4V7.08h5.11V6A8 8 0 0 1 55 4.73v1.89h-1.37V5.1a8.34 8.34 0 0 1-1.83 1.62 4.29 4.29 0 0 0-1.08-1 11.19 11.19 0 0 0 2.58-2.08H51V2.41h2.67v-.59c-.6.06-1.17.09-1.75.12A3.92 3.92 0 0 0 51.3.61h1A12.4 12.4 0 0 0 56 .13l.88 1a.38.38 0 0 1 .1.22c0 .08-.05.12-.14.12a.75.75 0 0 1-.38-.13 14.21 14.21 0 0 1-1.46.31v.75h2.21v1.24h-1.57A9.07 9.07 0 0 0 57.2 5a7.23 7.23 0 0 0-.92.87zm1.6-5c.2 0 .33 0 .33.16s-.25.25-.33.27v4h-1.44V.83zm3.09-.59c.23 0 .35 0 .35.16s-.23.22-.36.26v4.82c0 1-.95 1.13-2.26 1.09a4.82 4.82 0 0 0-.52-1.55c.25 0 .64.05.85.05.39 0 .42-.12.42-.38V.21zM8.35 16a4.09 4.09 0 0 0 .9-.09L10.53 17a2.57 2.57 0 0 0-.4.71c-1.26 3.15-1.52 3.74-2.51 5.06a14 14 0 0 1-5 3.94 6.73 6.73 0 0 0-1.37-1.35c3.38-1.53 5.3-3.15 6.88-7.7H0V16zm8.11.17c.13 0 .3 0 .3.17s-.13.21-.23.25v3.18c0 3.3-1.47 4.78-3.24 6.16a5.56 5.56 0 0 0-1.47-1.21c2.47-1.57 2.82-3 2.82-4.84v-3.8zm3.22-.12c.14 0 .25 0 .25.14s-.13.18-.25.25v6.81a13.57 13.57 0 0 0 3.72-3.63 4.89 4.89 0 0 0 .87 1.61 19.42 19.42 0 0 1-3.72 3.65c-1.08.78-1.2.87-1.53 1.16l-1.2-.78c0-.35.05-.68.05-1V16zm16.89 4.18v1.85H25.35v-1.85zm3.38-3.7a14.21 14.21 0 0 1 1.51 3.07c-.29.12-1.08.49-1.61.75a15.33 15.33 0 0 0-1.52-3.13zm9.48.17c.17.05.21.1.21.18s-.17.22-.26.22a12.46 12.46 0 0 1-8 9.59 5.62 5.62 0 0 0-1.21-1.46 10.54 10.54 0 0 0 7.35-9.13zm-6.1-.95a13 13 0 0 1 1.34 3.15c-.68.25-.77.29-1.59.65a13.18 13.18 0 0 0-1.34-3.17zm9.89 6.8a24.64 24.64 0 0 1 8.23 2.86c-.13.36-.46 1.22-.58 1.72a21.77 21.77 0 0 0-8-2.91zm.29-7.37a20.41 20.41 0 0 1 6.94 1.87 13.88 13.88 0 0 0-.33 1.81 19.49 19.49 0 0 0-6.8-2zm.73 3.74a16.8 16.8 0 0 1 5.68 1.81 11.21 11.21 0 0 0-.34 1.74A14.7 14.7 0 0 0 54 20.53zm12.54-.46A18.07 18.07 0 0 1 68 20.93a6.75 6.75 0 0 0-1.4.68 17.92 17.92 0 0 0-1.25-2.55zm7.54.08c.13 0 .23.06.23.17s-.17.17-.25.18C73.31 23 71.6 25.1 68 26.6a4.77 4.77 0 0 0-1-1.25c2.7-1 5.11-2.59 5.77-7.31zm-4.82-.7a10.18 10.18 0 0 1 1.12 2.52 13.06 13.06 0 0 0-1.4.57 16.1 16.1 0 0 0-1.16-2.51zm16.83-.6a2 2 0 0 0 .9-.2l.94.82c-.22.38-.91 1.91-1.34 2.87a12.3 12.3 0 0 1-6.23 6.47 6.42 6.42 0 0 0-1.39-1.27 10.94 10.94 0 0 0 6.49-7.1h-3.62A18.23 18.23 0 0 1 79 22.29a6.58 6.58 0 0 0-1.35-1.2A14 14 0 0 0 82 15.25l1.6.77c.07 0 .18.08.18.2s-.23.17-.31.17l-.44.86zm5.13.55v-1.65h6.6A3.51 3.51 0 0 0 99 16l.88.95a4.16 4.16 0 0 0-.49.83 20.91 20.91 0 0 1-1.68 3.31 29.56 29.56 0 0 1 4.06 3.76c-.46.49-1.18 1.3-1.34 1.48a17.78 17.78 0 0 0-3.69-3.87 15.24 15.24 0 0 1-5.2 4.06A4.69 4.69 0 0 0 90.26 25a11.45 11.45 0 0 0 7.06-7.24z" fill="#231815"/></svg>