<svg xmlns="http://www.w3.org/2000/svg" viewBox="0 0 369.69 60.35" width="369.69" height="60.35"><path d="M44.65 30a8.16 8.16 0 0 1 2.78-.77 6.18 6.18 0 0 1 2.69.35 6.75 6.75 0 0 1 2.4 1.57A9.84 9.84 0 0 1 54.46 34a11 11 0 0 1 1 3.08 7 7 0 0 1-.19 2.92A6.28 6.28 0 0 1 54 42.42a7.56 7.56 0 0 1-2.6 1.89l-6.18 2.9-6.75-14.32zm5.25 11.77a4.46 4.46 0 0 0 1.22-.84 3.2 3.2 0 0 0 .8-1.27 4.05 4.05 0 0 0 .18-1.71 6.45 6.45 0 0 0-.64-2.15 9.24 9.24 0 0 0-1.13-1.86 4.31 4.31 0 0 0-1.39-1.17 3.39 3.39 0 0 0-1.72-.36 5.61 5.61 0 0 0-2.11.59l-2.25 1.05 4.23 9zm11.38-18.95l11.39 12.46-3.35 1.35-2.42-2.82L61.41 36l.17 3.73-3.25 1.31L58 24.15zm3.81 8.92l-4-4.64.26 6.15zm6.85-12.92l9.67 7.91-3.43-10 3.08-1.05 5.11 15-3.29 1.12-9.64-7.89 3.42 10-3.08.99-5.11-15zm14.06.23a7.9 7.9 0 0 1 .76-3 7 7 0 0 1 1.88-2.37A8.66 8.66 0 0 1 94.92 12a7 7 0 0 1 2.82 1 7.9 7.9 0 0 1 2.19 2.14 9.86 9.86 0 0 1 1.4 3 9.56 9.56 0 0 1 .36 3.25 7.7 7.7 0 0 1-.77 2.92A7 7 0 0 1 99 26.66a8.8 8.8 0 0 1-6.3 1.77 7 7 0 0 1-2.83-1 7.7 7.7 0 0 1-2.17-2.09 9.54 9.54 0 0 1-1.38-3 9.89 9.89 0 0 1-.32-3.29zm4.47 4.17a5.24 5.24 0 0 0 1.17 1.43 3.8 3.8 0 0 0 1.61.8 4.6 4.6 0 0 0 3.84-1.08 3.81 3.81 0 0 0 1-1.52 5.23 5.23 0 0 0 .2-1.85 8.05 8.05 0 0 0-.29-1.9 8.68 8.68 0 0 0-.77-1.88A5.35 5.35 0 0 0 96 15.75a3.76 3.76 0 0 0-1.61-.81 4.6 4.6 0 0 0-3.8 1.06 3.75 3.75 0 0 0-1 1.53 5.31 5.31 0 0 0-.25 1.87 8.66 8.66 0 0 0 .32 2 8.07 8.07 0 0 0 .8 1.83zM105.49 9l8.75 8.92L112 7.58l3.18-.71 3.44 15.43-3.39.76-8.72-8.9 2.31 10.33-3.18.71-3.52-15.42zm24.9-4.82l.5 2.88-8.23 1.42.58 3.34 7.55-1.31.46 2.66-7.55 1.31.66 3.82 8.4-1.45.5 2.88-11.83 2-2.7-15.58zm16.75-2.11a9.84 9.84 0 0 1 2.07 0 4.45 4.45 0 0 1 1.66.48A3 3 0 0 1 152 3.62a4.23 4.23 0 0 1 .56 1.81 3.46 3.46 0 0 1-.33 2 3.94 3.94 0 0 1-1.46 1.47 3.8 3.8 0 0 1 2.33 1.23 4.38 4.38 0 0 1 1 2.44 4.35 4.35 0 0 1-.24 2.11 4 4 0 0 1-1.09 1.55 5.53 5.53 0 0 1-1.7 1 8.11 8.11 0 0 1-2 .48l-7.62.82-1.71-15.66zm.24 6.41a2.49 2.49 0 0 0 1.47-.6 1.67 1.67 0 0 0 .44-1.5 1.84 1.84 0 0 0-.29-.88 1.48 1.48 0 0 0-.59-.49 2.25 2.25 0 0 0-.79-.19 5.08 5.08 0 0 0-.9 0l-3.24.35.39 3.68zm.91 6.65a4.65 4.65 0 0 0 1-.2 2.4 2.4 0 0 0 .78-.42 1.68 1.68 0 0 0 .49-.69 2.17 2.17 0 0 0 .1-1 2 2 0 0 0-.87-1.66 2.93 2.93 0 0 0-1.86-.32l-3.77.4.46 4.32zM159.13 1l1.16 15.77-3.47.26-1.16-15.74zm3.5 4.43a7.91 7.91 0 0 1 1.43-2.7 7 7 0 0 1 2.37-1.86A8.65 8.65 0 0 1 173 .62a7 7 0 0 1 2.5 1.68 7.91 7.91 0 0 1 1.63 2.59 9.91 9.91 0 0 1 .66 3.27 9.57 9.57 0 0 1-.41 3.24 7.7 7.7 0 0 1-1.45 2.6 7 7 0 0 1-2.37 1.83 8.8 8.8 0 0 1-6.54.25 7 7 0 0 1-2.51-1.64 7.69 7.69 0 0 1-1.63-2.54 9.54 9.54 0 0 1-.65-3.2 9.89 9.89 0 0 1 .4-3.27zm3.38 5.1a5.23 5.23 0 0 0 .81 1.66 3.8 3.8 0 0 0 1.37 1.16 4.6 4.6 0 0 0 4-.15 3.8 3.8 0 0 0 1.28-1.26 5.22 5.22 0 0 0 .68-1.72 8.05 8.05 0 0 0 .16-1.95 8.65 8.65 0 0 0-.31-2 5.33 5.33 0 0 0-.81-1.71 3.76 3.76 0 0 0-1.37-1.17 4.6 4.6 0 0 0-4 .15 3.76 3.76 0 0 0-1.28 1.27 5.33 5.33 0 0 0-.67 1.77 8.67 8.67 0 0 0-.16 2 8.06 8.06 0 0 0 .29 1.96zm30.8-5.84a3.49 3.49 0 0 0-.75-.9 3.63 3.63 0 0 0-2.26-.86 4.06 4.06 0 0 0-2 .4 3.77 3.77 0 0 0-1.36 1.18 5.33 5.33 0 0 0-.79 1.72 8.62 8.62 0 0 0-.29 2 8 8 0 0 0 .18 1.94 5.22 5.22 0 0 0 .69 1.72 3.81 3.81 0 0 0 1.29 1.25 4.06 4.06 0 0 0 2 .51 3.22 3.22 0 0 0 2.52-.9 4.51 4.51 0 0 0 1.17-2.54l3.37.1a8.07 8.07 0 0 1-.76 2.66 6.43 6.43 0 0 1-1.52 2 6.21 6.21 0 0 1-2.16 1.22 7.79 7.79 0 0 1-2.69.36 8.1 8.1 0 0 1-3.25-.73 7 7 0 0 1-2.4-1.81 7.7 7.7 0 0 1-1.45-2.65 9.56 9.56 0 0 1-.44-3.24 9.87 9.87 0 0 1 .63-3.27 7.9 7.9 0 0 1 1.6-2.6 7 7 0 0 1 2.5-1.7 8.48 8.48 0 0 1 5.74-.1 6.7 6.7 0 0 1 2 1.16 5.92 5.92 0 0 1 1.46 1.83 6.38 6.38 0 0 1 .68 2.46l-3.37-.1a2.85 2.85 0 0 0-.34-1.11zM207.25 1l-.47 6.05 6.38.5.47-6 3.47.27-1.23 15.77-3.47-.27.53-6.8-6.38-.5-.53 6.8-3.47-.27L203.78.76zm25.18 2.65l-.36 2.9-8.29-1-.42 3.36 7.6.95-.33 2.68-7.6-.95-.48 3.85 8.45 1.02-.36 2.9-11.91-1.49 2-15.69zm13.95 2.3l-.48 2.88-7.54-1.26-.61 3.6 6.53 1.1-.45 2.66-6.53-1.1-1.08 6.44-3.43-.58 2.62-15.6zm17.1 3.71a5.1 5.1 0 0 1 1.79.77 4.43 4.43 0 0 1 1.21 1.25 4.08 4.08 0 0 1 .59 1.56A4.44 4.44 0 0 1 267 15a4.76 4.76 0 0 1-1.12 2.22 3.68 3.68 0 0 1-2.22 1.07 2.69 2.69 0 0 1 .91.77 3 3 0 0 1 .47 1 4 4 0 0 1 .13 1.16 9.43 9.43 0 0 1-.11 1.2c0 .25-.1.54-.16.87s-.12.68-.16 1a6.82 6.82 0 0 0-.06 1 2.32 2.32 0 0 0 .17.87l-3.38-.8a6.14 6.14 0 0 1 .07-1.83q.17-1 .26-2a3.15 3.15 0 0 0-.32-1.94 2.59 2.59 0 0 0-1.7-1l-3.38-.8-1.42 6-3.38-.8 3.58-15.29zm-2.85 6.68a2.63 2.63 0 0 0 1.87-.11 2.21 2.21 0 0 0 1-1.54 2.11 2.11 0 0 0-.2-1.76 2.67 2.67 0 0 0-1.63-.92l-3.71-.87-1 4.33zm22-1.48l-.81 2.81-8-2.31-.94 3.26 7.36 2.12-.75 2.6-7.36-2.12-1.13 3.72 8.19 2.36-.81 2.81-11.54-3.32 4.37-15.2zm11.21 8.22a3.5 3.5 0 0 0-.45-1.08 3.63 3.63 0 0 0-1.9-1.49 4.06 4.06 0 0 0-2-.22 3.77 3.77 0 0 0-1.65.72 5.33 5.33 0 0 0-1.27 1.4 8.64 8.64 0 0 0-.87 1.83 8 8 0 0 0-.41 1.91 5.23 5.23 0 0 0 .15 1.84 3.81 3.81 0 0 0 .86 1.57 4.06 4.06 0 0 0 1.7 1.08 3.22 3.22 0 0 0 2.67-.11 4.51 4.51 0 0 0 1.87-2.07l3.18 1.09a8.05 8.05 0 0 1-1.52 2.31 6.42 6.42 0 0 1-2 1.45 6.21 6.21 0 0 1-2.43.52 7.77 7.77 0 0 1-2.68-.45 8.1 8.1 0 0 1-2.88-1.66 7 7 0 0 1-1.75-2.44 7.68 7.68 0 0 1-.6-3 9.54 9.54 0 0 1 .54-3.22 9.91 9.91 0 0 1 1.6-2.89 7.91 7.91 0 0 1 2.31-2 7 7 0 0 1 2.89-.88 8.48 8.48 0 0 1 5.51 1.61 6.7 6.7 0 0 1 1.61 1.71 5.92 5.92 0 0 1 .86 2.18 6.35 6.35 0 0 1-.08 2.55l-3.18-1.09a2.84 2.84 0 0 0-.08-1.17zm10.94-.39l-5.71 14.74-3.24-1.26 5.71-14.74zm9.84 4.09a6.59 6.59 0 0 1 2.15 1.4 4.72 4.72 0 0 1 1.1 1.72 4.38 4.38 0 0 1 .23 1.86 6 6 0 0 1-1.49 3.45 4.37 4.37 0 0 1-1.52 1.12 4.73 4.73 0 0 1-2 .38 6.59 6.59 0 0 1-2.49-.6l-3.36-1.45-2.24 5.19-3.19-1.38L308.07 24zm-3.82 6.46a7.29 7.29 0 0 0 1.09.37 2.68 2.68 0 0 0 1 .07 1.88 1.88 0 0 0 .91-.39 3 3 0 0 0 1-2.24 1.87 1.87 0 0 0-.34-.93 2.68 2.68 0 0 0-.76-.7 7.27 7.27 0 0 0-1-.54l-2.48-1.07-1.87 4.35zm21.95 2.13l-1.3 2.63-7.45-3.71-1.5 3 6.87 3.4-1.2 2.42-6.87-3.39-1.72 3.47L327.2 47l-1.3 2.62-10.76-5.32 7-14.18zM38.46 54.6c-1.33 2-2.68 1.56-5 0l-13.91-9.07a2.51 2.51 0 0 1-1.22-1.77c-.2-1-4.35-2.85-4.35-2.85l-1.91-4.83 3 1.22s3.78 3.28 4.68 3.49c1.43.33 1.19-.56 2.93.58l14.5 9.49c1.16.76 2.23 2.29 1.28 3.74z" fill="#00584a"/><ellipse cx="8.86" cy="35.68" rx="6.57" ry="9.67" transform="rotate(-56.79 8.857 35.684)" fill="#00584a"/><path d="M331.41 59c1.35 2 2.69 1.54 5 0l13.84-9.22a2.51 2.51 0 0 0 1.2-1.78c.19-1 4.33-2.88 4.33-2.88l1.87-4.85-3 1.25S350.89 44.83 350 45c-1.43.35-1.19-.55-2.92.6l-14.42 9.61c-1.16.79-2.22 2.36-1.25 3.79z" fill="#00584a"/><ellipse cx="360.85" cy="39.85" rx="9.67" ry="6.57" transform="rotate(-33.68 360.834 39.846)" fill="#00584a"/></svg>