<svg xmlns="http://www.w3.org/2000/svg" viewBox="0 0 119.11 11.26" width="119.11" height="11.26"><path d="M.86 3a10.26 10.26 0 0 1 1.93 1.22A14.57 14.57 0 0 0 2 5.47a10.58 10.58 0 0 0-2-1.3zm-.78 7.11a15.68 15.68 0 0 0 2.23-3.82 4.55 4.55 0 0 0 1.08 1 19.67 19.67 0 0 1-1.83 3.35.74.74 0 0 1 .08.26c0 .06 0 .17-.13.17s-.07 0-.18-.08zM1.86.14A9.4 9.4 0 0 1 3.67 1.3a13.51 13.51 0 0 0-.86 1.17A9.78 9.78 0 0 0 1 1.28zm6.49 4.42h2.15v1.3H8.35v1.25h3v1.32h-3v2.69H6.78V8.43H3.66V7.11h3.12V5.85H4.4V4.56h2.38V3.47H3.85V2.22h1.82A12.08 12.08 0 0 0 4.51.79L5.7 0a12 12 0 0 1 1.41 1.8 6.66 6.66 0 0 0-.72.42h1.47A13.87 13.87 0 0 0 9 0l1.52.52c.16 0 .18.1.18.16s-.17.16-.38.16c-.32.6-.52.92-.79 1.37h1.69v1.26H8.35zm10.17.91c.11 0 .26.06.26.17s-.1.17-.32.26v.64h4.72v1.23h-3.76A10.83 10.83 0 0 0 23 10.1c-.1.11-.59.54-.67.65a5 5 0 0 0-.32.44 10.46 10.46 0 0 1-3.55-2.88v2.84H17V8.31A11.16 11.16 0 0 1 13.22 11a5.55 5.55 0 0 0-1.1-1 11.45 11.45 0 0 0 3.81-2.21h-3.64V6.54H17v-1a7.33 7.33 0 0 1-1-1.13v1.7h-1.29V4.7A7.72 7.72 0 0 1 13 6.2a4 4 0 0 0-1-.91 10.34 10.34 0 0 0 2.38-1.93h-2.13V2.22h2.46v-.54c-.55.06-1.08.08-1.62.11a3.61 3.61 0 0 0-.53-1.23h1a11.42 11.42 0 0 0 3.37-.44l.82 1a.36.36 0 0 1 .1.2c0 .07 0 .11-.13.11a.69.69 0 0 1-.35-.12 13.12 13.12 0 0 1-1.37.21v.7h2v1.14h-1.43A8.35 8.35 0 0 0 18 4.58a6.65 6.65 0 0 0-.85.8zM20 .85c.18 0 .3 0 .3.14s-.23.23-.3.25V5h-1.33V.77zm2.85-.54c.22 0 .32 0 .32.14s-.22.2-.34.24v4.46c0 1-.87 1-2.09 1a4.43 4.43 0 0 0-.48-1.43h.78c.36 0 .38-.11.38-.35V.19zm10.06.63a3.76 3.76 0 0 0 .83-.08l1.19 1a2.41 2.41 0 0 0-.37.66c-1.16 2.9-1.4 3.45-2.32 4.67a12.88 12.88 0 0 1-4.58 3.63 6.17 6.17 0 0 0-1.26-1.27c3.12-1.42 4.89-2.9 6.34-7.1h-7.53V.94zm7.49.14c.12 0 .28 0 .28.16s-.12.19-.22.23V4.4a6.44 6.44 0 0 1-3 5.68A5.15 5.15 0 0 0 36.12 9c2.28-1.45 2.6-2.81 2.6-4.46V1zm3-.11c.13 0 .23 0 .23.13s-.12.17-.23.23v6.29a12.49 12.49 0 0 0 3.43-3.35 4.49 4.49 0 0 0 .8 1.49 17.87 17.87 0 0 1-3.43 3.37c-1 .72-1.1.8-1.42 1.07l-1.1-.72V.89zM59 4.82v1.7H48.61v-1.7zm3.09-3.4a13.1 13.1 0 0 1 1.39 2.83c-.26.11-1 .46-1.49.7a14.18 14.18 0 0 0-1.4-2.89zm8.74.16c.16 0 .19.1.19.17s-.16.2-.24.2a12 12 0 0 1-3.5 6.49 11.87 11.87 0 0 1-3.84 2.36 5.22 5.22 0 0 0-1.12-1.34A9.73 9.73 0 0 0 69.1 1zM65.21.7a12 12 0 0 1 1.24 2.9c-.62.23-.71.26-1.46.6a12.23 12.23 0 0 0-1.24-2.93zM74.34 7a22.71 22.71 0 0 1 7.59 2.64c-.12.34-.42 1.13-.54 1.58A20.07 20.07 0 0 0 74 8.5zM74.6.17A18.81 18.81 0 0 1 81 1.9a12.62 12.62 0 0 0-.3 1.67 18 18 0 0 0-6.27-1.87zm.67 3.45a15.51 15.51 0 0 1 5.24 1.67 10.36 10.36 0 0 0-.31 1.61A13.57 13.57 0 0 0 75 5.1zm11.58-.43A16.69 16.69 0 0 1 88 5.47a6.16 6.16 0 0 0-1.29.62 16.45 16.45 0 0 0-1.15-2.35zm7 .07c.12 0 .22.06.22.16s-.16.16-.23.17C92.88 7.34 91.3 9.32 88 10.7a4.39 4.39 0 0 0-1-1.15c2.49-.95 4.71-2.39 5.33-6.74zm-4.45-.65a9.39 9.39 0 0 1 1 2.33 11.69 11.69 0 0 0-1.29.53A15 15 0 0 0 88 3.15zm15.5-.55a1.81 1.81 0 0 0 .83-.18l.86.75c-.2.35-.84 1.76-1.24 2.65a11.35 11.35 0 0 1-5.74 6 6 6 0 0 0-1.28-1.17 10.09 10.09 0 0 0 6-6.55H101a16.81 16.81 0 0 1-2.82 3.19 6.09 6.09 0 0 0-1.25-1.1 12.9 12.9 0 0 0 4-5.4l1.47.71c.06 0 .17.07.17.18s-.22.16-.29.16l-.41.79zm4.73.52V1.06h6.09a3.24 3.24 0 0 0 .83-.1l.82.88a3.9 3.9 0 0 0-.46.77 19.29 19.29 0 0 1-1.55 3.06 27.26 27.26 0 0 1 3.74 3.47l-1.24 1.37a16.41 16.41 0 0 0-3.41-3.57 14.05 14.05 0 0 1-4.8 3.74 4.31 4.31 0 0 0-1.14-1.4 10.24 10.24 0 0 0 4.25-2.81A10.16 10.16 0 0 0 115 2.58z" fill="#231815"/></svg>