<svg id="レイヤー_1" xmlns="http://www.w3.org/2000/svg" width="580.4" height="24" viewBox="0 0 580.4 24"><style>.st0{fill:#231815}</style><path class="st0" d="M9.8 4.4c.2.1.3.2.2.4 0 .4-.6.3-.8.3-.6 1-1.3 1.9-4.3 5.5.3 0 2-.2 2.3-.2-.1-.6-.2-1-.4-1.4l2.1-.7c-.3-.1-.4-.2-.7-.3 2.4-2.1 4.2-4.6 5.4-7.5l2.7.8c.1 0 .4.1.4.3 0 .4-.6.4-.8.4-.1.3-.3.6-.5.9h5.1l1.1 1.2c-1.5 2.1-1.6 2.4-2.3 3.2h3v9.4h-2.6V16h-6.3v3.4c0 1 .3 1.1 1.3 1.1H19c1 0 1.7-.2 2-2.5.7.6 1.6 1 2.5 1.1C23 23 21.1 23 19.4 23H14c-1.3 0-3.2 0-3.2-2.7V9.4l-.1.1c-.5-.5-1.1-.8-1.8-1.1.6 1.5 1 3.1 1.3 4.6-.8.2-1.6.5-2.3.8 0-.4 0-.4-.2-1.2l-1 .1v10.7H4.1V12.9l-2.6.2c-.2.4-.2.5-.5.5s-.4-.3-.4-.5l-.3-2.4h1.5c.5-.6 1-1.2 1.6-2-1.1-1-2.2-2-3.5-2.9l1.5-2 .9.6C3.2 3.1 4 1.7 4.6.3L7 1.7c.2.1.3.2.3.3 0 .3-.4.3-.7.3-.4.6-2 3.2-2.4 3.7.1.2.2.2.8.7C6.2 4.9 6.8 3.9 7.4 3l2.4 1.4zM3.7 14.6c.1 0 .3.2.3.4 0 .3-.3.4-.5.4-.1 1.8-.4 3.7-.8 5.5-.8-.4-1.6-.6-2.5-.7.6-2 1-4 1-6.1l2.5.5zm5.9-.8c.1 1.6.4 3.2.9 4.7-.8.1-1.7.4-2.4.8-.4-1.7-.6-3.4-.7-5.2l2.2-.3zm6.8-6.4c.5-.7 1-1.4 1.4-2.2h-3.7c-.8 1.2-1.2 1.8-1.6 2.2h3.9zm-1 6.1V9.9h-1.9v3.6h1.9zm2.3-3.6v3.6h2V9.9h-2zm10.5-1.8c1.3 1.2 2.5 2.6 3.6 4 .7-1.7 1.2-3.4 1.6-5.2h-8V4.2h4.9V.4l3.3.2c.2 0 .5.1.5.3s-.3.4-.5.4v2.9h4.5v2.7h-1.8c-.5 2.7-1.3 5.3-2.5 7.8 1.2 1.8 2.2 3.6 3.2 5.6-1 .4-2 1-3 1.6-.5-1.4-1.1-2.9-1.8-4.2-1.3 2.2-3 4.1-5 5.7-.7-.8-1.6-1.4-2.6-1.8 2.4-1.8 4.3-4 5.8-6.6-1.3-1.9-2.8-3.7-4.5-5.2l2.3-1.7zm10.6 3.1c1.1 1.5 2 3.1 2.7 4.8-1 .4-1.9 1-2.8 1.5-.6-1.7-1.4-3.3-2.4-4.9l2.5-1.4zm10-4.2v2.8h-2.5V20c0 3.4-2.2 3.4-5.3 3.4-.1-1.3-.6-2.5-1.4-3.4.8.1 1.7.2 2.5.3 1 0 1-.4 1-1.6V9.8h-5.4V7h5.5V.6l3.2.2c.3 0 .5.1.5.3s-.1.2-.5.4V7h2.4zm7.9-4.7c.4.2.6.2.6.4s-.3.4-.7.4C55.5 6.5 54.9 10 55 13.5c0 .9.1 1.8.2 2.8.1-.2.8-1.9 1.2-2.6.4.7 1 1.3 1.7 1.8-.3.7-1.8 3.8-1.7 6.3l-3 .9c-1.2-3.1-1.7-6.4-1.7-9.7.1-4 .6-7.9 1.6-11.7l3.4 1zM63.2 14c-.3.7-.5 1.4-.6 2.1 0 1.2 1.2 1.5 3.8 1.5 2.1 0 4.2-.2 6.3-.7-.2 1.1-.3 2.3-.3 3.5-1.9.2-3.9.3-5.8.4-5 0-7.1-1.1-7.1-3.6 0-1.3.3-2.6.9-3.7l2.8.5zM60.5 3.8c.7 0 1.6.1 3 .1 2.5 0 5-.2 7.5-.8 0 1.1.2 2.2.3 3.2-2.5.5-5.2.7-7.8.7-1.4 0-2.3-.1-3-.1V3.8zM76 20.9c1.1-.1 2.5-.4 3.9-.7V7.8c-1 .4-1.9.8-2.9 1.2-.5-.9-1.1-1.7-1.8-2.3 2.4-.8 7-2.5 10.3-6.6l2.9.4c.3 0 .5.2.5.3s-.2.3-.3.4c1.2 1.4 5.4 3.9 10.1 5.1-.8.7-1.4 1.5-1.8 2.5-1.8-.6-2.5-1-3-1.2v7.8c.5-.4.9-.9 1.4-1.4l2.2 1.9c.1.1.2.2.2.4s-.1.3-.3.3H97c-1.2 1-2.4 2-3.7 2.9 1.8.8 3.6 1.3 5.6 1.5-.8.7-1.4 1.5-1.8 2.5-1.7-.4-3.3-1-4.9-1.7-1.6-.7-3.1-1.6-4.3-2.9-.2.7-.3 1.5-.4 2.2-4.5 1.2-8.2 2-9.6 2.2-.2.3-.3.5-.5.5s-.3-.2-.4-.5l-1-2.4zM92.8 7.2c-2.3-1.1-4.4-2.5-6.2-4.2-1.7 1.6-3.6 3-5.7 4.2h4.4V4.8l3.2.2c.2 0 .4.1.4.3 0 .2-.2.4-.6.7v1.3h4.5zm-9.9 3.4h7.8V9.5h-7.8v1.1zm7.8 2h-7.8v1.1h7.8v-1.1zm-7.8 7.1c1.7-.4 2.6-.5 4.3-.9-.9-.8-1.8-1.8-2.4-2.8h-1.9v3.7zm5.2-3.8c.6.8 1.4 1.4 2.2 2 1.1-.7 2.4-1.7 2.8-2h-5zm11.5-2.1c2.1-1.6 4-3.6 5.5-5.8 2.1-2.9 2.7-3.7 4.2-3.7 1.6 0 2.2.7 5.4 4.6 2.6 3.2 5.6 6.1 9 8.6-.9 1-1.7 2.1-2.4 3.2-3.2-2.7-6.1-5.7-8.7-8.9-.9-1.2-1.9-2.3-2.9-3.4-.1-.1-.3-.2-.6-.2s-.6.1-1.3 1.1c-3.1 4.4-3.6 5-5.5 7.1l-2.7-2.6zm18.8-10c.9.8 1.8 1.7 2.6 2.6-.4.3-1.2 1-1.7 1.4-.8-.9-1.7-1.8-2.6-2.6l1.7-1.4zm2.4-2c1 .8 1.8 1.6 2.7 2.6-.6.4-1.1.9-1.6 1.4-.8-1-1.7-1.8-2.6-2.6l1.5-1.4zm16.1-.3c.4.1.5.2.5.4s0 .3-.5.4c-.1.5-.6 2.5-.7 2.8 1.6-.2 3.1-.6 4.6-1.3l.4 3.3c-1.9.6-3.9 1-5.9 1.2-1.5 5.3-3.7 10.3-6.6 14.9-1-.6-2.1-1.2-3.2-1.6 2.9-3.8 5-8.1 6.3-12.7-1.5.1-2.6.1-4.9.2l-.3-3.5c.6 0 1.4.1 2.5.1.5 0 1.9 0 3.6-.2.3-1.6.5-3.2.6-4.8l3.6.8zm2 14.9c-.5.5-.8 1.2-.9 1.9 0 1.3 3 1.3 4.2 1.3 1.8 0 3.7-.3 5.4-.8-.1.6-.1 1.1-.1 1.7 0 .6 0 1.2.1 1.8-1.7.3-3.5.4-5.2.5-2.4 0-7.4-.2-7.4-3.9.1-1.2.4-2.4 1.1-3.4l2.8.9zm-1.1-6.7c1.9-.3 3.7-.5 5.6-.4 1.2 0 2.5.1 3.7.3-.1 1.1-.2 2.2-.2 3.3-1.2-.3-2.4-.4-3.7-.4-1.8 0-3.6.2-5.4.4V9.7zm30.6-7.4c.1.1.3.2.3.4s0 .3-.3.3h-.4c-1 1-5.4 4.6-9 7.6-1.1.9-1.1 1-1.1 1.2 0 .3.2.4 1 .9.4.2 7.1 4.4 10.4 8.6-1 .8-1.8 1.8-2.6 2.8-2.1-3.1-8.2-7.9-10.9-9.6-2.3-1.5-2.5-1.6-2.5-2.6 0-.6 0-.9 2.1-2.5 3.7-2.7 7-5.9 10-9.3l3 2.2zm8.3 2.4c.9.1 1.8.2 2.7.2.6 0 1.3 0 2.8-.2.6-2 .8-3.3 1-4.3l3.4 1c.3.1.4.2.4.4s-.4.3-.5.3c-.1.3-.5 1.8-.6 2.1 1.1-.2 2.1-.5 3.1-.9 0 1.1 0 2.1.1 3.2-1.4.4-2.8.7-4.2.9-.7 2-3.1 8.4-5.7 12-1-.5-2.1-1-3.1-1.3 2.2-3.1 4-6.6 5.2-10.2-.9.1-2.8.1-4.1.1l-.5-3.3zm16 6.5c-.7.7-1 1.6-1 2.5 0 .9.1 1.8.3 2.6 1.9.9 3.7 1.9 5.4 3.2-.7.8-1.4 1.7-1.9 2.5-1.1-.9-2.2-1.7-3.4-2.4-.4 3.2-3.6 3.3-4.9 3.3-3.5 0-5.6-1.6-5.6-4 0-1.6 1.1-3.8 4.8-3.8.7 0 1.4.1 2.1.2-.1-.7-.2-1.4-.2-2.2 0-1.4.7-2.8 1.8-3.7l2.6 1.8zm-6.1 6.7c-.8 0-1.9.4-1.9 1.3 0 1.1 1.6 1.3 2.2 1.3 1.9 0 2-1 2.1-2-.8-.4-1.6-.6-2.4-.6zM191.4 5c3.9 1.3 5.3 2.2 6.5 3.2-.5.7-1.3 1.7-1.9 2.8-1.9-1.5-4-2.6-6.4-3.2l1.8-2.8zm26.7-1.7c-1.5 1.1-5.7 5-6.6 6.1 1.1-.4 2.2-.5 3.3-.6 3.7 0 7.1 2.2 7.1 6.5 0 5.4-5.3 7.8-9.4 7.8-3.9 0-6.1-1.8-6.1-4.2 0-2.1 1.9-3.8 4.6-3.8 1.9 0 4.8 1 5.3 4 1.4-.6 2.3-2 2.2-3.5 0-1.4-.9-4-4.5-4-4.4 0-6.9 2.6-10.4 6.3l-2.5-2.5C205 12.2 208.7 8.7 212 5c-2.5.5-5 .8-7.6 1l-.6-3.3c1.9.1 8.8-.1 12.6-1.5l1.7 2.1zm-7.4 14.5c-.9 0-1.4.5-1.4 1.1 0 1 1.4 1.5 2.6 1.5.5 0 1-.1 1.5-.2-.1-1.3-1.3-2.4-2.7-2.4zm22.7-4.1c-.4.3-2.6 2.3-2.6 3.5 0 .7.5 1 .6 1.1 1.2.6 3.9.7 5.3.7 5.3 0 8.2-.9 9.5-1.3.1.8.3 2.2.7 3.5-3.4.9-8.6 1-10.3 1-5.6 0-9.4-1.1-9.4-4.8 0-1.1.4-2.9 3.8-5.8l2.4 2.1zm11.9-9c-2.6 1.1-5.7 3.1-8 5.2-.3-.4-1.7-1.9-1.9-2.2.2-.1 2.1-1.6 2.7-2.1-1.3.1-3.2.2-5.4.2-1.9 0-2.6-.1-3.3-.1l-.2-3.5c2.3.5 6.6.5 7.1.5 2.5 0 4.9-.1 7.3-.6l1.7 2.6zm16.6-3.3c.3.1.5.2.5.4 0 .3-.4.4-.5.4-.1.5-.6 2.5-.7 2.9 2.5-.4 3.6-.9 4.6-1.3l.4 3.3c-1.3.4-2.7.8-5.9 1.2-2.4 8.2-5.7 13.4-6.7 14.9-1-.7-1.5-.8-3.2-1.6 1.4-1.7 4.5-6.5 6.4-12.8-1.5.2-2.6.2-5 .2l-.3-3.5c.6.1 1.4.1 2.5.1.5 0 1.9 0 3.6-.2.4-2.3.6-3.6.7-4.9l3.6.9zm2 15c-.5.5-.9 1.2-.9 1.9 0 1.3 3.1 1.3 4.2 1.3 1.9 0 3.6-.3 5.4-.8-.1.4-.1 1-.1 1.7 0 .8.1 1.3.2 1.8-2.3.4-4.1.5-5.2.5-2.4 0-7.5-.2-7.5-3.9 0-1 .3-1.9 1.1-3.4l2.8.9zm-1-6.7c2.5-.5 5-.5 5.6-.5 2.2 0 3.2.2 3.7.3-.1 1-.2 1.8-.2 3.3-.8-.2-1.8-.4-3.7-.4-2 0-4.6.3-5.4.4V9.7zm6-7c.9.8 1.7 1.8 2.4 2.7-.8.4-1 .6-1.7 1.2-.7-.9-1.5-1.9-2.3-2.7l1.6-1.2zm2.6-1.6c.8.6 1.9 2 2.4 2.6-.8.6-.9.6-1.5 1.2-.1-.2-1.3-1.7-2.4-2.7l1.5-1.1zm15 4.8c0 .1-.9 1.1-1.3 1.9 2.3-1.5 4.3-1.8 5.6-1.8 2.8 0 7 1.5 7 7.1 0 7.6-7.7 8.7-9.6 9-.5-1.5-1-2.2-1.7-3.1 3.4-.2 8-1.3 8-5.7 0-2.9-1.9-4.3-4.1-4.3-2.9 0-5.4 2-6.6 2.9v10.9l-3.5.3c.1-2.2.1-2.7.3-7.5-.4.6-2.2 3.1-2.6 3.6l-2.5-2.4c2.1-2.2 4.2-4.9 5.3-6.9V8.8c-1.6.7-3.2 1.1-4.1 1.3l-.6-3.6c2.1-.2 4-.6 4.8-.8 0-2.4 0-2.7-.1-5.1l3.3.2c.4 0 .8.1.8.4s-.3.3-.6.4c-.1.6-.1 1.1-.3 3 .2-.1.4-.2.9-.4l1.6 1.7zm21.6-4.3c.4.1.7.2.7.4 0 .3-.3.4-.6.4-1.1 3.2-1.1 5.9-1.1 6.5 0 1.4.2 2 .3 2.7.5-1.1.9-2.1 1.6-3.3.8.8 1.2 1.2 2.2 1.8-1.3 2-2.3 4.2-2.6 6.6l-3 .4c-1.1-2.9-1.7-5.9-1.7-9 0-2.1.3-3.7.8-6.3.1-.6.2-.7.2-1l3.2.8zm11.5-.8c.4 0 .6.1.6.4 0 .3-.3.3-.4.4 0 .8.3 4.4.3 5.2 0 .7.1 1.8.1 3.1 0 3.2-.2 9.7-7.7 13.8-1-1.3-1.7-1.9-2.7-2.5 4.9-2.2 6.9-5.8 6.9-11.5 0-1.9-.3-6.5-.9-9l3.8.1zm17.2 18.8c5.9-1.1 7.4-5.5 7.4-8.2 0-2.9-1.9-6.3-6.4-6.5-.9 9.3-4.5 16-7 16-1.9 0-5.3-3.2-5.3-7.6 0-5.3 4.8-11.5 12-11.5 5.3 0 10.1 3.6 10.1 9.6 0 3.7-1.7 6.2-3 7.6-1.7 1.9-3.8 2.8-5.6 3.6-.8-1.3-1.3-1.9-2.2-3zm-8.1-6.5c0 2.1 1.1 3.8 1.9 3.8.7 0 1.4-1.7 1.8-2.7 1.8-4.3 1.8-7.5 1.9-8.7-3.4 1-5.6 4.9-5.6 7.6zm42.1-5.9c.1.1.2.2.2.3 0 .2-.2.3-.6.3-.1 0-.3 0-.5-.1-5.4 3.3-11 4.5-13.2 4.8v4.1c0 2.3.4 2.4 4.7 2.4.8 0 5.8 0 9.8-.5-.3 1.3-.4 1.7-.5 3.4-.7 0-1.3.1-5.2.1-9.1 0-10.1 0-11.5-1.4-.6-.6-.9-1.4-.9-3.3V1.1l3.6.2c.3 0 .5.1.5.3 0 .3-.3.4-.6.5v7.4c4.2-.7 9-2.8 11.1-4.6l3.1 2.3zm7.6 7.6c5.8 1 11.5 2.9 15.8 5.5-.3.7-.9 2.4-1.1 3.3-3.5-2.2-8.5-4.4-15.4-5.6l.7-3.2zM379 .6c4.6.5 9.2 1.6 13.4 3.6-.2.8-.5 2.5-.6 3.5-3-1.8-8-3.2-13.1-3.9l.3-3.2zm1.4 7.2c3.8.5 8.7 2.1 10.9 3.5-.3 1-.5 1.9-.7 3.4-2.9-1.8-7.1-3.3-10.8-3.8l.6-3.1zm21-4.6c1.2 1.7 2.3 4.3 2.9 5.9-.6.2-2.1 1-3.1 1.5-1.3-3.5-2.4-5.3-2.9-6l3.1-1.4zm18.3.3c.3.1.4.2.4.4 0 .4-.3.4-.5.4-1.5 6-3.6 10.2-7.3 13.5-.8.8-3.7 3.3-8 4.9-.7-1.1-1.2-1.8-2.3-2.8 10.3-3.3 13.5-12 14.1-17.6l3.6 1.2zm-11.8-1.8c1 1.7 2.1 4.1 2.6 6.1-1.3.5-1.5.6-3.1 1.3-.5-2-1.6-4.4-2.6-6.1l3.1-1.3zm27.6-.8c.1.1.5.1.5.4 0 .2-.3.4-.6.4l-.8 1.6c3.6-.5 4.8-1 5.7-1.3v3.2c-2.4.4-4.9.9-7.3 1.1-.3.6-.9 1.5-1.3 2.2 1.1-.6 2.2-.6 2.4-.6.4 0 2.7.1 3.8 2.3 1.8-.8 4.3-1.9 5.3-2.5l1.3 3.4c-2.2.7-4.1 1.3-5.9 2.1.1 1 .1 1.9.1 2.5 0 1.1 0 1.9-.1 2.5-.2 0-2.2-.1-3.4 0 .1-1.3.1-1.5.1-3.5-2.7 1.5-3.8 2.6-3.8 3.7s1.3 1.5 4.2 1.5c.9 0 3.8 0 7.9-1.1-.3 1.3-.4 2.5-.4 3.4-3.1.7-6.2.7-7 .7-1.4 0-8 0-8-4.3 0-3.5 5.2-6.2 6.7-7-.2-.6-.7-1.4-2.1-1.4-2 0-3.8 1.5-6.2 5.4l-3-1.8c1.1-1.1 3.6-4.3 5.5-7.4-1.2.1-2 .1-4 .1v-3c.6.1 2.1.2 4 .2h1.5c.2-.3 1-2 1.4-3.4l3.5.6zM451 14.5c.2 0 .5.2.5.4 0 .3-.4.4-.7.5-.4 3.5-.4 3.9-1 6.2-.7-.2-1.8-.5-2.7-.6.9-2.8 1-3.9 1.1-6.9l2.8.4zm6-10.4c.3.2.5.3.5.5 0 .3-.3.3-.9.3-1 2-3.3 5.3-3.6 5.7 1.3-.1 1.7-.2 2.1-.3-.2-.8-.3-1.1-.5-1.5L457 8c.5 1.4.7 2.2.9 2.8 2.5-1.8 3.4-4.5 3.5-6.9h-3.7V1.4h12.4c0 9.5-.5 11.3-5.4 11.3-.1-1-.4-1.8-.9-2.9.4.1.7.1 1.3.1 1 0 1.5-.2 1.8-1.5.4-2.1.4-3.7.4-4.5h-3.1c-.3 4.4-2 7.2-4.6 9.1-.3-.4-.9-1.3-1.6-1.8.2.8.3 1.4.4 2-.3.1-1.7.4-2.6.8-.1-.7-.1-1-.2-1.6-.2 0-.5.1-1.3.2v10.8h-2.8V13c-.7.1-2.2.2-2.9.3-.1.2-.2.3-.3.5-.1.1-.1.2-.3.2-.2 0-.3-.3-.4-.6l-.4-2.6c1 0 1.7-.1 2.6-.1.2-.2.4-.6 1.1-1.5-.5-.5-2.5-2.2-3.6-3l1.4-2.1c.5.3.6.4 1 .6.9-1.7 1.6-3 2.1-4.5l2.3 1.2c.2.1.3.2.3.4 0 .4-.5.3-.8.3-.7 1.4-1.7 3.3-2.1 4.1.2.2.4.3.8.7 1.4-2.4 1.9-3.7 2.2-4.3l2.5 1.5zm.5 10.2c.1 3.1.5 4.8.7 5.5-.5.1-2.3.5-2.6.5-.5-2.4-.6-3.8-.6-5.9l2.5-.1zm4 8.1v1h-2.8V13.2h11.4v10.1h-2.8v-1h-5.8zm5.9-2.5v-4.1h-5.8v4.1h5.8zM485.9.5c.4 0 .7.1.7.4 0 .1-.2.3-.3.4 1 1.3 4.2 5.4 10.3 7.7-1 1.1-1.5 2.4-1.6 2.7-2-1-6.7-3.1-10.7-8.6-2.9 4-6.5 6.8-10 8.7-.3-.7-.8-1.5-2.2-2.5 2.3-1.1 7.5-3.5 10.3-9l3.5.2zm-4.3 9.2c.5 0 .7.2.7.4s-.2.4-.5.5c0 3.2-.1 5.5-.8 7.5-.6 1.6-2.2 4.3-5.1 5.9-.6-1-1.2-1.5-2.3-2.3 3.9-1.7 4.7-4.5 4.8-5.5.3-1.6.3-3.9.3-6.6l2.9.1zm8.3 0c.4 0 .6.1.6.3 0 .2-.2.3-.4.4v13.1H487v-14l2.9.2zm16.4-8.2c.4.1.6.1.6.4 0 .3-.4.4-.6.4-.7 3.9-.7 9.9-.7 11.2 0 4.3.4 6 2.7 6 4.3 0 8-5.1 9.1-7.3 1.3 1.7 2 2.4 2.5 2.8-4.1 6.6-9 8-11.9 8-5.7 0-5.9-5.4-5.9-10.4 0-1.6.3-8.5.3-10 0-1 0-1.2-.1-1.7l4 .6zm30.1-.3c.3.1.5.1.5.4 0 .3-.3.4-.5.4-.1.6-.1 1-.1 1.7.7 0 1.8-.1 3.4-.1 1.4 0 2.3 0 3.8.2V7c-1.2-.1-3.2-.3-7.3-.2v3.3c.7-.1 3.6-.3 6.6-1.2v3.2c-2.1.5-4.4.6-6.6.8 0 .4.1 2.3.1 2.7 3.5.6 7.2 2.6 8.3 3.4-.9.9-1.5 1.6-2.3 2.7-1.3-1.1-3.4-2.5-5.8-3.3.1 1.6.2 4.5-5.1 4.5-4.4 0-6.2-2.1-6.2-4 0-3.1 4.4-3.9 6.4-3.9.3 0 1.1.1 1.4.1v-2c-2.9.1-7.2.2-7.2-2.2 0-.9.5-1.6 1.8-2.9l2.4.6c-.3.3-.7.8-.7 1 0 .7.9.7 2.2.7h1.5V7c-3.5.1-6.1.5-8.1.7V4.3c1.3-.1 6.9-.4 8.1-.4 0-2.3 0-2.6-.1-3.2l3.5.5zm-4.8 16.4c-.8 0-3 .2-3 1.4 0 1.1 1.9 1.1 2.3 1.1 1.5 0 2.3-.6 2.1-2.3-.3-.2-.7-.2-1.4-.2zM561.8.9c.4.1.6.1.6.3 0 .2-.2.3-.4.4-.1.5-.1.9-.1 2 7.3-.3 8.2-.4 8.5-.4-.1.4-.1.5-.1 1.2 0 .6 0 1.6.1 2.2-4.8-.2-7.3-.2-8.4-.1 0 .4-.1 2.1 0 3.3 1.3 1.7 1.3 4.3 1.3 4.6 0 2.7-1.4 7.1-6 9.6-.8-.7-1.4-1.3-3-2.2 3.9-1.6 4.7-3.5 5-4.3-.7.6-1.5.9-2.4.9-3.1 0-3.6-3.1-3.6-4.8 0-3.1 1.7-5.1 4.4-5.1.5 0 .8.1 1.1.2v-2c-5.6.4-8.5.9-10.3 1.2l-.3-3.6c.8 0 1.8 0 10.4-.6-.1-2-.3-2.7-.4-3.3l3.6.5zm-5.9 12.6c0 2.1 1.1 2.3 1.6 2.3 1 0 1.7-1.2 1.7-2.7 0-.5-.2-2-1.6-2-.9.1-1.7.9-1.7 2.4zm24.4 6c0 1.9-1.6 3.4-3.4 3.4-1.9 0-3.4-1.5-3.4-3.4s1.5-3.4 3.4-3.4 3.4 1.5 3.4 3.4zm-5.4 0c0 1.1.9 2 2 2s2-.9 2-2-.9-2-2-2-2 .9-2 2z"/></svg>