<svg xmlns="http://www.w3.org/2000/svg" viewBox="0 0 140 14" width="140" height="14"><title>hero-productname2@sp</title><path d="M.88 3.59a12 12 0 0 1 2.24 1.48 14.26 14.26 0 0 0-.84 1.23A12.25 12.25 0 0 0 0 4.75zM0 11.88a18.48 18.48 0 0 0 2.7-4.47 4.8 4.8 0 0 0 1.06 1 23.17 23.17 0 0 1-2.21 3.92c.1.17.13.22.13.29a.18.18 0 0 1-.17.2c-.06 0-.1 0-.21-.1zM2.07.2a14 14 0 0 1 2.12 1.38 8.32 8.32 0 0 0-.87 1.15 10.17 10.17 0 0 0-2.1-1.4zM9.5 5.44h2.65v1.28H9.5V8.4h3.6v1.3H9.5V13H8V9.71H4.17V8.4H8V6.72H5V5.44h3v-1.5H4.4V2.69h2.37A14.45 14.45 0 0 0 5.24.8L6.4 0a14.32 14.32 0 0 1 1.7 2.14 8.87 8.87 0 0 0-.9.55h2A14.47 14.47 0 0 0 10.52 0L12 .55c.18.07.21.13.21.2s-.2.18-.45.18a17.67 17.67 0 0 1-1 1.77H13v1.24H9.5zm11.83.91c.32 0 .39.08.39.18a.22.22 0 0 1-.13.18l-.27.13v.85H27v1.15h-5.1a19.27 19.27 0 0 0 5 3c-.11.1-.58.52-.67.64s-.24.34-.32.46a19 19 0 0 1-4.59-3.42V13h-1.38V9.52a14.21 14.21 0 0 1-4.62 3.29 5.17 5.17 0 0 0-1.12-1.05 16.77 16.77 0 0 0 5.06-2.93h-5V7.69h5.7V6.26l-.06.07a18.21 18.21 0 0 1-1.44-1.67v2.46h-1.24V5A9.11 9.11 0 0 1 15 7.19a3.78 3.78 0 0 0-1-.9 11.11 11.11 0 0 0 3-2.56h-2.85v-1h3.07v-.88c-1 .11-1.57.14-2.1.17A3.54 3.54 0 0 0 14.57.8 14.8 14.8 0 0 0 19.7.14l.81.94a.39.39 0 0 1 .1.24c0 .1-.06.14-.15.14s-.14 0-.38-.14c-.31.08-.67.17-1.64.35v1h2.51v1h-2.09a8.19 8.19 0 0 0 2 1.65 6.58 6.58 0 0 0-.9.87zM23.06 1c.22 0 .35 0 .35.17s-.22.24-.36.29v4.31h-1.32V.87zm3.39-.68c.25 0 .38 0 .38.17s-.2.24-.39.28v5.14c0 .9-.42 1.29-2.37 1.22a4.56 4.56 0 0 0-.5-1.42 9 9 0 0 0 1 .07c.49 0 .5-.14.5-.42V.2zm11.97.9a2.84 2.84 0 0 0 1-.13l1.05.91a3.37 3.37 0 0 0-.41.81c-1.51 4-2.72 7.06-8.25 9.76a4.8 4.8 0 0 0-1.12-1.15c4.2-1.81 6.19-4 7.82-8.85h-9.17V1.22zm8.37.08c.14 0 .32 0 .32.18s-.15.22-.27.27V5.2a7.08 7.08 0 0 1-3.5 6.58 4 4 0 0 0-1.21-1c2.79-1.64 3.17-3.36 3.17-5.42V1.22zm3.36-.14c.15 0 .28 0 .28.17s-.14.18-.28.25v8a14.64 14.64 0 0 0 4.47-4.22 4.1 4.1 0 0 0 .77 1.3 20.71 20.71 0 0 1-5 4.61 4.45 4.45 0 0 0-.79.62l-1-.7c0-.28.06-.7.06-1.09v-9zm18.51 4.68v1.51h-12V5.84zm3.41-4.12a15.74 15.74 0 0 1 1.68 3.45 10.54 10.54 0 0 0-1.36.63 16.16 16.16 0 0 0-1.68-3.5zm10.34 0c.17.06.22.11.22.21s-.18.21-.28.22a13.53 13.53 0 0 1-8.71 10.34 5.76 5.76 0 0 0-1-1.23 11.72 11.72 0 0 0 8.21-10zM75.77.84a14.44 14.44 0 0 1 1.54 3.5A11.15 11.15 0 0 0 76 4.9a14.19 14.19 0 0 0-1.53-3.53zm10.75 7.55a25.83 25.83 0 0 1 8.81 3.08 13 13 0 0 0-.49 1.44 23.76 23.76 0 0 0-8.64-3.15zM87 .34a23.42 23.42 0 0 1 7.49 2 8.76 8.76 0 0 0-.29 1.51 22.16 22.16 0 0 0-7.38-2.16zm.73 4.08a18.11 18.11 0 0 1 6.12 1.95 7.17 7.17 0 0 0-.31 1.47 16.11 16.11 0 0 0-6.09-2.09zm13.18-.58a14.72 14.72 0 0 1 1.37 2.79 5.6 5.6 0 0 0-1.19.55 14.23 14.23 0 0 0-1.36-2.83zm8.38-.1c.14 0 .25.08.25.2s-.2.2-.27.21c-1 4.09-2.75 6.58-6.93 8.28a6.44 6.44 0 0 0-.85-1.06c2.06-.74 5.69-2.33 6.5-8zM104 3.12A11.51 11.51 0 0 1 105.23 6a6.77 6.77 0 0 0-1.19.48 13.16 13.16 0 0 0-1.29-2.83zm18.38-.61a2.29 2.29 0 0 0 1-.21l.81.74a4.93 4.93 0 0 0-.45.85c-1.18 2.7-1.95 4.47-3.82 6.39a12.17 12.17 0 0 1-4.16 2.8 5.79 5.79 0 0 0-1.2-1.08A12.09 12.09 0 0 0 122 3.84h-4.37a18.86 18.86 0 0 1-3.47 3.91 7.67 7.67 0 0 0-1.12-1 15.1 15.1 0 0 0 4.79-6.44l1.37.62c.07 0 .2.08.2.21s-.21.18-.34.18c-.14.29-.22.46-.62 1.19zm5.44.19V1.33h7.07a4.38 4.38 0 0 0 1-.1l.8.78a3.69 3.69 0 0 0-.53.91 20.88 20.88 0 0 1-1.89 3.74 25.46 25.46 0 0 1 4.56 4.34 12.72 12.72 0 0 0-1.13 1.22 18.22 18.22 0 0 0-4.26-4.41 15.47 15.47 0 0 1-5.88 4.59 3.67 3.67 0 0 0-1-1.27A12.18 12.18 0 0 0 132 7.24a12.88 12.88 0 0 0 2.45-4.54z" fill="#00947d"/></svg>