<svg xmlns="http://www.w3.org/2000/svg" viewBox="0 0 144.07 11.53" width="144.07" height="11.53"><path d="M7.66 9.25c0 .32 0 .66.62.66H9c.67 0 .86-.38 1-1.52a3.1 3.1 0 0 0 1.39.68c-.23 1.27-.48 2.16-1.57 2.16H8c-1.38 0-1.76-.59-1.76-1.59V7H3.67l1.18.3c.2 0 .29.08.29.2s-.19.19-.32.22a4.79 4.79 0 0 1-4 3.81A2.82 2.82 0 0 0 0 10.18 3.56 3.56 0 0 0 3.37 7H.23V5.66h11V7H7.66zM11 1.43v2.64H9.54V2.71H1.93v1.36H.43V1.43H5V.34L6.53.4c.11 0 .21 0 .21.13s-.12.17-.28.24v.66zM2.34 3.54h6.8v1.3h-6.8zm19.2 4.86a3.73 3.73 0 0 1-.62-1.75 7 7 0 0 0-.73.78 8.52 8.52 0 0 0-.63-.83 7.54 7.54 0 0 1-1.88 2.23A4 4 0 0 0 16.59 8a6 6 0 0 0 1.07-.84c-.42.06-1.52.14-2 .19v.58c0 .72-.12 1-1.13 1.1l.29.18c.11.07.18.12.18.22s-.13.11-.33.11a9.13 9.13 0 0 1-1.42 2 5.62 5.62 0 0 0-1.25-.89 7.49 7.49 0 0 0 1.59-2 6.84 6.84 0 0 0-.26-.65A4.14 4.14 0 0 0 14 8c.3 0 .34 0 .34-.32v-.23l-1.7.1c0 .07-.08.25-.2.25s-.12-.07-.16-.24l-.19-1h2.26v-.6l.83.12c.12-.1.18-.14.32-.28h-3.15v-.9h4.91l.37.41c-.56.47-.71.58-1.5 1.14.38 0 1-.08 1.77-.19a2.91 2.91 0 0 0-.14.84 4.55 4.55 0 0 0 .91-1.42 9.66 9.66 0 0 0-1.06-.91l.71-.87.7.54a11.71 11.71 0 0 0 .16-1.24h-1.44L17.7 2h-5.46V1h2.12V.35l1.58.07c.11 0 .2 0 .2.12s-.06.13-.28.26V1H18v1h1.18c0-.56 0-1-.06-1.62l1.38.04c.1 0 .23 0 .23.14s-.16.2-.3.28 0 .94 0 1.1h2A21.47 21.47 0 0 0 22 5.57c0 .14 0 1.38.23 1.38s.31-.89.32-1a3.58 3.58 0 0 0 .86.89c-.08.38-.43 1.9-1.28 1.9a11.63 11.63 0 0 1 1.17 1.82 4.77 4.77 0 0 0-1.25.77 14.49 14.49 0 0 0-1.56-2.48zm-4.11-6v2.1h-4.58V2.39zm-3.32.77v.53h2.09v-.55zm2.66 5.48a11.21 11.21 0 0 1 .78 2.35 8 8 0 0 0-1.33.3 9.48 9.48 0 0 0-.67-2.3zm2.6-.07a16 16 0 0 1 .95 2.27 6.85 6.85 0 0 0-1.36.4A13 13 0 0 0 18.13 9zm1-5.41A10.26 10.26 0 0 1 20 5.36a11.13 11.13 0 0 1 .85 1V5.6A21.83 21.83 0 0 1 21 3.14zM27.7 5.1a18.07 18.07 0 0 1 1.83 1.54 18.06 18.06 0 0 0 2.73-2.94h-7.58V2.18h8.56a2.63 2.63 0 0 0 .8-.17l1 1.2a4.47 4.47 0 0 0-.48.44 36.81 36.81 0 0 1-4 4.16 8 8 0 0 1 1.27 1.61l-.86.76c-.22.19-.35.32-.48.46a13.13 13.13 0 0 0-3.95-4.38zM37.79.86a13.22 13.22 0 0 1 3.14 2.06 11.1 11.1 0 0 0-1 1.39 12 12 0 0 0-3.15-2zm-.85 8.43a14.19 14.19 0 0 0 9-6.51 7.09 7.09 0 0 0 1 1.4 16.32 16.32 0 0 1-8.7 6.63c0 .12 0 .26-.2.26s-.16-.1-.22-.2zM49 9.82V8.25h7.2V3.78H49V2.21h8.9v8.2h-1.7v-.59zm7.24-9.6a9.42 9.42 0 0 1 1.2 1.19 3.23 3.23 0 0 0-.85.66 11.07 11.07 0 0 0-1.2-1.28zM58.09 0a13 13 0 0 1 1.26 1.31 3 3 0 0 0-.81.6A9.18 9.18 0 0 0 57.28.62zm12.58 5.08v1.7H60.32v-1.7zM81 7.59a4.35 4.35 0 0 0 .84-1.66h1.59a6.81 6.81 0 0 1-1.56 2.62l1.82 1.93h-2l-.86-.92a6 6 0 0 1-3.48 1.19c-2 0-3.27-1.1-3.27-2.79s1.38-2.48 2.39-3c-.67-.67-1.13-1.13-1.13-2 0-1.2 1.05-2.24 2.9-2.24s2.91 1.13 2.91 2.35-1.25 2-2.22 2.33zm-3.54-1.64c-.44.18-1.73.7-1.73 2 0 1.44 1.46 1.45 1.91 1.45a3.86 3.86 0 0 0 2.3-.78zm2.27-3c0-.47-.39-1.09-1.44-1.09s-1.48.6-1.48 1.07S77.48 4 78 4.49c1.49-.59 1.72-1.08 1.72-1.49zm8.81 2.15a18.07 18.07 0 0 1 1.83 1.54 18.06 18.06 0 0 0 2.73-2.95h-7.58V2.18h8.56a2.63 2.63 0 0 0 .8-.17l1 1.2a4.47 4.47 0 0 0-.48.44 36.81 36.81 0 0 1-4 4.16 8 8 0 0 1 1.27 1.61l-.86.76c-.22.19-.35.32-.48.46a13.13 13.13 0 0 0-3.95-4.38zM98.87.86A13.22 13.22 0 0 1 102 2.93a11.1 11.1 0 0 0-1 1.39 12 12 0 0 0-3.15-2zM98 9.29a14.19 14.19 0 0 0 9-6.51 7.05 7.05 0 0 0 1 1.4 16.33 16.33 0 0 1-8.7 6.63c0 .12 0 .26-.2.26s-.1-.07-.1-.19zm15.82-4.59a23.25 23.25 0 0 1 2.1 1.3 9.63 9.63 0 0 0 1-2.19h-3.13a13.82 13.82 0 0 1-2.65 2.83 8.09 8.09 0 0 0-1.27-1.09 10.9 10.9 0 0 0 4-5.13l1.61.52c.14 0 .21.07.21.14s-.21.16-.29.17c-.19.36-.37.68-.65 1.15h2.85a2.14 2.14 0 0 0 .8-.12l.74.65a4.81 4.81 0 0 0-.25.5A17.09 17.09 0 0 1 117.18 7a6.94 6.94 0 0 1 1.2 1.25c-.35.41-.85 1.12-1 1.36a10.11 10.11 0 0 0-1.16-1.33 12 12 0 0 1-4.61 3 7.09 7.09 0 0 0-1.1-1.38A10.39 10.39 0 0 0 115 7.23a22.36 22.36 0 0 0-2.16-1.43zm3.55-4.64a11.86 11.86 0 0 1 1.07 1.28 4.8 4.8 0 0 0-.9.62 11.21 11.21 0 0 0-1-1.26zm1.92-.06a14.62 14.62 0 0 1 1.1 1.32c-.13.11-.76.54-.88.64-.72-.95-.8-1.06-1.09-1.38zm5.29.9c.14 0 .24 0 .24.12s-.14.18-.24.23v5.8h-1.68V.83zm5.56-.22c.18 0 .24 0 .24.11s-.16.2-.24.24v3.89c0 4-2.34 5.46-4.65 6.43a3 3 0 0 0-1.05-1.35c3.92-1.28 4-3.79 4-5.11V.6zm4.73.18A13.22 13.22 0 0 1 138 2.93a11.1 11.1 0 0 0-1 1.39 12 12 0 0 0-3.15-2zM134 9.29a14.19 14.19 0 0 0 9-6.51 7.05 7.05 0 0 0 1 1.4 16.33 16.33 0 0 1-8.7 6.63c0 .12 0 .26-.2.26s-.16-.1-.22-.2z" fill="#231815"/></svg>