<svg id="レイヤー_1" xmlns="http://www.w3.org/2000/svg" width="492.3" height="83.8" viewBox="0 0 492.3 83.8"><style>.st0{fill:#231815}</style><title>hero-copy</title><path class="st0" d="M104.3 6.2c.2.1.3.2.3.6 0 .6-.8.5-1.1.4-.9 1.3-1.9 2.5-6 7.6.5-.1 2.8-.2 3.2-.3-.2-.8-.4-1.3-.6-1.9l2.9-1c-.4-.2-.6-.2-1-.4 5.1-4.5 7.1-9.3 7.5-10.5l3.8 1.1c.2.1.5.2.5.5 0 .6-.7.6-1.1.6-.2.4-.4.8-.7 1.3h7.1l1.6 1.7c-2.1 3-2.3 3.3-3.2 4.5h4.1v13.2h-3.7v-1.2h-8.7V27c0 1.5.5 1.6 1.8 1.6h6c1.5 0 2.4-.3 2.8-3.6 1.2.9 2 1.3 3.6 1.6-.8 5.4-3.5 5.4-5.9 5.4h-7.4c-1.8 0-4.4-.1-4.4-3.8V13.1l-.1.1c-.4-.3-1.2-1-2.5-1.6.6 1.5 1.4 4 1.8 6.5-.5.1-2.6.7-3.2 1-.1-.5-.1-.6-.2-1.6l-1.3.1v14.9h-3.8V18.1c-1.2.1-3.3.3-3.6.3-.3.5-.3.7-.7.7-.4 0-.5-.4-.5-.7l-.5-3.3h2.1c.7-.8 1.5-1.7 2.2-2.7-.5-.4-3.2-3.1-4.8-4.1l2.2-2.9c.4.2.6.4 1.2.8.5-.6 1.8-2.6 3.2-5.7l3.3 1.9c.3.1.4.2.4.5 0 .5-.6.4-1 .4-.6.8-2.9 4.4-3.4 5 .2.2.3.3 1.1 1 1.7-2.5 2.6-3.9 3.3-5.1l3.4 2zm-8.6 14.2c.2 0 .5.2.5.5 0 .5-.5.5-.7.6-.1 2.2-.5 5.3-1.2 7.6-1.2-.6-2.8-.9-3.5-1 1.4-5.3 1.5-7.4 1.5-8.5l3.4.8zm8.3-1.2c.2 2.8.5 4 1.2 6.5-1.5.3-2.3.6-3.4 1.1-.6-2.6-.8-4.2-1-7.2l3.2-.4zm9.4-8.9c1-1.4 1.2-1.6 2-3.1h-5.1c-1.2 1.7-1.7 2.5-2.2 3.1h5.3zm-1.3 8.5v-5h-2.7v5h2.7zm3.3-5v5h2.7v-5h-2.7zm14.6-2.5c2.2 2 3.6 3.7 5 5.6 1.3-3.1 1.8-5.2 2.2-7.2H126V5.9h6.8V.6l4.6.2c.3 0 .7.1.7.5s-.4.5-.7.6v4h6.3v3.8h-2.5c-.7 4-2.2 8-3.5 10.9 1 1.4 2.7 4.4 4.4 7.8-1.9.9-2.9 1.4-4.1 2.2-.9-2.6-1.3-3.3-2.5-5.9-2.9 4.4-5.3 6.5-7 7.9-1.2-1.4-2-1.8-3.6-2.4 2.8-2.1 5.5-4.7 8.1-9.3-2.1-3.1-4.3-5.5-6.2-7.3l3.2-2.3zm14.8 4.4c1.1 1.5 2.7 4 3.8 6.7-.7.3-1.3.6-4 2.1-.6-1.9-2.2-5-3.4-6.8l3.6-2zm13.9-6v3.9h-3.6v14.3c0 4.7-3 4.7-7.5 4.7 0-2.4-1.5-4.3-2-4.8 1.4.2 3.3.4 3.6.4 1.4 0 1.5-.6 1.5-2.2V13.6h-7.6V9.7h7.6v-9l4.4.3c.4 0 .7.1.7.4 0 .2-.1.3-.7.6v7.7h3.6zm10.9-6.4c.5.2.8.3.8.6s-.3.4-.9.5c-.6 1.8-2.3 6.9-2.3 14.5 0 2 .1 2.7.3 3.8.1-.3 1.2-2.6 1.7-3.6.6 1 1.4 1.8 2.4 2.5-.5.9-2.5 5.3-2.4 8.8l-4.2 1.2c-1.1-3.1-2.3-6.9-2.3-13.5 0-6.4 1-11.2 2.2-16.4l4.7 1.6zm9.2 16.3c-.7 1.5-.9 2.5-.9 3 0 1.7 1.6 2.1 5.4 2.1 2.5 0 5.6-.1 8.8-.9-.5 2.2-.5 4.2-.4 4.8-2.1.3-5.9.5-8.1.5-7 0-9.9-1.6-9.9-5 0-.7.1-2.6 1.3-5.2l3.8.7zM175 5.2c1 .1 2.2.2 4.1.2 3.2 0 6.9-.2 10.6-1.1.2 3.2.3 3.9.5 4.5-3.6.7-7.3 1-10.9 1-1.9 0-3.2-.1-4.2-.1V5.2zm21.6 24c1.6-.2 3.5-.6 5.5-.9V10.8c-1.3.6-2.6 1.2-4 1.8-.9-1.5-1.3-2.1-2.6-3.2 3.3-1.2 9.8-3.5 14.4-9.2l4 .6c.5.1.7.3.7.4 0 .2-.2.4-.4.5 1.7 1.9 7.5 5.5 14.1 7.1-1.7 1.8-2.1 2.4-2.6 3.5-2.5-.9-3.5-1.4-4.2-1.6v10.8c.8-.7 1.3-1.2 1.9-1.9l3 2.6c.1.1.3.3.3.6s-.2.5-.5.5h-.6c-2.1 1.8-4.7 3.7-5.1 4 2.6 1.2 4.8 1.7 7.7 2.1-1 .9-2.1 2.2-2.5 3.5-2.9-.6-5.8-1.9-6.8-2.4-3.1-1.4-4.5-2.5-6.1-4-.3 1.3-.5 2-.5 3.1-6.3 1.6-11.5 2.7-13.4 3-.2.4-.4.7-.7.7-.3 0-.5-.3-.6-.7l-1-3.4zm23.5-19.1c-4-1.9-6.3-3.8-8.6-5.8-3.3 3.2-7.3 5.4-7.9 5.8h6.1V6.6l4.4.2c.3 0 .6.2.6.5s-.3.6-.8.9v1.9h6.2zm-13.8 4.7h10.8v-1.6h-10.8v1.6zm10.8 2.7h-10.8v1.6h10.8v-1.6zm-10.8 9.9c2.4-.5 3.6-.8 6-1.3-1.5-1.4-2.5-2.4-3.4-3.9h-2.6v5.2zm7.2-5.2c1 1.2 1.8 1.9 3.1 2.9 1.5-1 3.4-2.4 3.9-2.9h-7zm16.1-3c.9-.7 3.8-2.8 7.7-8.1 2.9-4 3.8-5.1 5.8-5.1 2.3 0 3 .9 7.6 6.5 2.4 2.9 7.4 8.4 12.6 12-1.5 1.6-3 3.9-3.3 4.5-4.4-3.7-8.4-7.9-12.1-12.4-1.3-1.6-3.5-4.3-4.1-4.7-.2-.2-.5-.3-.8-.3-.5 0-.8.1-1.8 1.6-4.4 6.1-5 7-7.7 9.9l-3.9-3.9zm26.2-14c1 .8 2.7 2.5 3.7 3.6-.6.4-1.7 1.4-2.3 2-.8-.9-2.4-2.6-3.6-3.6l2.2-2zm3.3-2.7c.3.3 2.3 1.8 3.7 3.6-.9.6-1.6 1.3-2.3 2-1.1-1.4-2.3-2.5-3.7-3.7l2.3-1.9zm22.5-.5c.5.1.7.2.7.5 0 .1 0 .5-.7.5-.2.6-.8 3.4-1 4 3.5-.6 5-1.2 6.4-1.8l.6 4.6c-1.8.6-3.7 1-8.2 1.7-3.3 11.4-7.9 18.7-9.3 20.7-1.4-.9-2-1.2-4.5-2.3 1.9-2.3 6.3-9 8.9-17.8-2.1.2-3.6.2-6.9.3l-.4-4.9c.9.1 2 .1 3.4.1.7 0 2.6 0 5-.2.6-3.1.8-5 .9-6.8l5.1 1.4zm2.8 20.9c-.6.7-1.2 1.6-1.2 2.6 0 1.8 4.3 1.8 5.9 1.8 2.6 0 5.1-.4 7.6-1.2-.1.6-.2 1.4-.2 2.4 0 1.1.1 1.8.2 2.4-3.1.5-5.6.6-7.3.6-3.3 0-10.4-.3-10.4-5.5 0-1.4.4-2.6 1.5-4.7l3.9 1.6zm-1.5-9.4c3.5-.6 6.9-.6 7.8-.6 3 0 4.4.2 5.2.4-.2 1.4-.3 2.5-.3 4.6-1.1-.2-2.5-.6-5.1-.6-2.8 0-6.3.5-7.5.6v-4.4zm42.5-10.3c.2.1.4.3.4.6 0 .1-.1.4-.5.4-.1 0-.3 0-.6-.1-1.4 1.3-7.5 6.4-12.6 10.5-1.5 1.3-1.5 1.5-1.5 1.7 0 .4.3.6 1.4 1.3.6.3 9.9 6.2 14.5 11.9-1.6 1.4-2.1 2.1-3.5 4-3-4.4-11.5-10.9-15.1-13.3-3.2-2.1-3.5-2.3-3.5-3.6 0-.8.1-1.3 3-3.5 4.4-3.4 9.4-7.6 13.9-13l4.1 3.1zm11.7 3.4c1 .1 2 .3 3.8.3.9 0 1.8 0 3.8-.2.8-2.9 1-4.6 1.3-6.1l4.7 1.5c.5.1.6.3.6.5 0 .4-.5.4-.7.4-.1.5-.7 2.5-.8 2.9 2.2-.5 3.2-.9 4.4-1.3-.1 1.2 0 3.2.1 4.5-.9.2-2.7.8-5.9 1.3-.9 2.8-4.3 11.7-7.9 16.8-.9-.5-2.4-1.2-4.4-1.8 4.5-6.2 6.6-12.3 7.3-14.3-1.2.1-3.9.1-5.7.2l-.6-4.7zm22.3 9.1c-1.1 1.3-1.4 2.2-1.4 3.5 0 1.4.2 3 .4 3.7 2.1.9 5.4 2.8 7.5 4.5-1.2 1.3-2.5 3.2-2.7 3.6-3-2.3-3.6-2.7-4.7-3.3-.5 4.5-5 4.6-6.8 4.6-4.9 0-7.8-2.2-7.8-5.5 0-2.2 1.6-5.3 6.7-5.3 1.2 0 2.3.2 3 .3-.2-1.6-.2-2.5-.2-3 0-2.6 1.7-4.6 2.4-5.1l3.6 2zm-8.5 9.2c-1.1 0-2.7.5-2.7 1.8 0 1.6 2.2 1.8 3.1 1.8 2.7 0 2.9-1.5 2.9-2.7-1.6-.9-3.1-.9-3.3-.9zm6.6-18c5.4 1.8 7.4 3.1 9.1 4.5-.7.9-1.8 2.4-2.6 3.8-2.5-2.2-6-3.7-8.9-4.5l2.4-3.8zm37.3-2.3c-2.1 1.6-7.9 7-9.2 8.5.9-.3 2.4-.8 4.6-.8 5.2 0 9.9 3 9.9 9 0 7.6-7.4 10.8-13.1 10.8-5.4 0-8.5-2.5-8.5-5.9 0-3 2.7-5.2 6.3-5.2 2.7 0 6.6 1.4 7.4 5.5 3.1-1.4 3.1-4.1 3.1-4.8 0-2-1.2-5.5-6.3-5.5-6.1 0-9.6 3.7-14.5 8.8l-3.6-3.5c3.7-2.6 13.2-12 15.2-14.6-3 .7-8.3 1.2-10.6 1.3l-.8-4.7c2.6.1 12.2-.1 17.6-2.1l2.5 3.2zm-10.3 20.3c-1.3 0-1.9.8-1.9 1.6 0 1.4 1.9 2.2 3.6 2.2.9 0 1.7-.2 2.1-.3-.3-2.3-1.7-3.5-3.8-3.5zM8.6 69.4c-.5.5-3.6 3.2-3.6 4.9 0 1 .6 1.4.9 1.6 1.7.9 5.4 1 7.4 1 7.3 0 11.5-1.2 13.3-1.7.1 1.1.4 3.1 1 4.9-4.8 1.2-11.9 1.4-14.3 1.4C5.5 81.5.2 80 .2 74.9c0-1.6.5-4 5.2-8l3.2 2.5zm16.6-12.5c-3.6 1.5-8 4.3-11.2 7.2-.4-.5-2.3-2.6-2.7-3 .3-.2 3-2.2 3.7-2.9-1.8.1-4.4.3-7.5.3-2.6 0-3.7-.1-4.5-.2l-.3-4.9c3.2.6 9.3.6 10 .6 3.4 0 6.8-.1 10.1-.8l2.4 3.7zm23.1-4.6c.4.1.6.2.6.5 0 .5-.5.5-.6.5-.2.6-.8 3.4-1 4 3.5-.6 5-1.2 6.4-1.8l.6 4.6c-1.8.6-3.7 1-8.2 1.7-3.3 11.4-7.9 18.7-9.3 20.7-1.4-.9-2-1.2-4.5-2.3 1.9-2.3 6.3-9 8.9-17.8-2.1.2-3.6.2-6.9.3l-.4-4.7c.9.1 2 .1 3.4.1.7 0 2.6 0 5-.2.6-3.1.8-5 .9-6.8l5.1 1.2zm2.8 20.9c-.6.7-1.2 1.6-1.2 2.6 0 1.8 4.3 1.8 5.9 1.8 2.6 0 5.1-.4 7.6-1.2-.1.6-.2 1.4-.2 2.4 0 1.1.1 1.8.2 2.4-3.1.5-5.6.6-7.3.6-3.3 0-10.4-.3-10.4-5.5 0-1.4.4-2.6 1.5-4.7l3.9 1.6zm-1.5-9.4c3.5-.6 6.9-.6 7.8-.6 3 0 4.4.2 5.2.4-.2 1.4-.3 2.5-.3 4.6-1.1-.2-2.5-.6-5.1-.6-2.8 0-6.3.5-7.5.6v-4.4zm8.5-9.7c1.2 1.1 2.4 2.4 3.3 3.8-1 .6-1.4.8-2.3 1.6-1-1.3-2.1-2.7-3.2-3.8l2.2-1.6zm3.5-2.3c1 .9 2.7 2.7 3.3 3.7-1.1.8-1.2.9-2.1 1.6-.2-.2-1.7-2.4-3.3-3.7l2.1-1.6zm20.9 6.8c-.1.1-1.3 1.5-1.8 2.6 3.2-2.1 6-2.5 7.8-2.5 3.8 0 9.8 2.1 9.8 9.9 0 10.6-10.7 12.1-13.3 12.5-.7-2-1.4-3-2.4-4.3 4.7-.3 11.2-1.8 11.2-8 0-4-2.7-5.9-5.7-5.9-4 0-7.6 2.7-9.1 4.1v15.2l-5 .4c.2-3 .2-3.8.3-10.5-.6.8-3.1 4.3-3.6 5l-3.4-3.3c3-3.1 5.8-6.9 7.3-9.7v-1.5c-2.3.9-4.4 1.5-5.6 1.8l-.8-5c2.9-.2 5.5-.8 6.6-1.2 0-3.3 0-3.7-.2-7.1l4.6.3c.6 0 1 .1 1 .5s-.4.5-.8.5c-.1.8-.2 1.5-.3 4.2.3-.1.5-.2 1.2-.6l2.2 2.6zm30.1-6c.6.1.9.2.9.6 0 .4-.5.5-.8.6-1.5 4.5-1.5 8.3-1.5 9 0 1.9.2 2.8.4 3.8.7-1.5 1.3-2.9 2.3-4.6 1.2 1.1 1.7 1.6 3 2.5-1.8 2.8-3.2 5.9-3.7 9.1l-4.2.5c-1.5-4-2.4-8.2-2.4-12.5 0-2.9.3-5.2 1.1-8.8.2-.8.2-.9.2-1.4l4.7 1.2zm16.1-1.2c.5 0 .8.1.8.5s-.3.5-.6.5c0 1.2.4 6.2.5 7.2.1 1 .1 2.5.1 4.3 0 4.4-.2 13.5-10.7 19.3-1.4-1.8-2.4-2.7-3.8-3.5 6.8-3.1 9.6-8.1 9.6-16 0-2.6-.4-9.1-1.3-12.5l5.4.2zm23.9 26.2c8.2-1.6 10.4-7.7 10.4-11.4 0-4-2.6-8.8-8.9-9.1-1.2 13-6.2 22.3-9.8 22.3-2.7 0-7.4-4.4-7.4-10.6 0-7.4 6.7-16 16.7-16 7.4 0 14.1 5 14.1 13.4 0 5.2-2.3 8.6-4.1 10.6-2.4 2.7-5.3 3.9-7.8 5-1.2-1.8-1.9-2.7-3.2-4.2zm-11.3-9.1c0 3 1.6 5.3 2.6 5.3s2-2.4 2.5-3.8c2.5-6 2.5-10.5 2.6-12.1-4.7 1.5-7.7 6.9-7.7 10.6zm58.6-8.2c.2.1.3.3.3.4 0 .3-.3.4-.8.4-.1 0-.4 0-.6-.1-7.5 4.6-15.3 6.3-18.4 6.7v5.7c0 3.2.5 3.4 6.5 3.4 1.1 0 8 0 13.7-.7-.5 1.7-.5 2.4-.7 4.7-.9.1-1.8.1-7.2.1-12.7 0-14.1 0-16-2-.8-.8-1.3-2-1.3-4.6V51.8l5.1.3c.3 0 .7.1.7.4 0 .3-.3.5-.8.7v10.3c5.8-.9 12.6-3.9 15.5-6.4l4 3.2zm10.6 10.6c8 1.4 16.1 4 22.1 7.7-.3 1-1.2 3.3-1.6 4.6-4.8-3.1-11.9-6.1-21.4-7.8l.9-4.5zm.8-19.8c6.5.6 12.8 2.2 18.6 5-.3 1.2-.7 3.4-.9 4.8-4.2-2.5-11.1-4.5-18.2-5.4l.5-4.4zm2 10.1c5.2.6 12.1 2.9 15.2 4.8-.4 1.4-.7 2.7-.9 4.7-4-2.5-9.9-4.6-15.1-5.2l.8-4.3zm29.3-6.4c1.7 2.4 3.2 5.9 4 8.2-.8.3-2.9 1.3-4.3 2-1.8-4.9-3.4-7.3-4.1-8.4l4.4-1.8zm25.4.4c.5.1.6.3.6.5 0 .5-.5.6-.7.6-2 8.3-5 14.2-10.2 18.9-1.2 1-5.1 4.6-11.2 6.9-.9-1.6-1.7-2.5-3.2-3.9 14.4-4.6 18.8-16.7 19.7-24.5l5 1.5zm-16.3-2.5c1.4 2.4 2.9 5.6 3.6 8.4-1.8.7-2.1.8-4.3 1.7-.7-2.8-2.2-6.2-3.6-8.5l4.3-1.6zm38.3-1.1c.2.1.7.1.7.6 0 .3-.4.5-.8.6-.4.8-.6 1.3-1 2.2 5-.7 6.7-1.3 7.9-1.7v4.5c-3.3.6-6.8 1.2-10.2 1.5-.4.8-1.2 2.1-1.8 3.1 1.5-.8 3-.8 3.3-.8.6 0 3.7.1 5.3 3.2 2.5-1.1 5.9-2.7 7.4-3.5l1.7 4.7c-3.1.9-5.7 1.8-8.2 2.9.1 1.4.1 2.6.1 3.5 0 1.5-.1 2.6-.1 3.5-.2 0-3.1-.1-4.7 0 .2-1.8.2-2.1.2-4.8-3.8 2.1-5.2 3.6-5.2 5.1 0 1.6 1.8 2.1 5.9 2.1 1.3 0 5.3 0 10.9-1.6-.5 1.8-.6 3.5-.6 4.8-4.3.9-8.6.9-9.7.9-2 0-11.1 0-11.1-6 0-4.8 7.2-8.6 9.3-9.7-.3-.8-1-1.9-2.9-1.9-2.7 0-5.3 2.1-8.6 7.5l-4.1-2.4c1.5-1.5 5.1-5.9 7.7-10.2-1.7.1-2.8.1-5.6.1v-4.4c.8.1 2.9.3 5.6.3 1.3 0 1.8 0 2.1-.1.2-.4 1.4-2.7 2-4.7l4.5.7zm21.7 18.9c.2 0 .6.2.6.5 0 .5-.5.6-.9.7-.5 4.9-.6 5.4-1.4 8.7-1-.3-2.5-.7-3.8-.9 1.3-3.9 1.4-5.4 1.6-9.6l3.9.6zM320 56c.4.2.6.4.6.6 0 .5-.3.4-1.3.4-1.4 2.8-4.6 7.4-5 7.9 1.8-.2 2.4-.3 2.9-.3-.3-1-.5-1.5-.7-2.1l3.3-1c.7 1.9 1 3 1.2 3.9 3.5-2.4 4.7-6.3 4.9-9.6H321v-3.5h17.3c0 13.2-.7 15.8-7.5 15.7-.1-1.3-.6-2.5-1.3-4 .5.1 1 .1 1.8.1 1.4 0 2.1-.2 2.4-2 .5-3 .5-5.1.5-6.2H330c-.4 6.1-2.7 10-6.3 12.7-.3-.5-1.2-1.7-2.3-2.4.3 1.1.4 2 .5 2.8-.4.1-2.3.5-3.6 1.1-.1-1-.1-1.4-.3-2.2-.3 0-.7.1-1.7.2V83h-3.8V68.4c-1 .1-3 .3-4.1.4-.1.2-.2.5-.3.6-.1.1-.1.3-.3.3-.3 0-.5-.5-.5-.8l-.6-3.6c1.3 0 2.3-.1 3.6-.1.2-.3.6-.8 1.5-2.1-.7-.7-3.4-3.1-5-4.2l2-2.9c.6.4.9.6 1.3.9 1.3-2.3 2.2-4.1 2.9-6.2l3.2 1.7c.3.2.5.3.5.5 0 .5-.7.5-1.1.4-.9 1.9-2.3 4.6-3 5.7.3.2.5.5 1.1 1 2-3.3 2.6-5.1 3-6l3.3 2zm.7 14.2c.1 4.4.7 6.6.9 7.7-.7.1-3.1.6-3.6.7-.6-3.4-.8-5.3-.8-8.2l3.5-.2zm5.6 11.3v1.3h-3.9V68.7h15.8v14.1h-3.9v-1.3h-8zm8.1-3.5v-5.8h-8.1V78h8.1zm25.8-27c.5 0 .9.1.9.5 0 .2-.2.4-.4.6 1.3 1.7 5.8 7.6 14.4 10.8-1.3 1.5-2.1 3.4-2.3 3.8-2.8-1.3-9.3-4.4-15-12-4 5.5-9 9.5-13.9 12.1-.4-1-1.1-2-3.1-3.5 3.1-1.5 10.5-4.9 14.4-12.6l5 .3zm-5.9 12.8c.6 0 .9.2.9.5s-.3.5-.7.7c0 4.4-.1 7.6-1.1 10.4-.8 2.2-3.1 6-7.1 8.2-.9-1.4-1.6-2.1-3.2-3.1 5.4-2.3 6.5-6.3 6.7-7.6.4-2.2.4-5.4.3-9.2l4.2.1zm11.5 0c.5 0 .9.1.9.4 0 .2-.2.4-.5.6V83h-4.3V63.5l3.9.3zm22.9-11.4c.6.1.8.1.8.5 0 .3-.5.5-.8.6-1 5.4-1 13.8-1 15.7 0 6 .6 8.3 3.8 8.3 5.9 0 11.2-7.1 12.6-10.1 1.8 2.4 2.8 3.3 3.5 3.9-5.7 9.1-12.5 11.2-16.6 11.2-7.9 0-8.2-7.5-8.2-14.5 0-2.2.4-11.9.4-13.9 0-1.4 0-1.7-.1-2.4l5.6.7zm41.9-.4c.3.1.7.1.7.5s-.4.5-.6.6c-.1.8-.1 1.4-.2 2.4.9 0 2.4-.1 4.8-.1 2 0 3.2 0 5.2.2V60c-1.7-.1-4.5-.4-10.1-.2v4.5c.9-.1 5-.4 9.2-1.6v4.5c-2.9.6-6.1.9-9.1 1.1 0 .6.1 3.2.1 3.7 4.9.8 10 3.6 11.6 4.7-1.3 1.3-2.1 2.3-3.2 3.8-1.8-1.5-4.7-3.5-8.1-4.6.1 2.2.2 6.2-7.1 6.2-6.1 0-8.7-3-8.7-5.5 0-4.4 6.1-5.4 8.9-5.4.4 0 1.5.1 2 .1v-2.8c-4.1.1-10 .2-10-3 0-1.2.6-2.2 2.5-4.1l3.3.9c-.4.4-1 1.1-1 1.3 0 .9 1.3.9 3 .9h2v-4.6c-4.9.2-8.4.6-11.3 1v-4.7c1.8-.2 9.7-.5 11.3-.6-.1-3.2-.1-3.6-.2-4.5l5 .9zm-6.7 22.8c-1.1 0-4.1.2-4.1 1.9 0 1.5 2.6 1.6 3.2 1.6 2.1 0 3.2-.8 3-3.2-.5-.2-1.1-.3-2.1-.3zm42-23.2c.6.1.8.1.8.4 0 .3-.2.4-.6.6-.1.6-.1 1.2-.2 2.8 10.2-.4 11.4-.5 11.8-.5-.1.6-.1.7-.1 1.7 0 .9 0 2.2.1 3.1-6.6-.3-10.2-.2-11.8-.1 0 .6-.1 2.9 0 4.5 1.8 2.4 1.8 5.9 1.8 6.3 0 3.7-1.9 9.9-8.4 13.4-1-1-2-1.8-4.2-3.1 5.5-2.2 6.6-4.9 7-6-.9.8-2.1 1.2-3.3 1.2-4.3 0-5-4.3-5-6.6 0-4.3 2.4-7.1 6.1-7.1.7 0 1.1.1 1.5.2v-2.7c-7.8.5-11.9 1.2-14.3 1.7l-.3-5c1.2 0 2.5-.1 14.5-.8-.2-2.8-.3-3.7-.5-4.6l5.1.6zm-8.1 17.5c0 2.9 1.6 3.2 2.2 3.2 1.4 0 2.3-1.7 2.3-3.7 0-.7-.2-2.7-2.2-2.7-1.2.1-2.3 1.1-2.3 3.2zm34 8.4c0 2.6-2.2 4.7-4.7 4.7-2.6 0-4.7-2.1-4.7-4.7 0-2.7 2.1-4.8 4.7-4.8s4.7 2.1 4.7 4.8zm-7.5 0c0 1.5 1.3 2.8 2.8 2.8s2.8-1.3 2.8-2.8c0-1.5-1.2-2.8-2.8-2.8-1.6 0-2.8 1.3-2.8 2.8z"/></svg>