<svg id="レイヤー_1" xmlns="http://www.w3.org/2000/svg" viewBox="0 0 101.7 54.8"><style>.st0{fill:none;stroke:#231815;stroke-miterlimit:10}.st1{fill:#231815}</style><title>hero-productname2</title><path class="st0" d="M66.5 41.3L53.5 54 40.7 41.1"/><path class="st1" d="M35.4 17.4c.2 0 .6 0 .9-.1l1.3 1.1c-.2.3-.3.4-.8 1.5-1.5 3.3-2.7 5.3-6.9 7.5-.3-.5-.8-.9-1.4-1.4 1.8-.8 5-2.3 6.6-7H27v-1.6h8.4zm-.1-2.1c.4.3 1 .9 1.3 1.3-.4.3-.5.3-1 .7-.1-.2-.6-.8-1.2-1.4l.9-.6zm2.2-.1c.4.4.9 1 1.2 1.4-.5.3-.6.4-.9.6-.4-.6-.7-1-1.2-1.5l.9-.5zm6.2 1.2c.2 0 .3 0 .3.1 0 .2-.2.2-.3.3v7.9c2-.6 5.2-2.4 7.1-4.9.3.8.4 1 .8 1.8-2.8 2.9-4.4 3.7-8.6 5.6L41.8 26c0-.2.1-.6.1-.8v-8.9l1.8.1zm11.3-.2c1.9 1 2.8 1.7 3.4 2.2-.2.4-.4.6-1.1 1.6-1.5-1.3-2.8-1.9-3.4-2.2l1.1-1.6zm-.9 9.2c3.1-.7 7.1-2.7 9.8-7.1.5.7.6 1 1.1 1.5-.8 1.3-3.3 5-9.4 7.2 0 .1 0 .3-.2.3-.1 0-.2-.1-.2-.2l-1.1-1.7zm17.9-6c1.8.9 3.6 2.1 4.7 3.1-.5.5-.7.8-1.2 1.4-1.6-1.5-3.2-2.4-4.1-2.9v6.3h-1.8V16l1.8.1c.1 0 .2 0 .2.1s-.2.2-.2.2v3.9l.6-.9zm3-2.3c.5.4.9.8 1.4 1.2-.2.2-.7.6-.9.8-.3-.4-.9-.9-1.4-1.3l.9-.7zm1.3-1c.3.2 1 .9 1.3 1.3-.2.2-.3.2-.8.7-.6-.6-.8-.8-1.4-1.3l.9-.7zm-55.5-4.3v.6h-1.6V.7h11.4v11.7H29v-.6h-8.2zm8.2-1.5V2.1h-8.1v8.3l8.1-.1zm-3.4-5h2.3v1.2h-.7c.4.5.7.8.9 1.2-.1.1-.5.3-.7.5h1.1v1.3h-7.3V8.3H24V6.6h-2.1V5.3H24V4.1h-2.6V2.9h7v1.3h-2.8v1.1zm1.1 1.3h-1.1v1.7h1.2c-.1-.1-.4-.7-.9-1.1l.8-.6zm12.2-.2V5.3l1.6.1c.2 0 .3.1.3.2s-.1.2-.3.2v.6h3.2v1.3h-3.2v.9h2.4v1.3h-2.4V11h4v1.3h-9.9V11h4.3V9.9h-2.6V8.7h2.6v-1h-2.1c-.3.5-.5.7-.7 1-.3-.3-.5-.4-1.3-.7-.2 2.6-1 4.1-1.4 4.7-.5-.4-1.2-.6-1.4-.7 1.3-1.4 1.3-3.8 1.3-5V4h2.9c-.2-.4-.4-.7-.7-1.2l.7-.2h-3V1.2h4.6v-1l1.7.1c.1 0 .3 0 .3.1s-.1.2-.2.2v.6h4.7v1.3H42h.3c.1 0 .2.1.2.2s-.2.2-.3.2c-.2.5-.4.9-.5 1h2.8v1.3h-8l1.4.5c.2.1.3.1.3.2s-.1.2-.4.2c-.1.2-.1.3-.1.4l1.2-.1zm-4.1-1.2v2.7c.5-.5 1.3-1.7 1.5-2.6h-1.5v-.1zm2.4-2.7c.3.4.5.9.7 1.2l-.6.2h2.4c.1-.1.4-.8.7-1.4h-3.2zm12.9 10h-1.6V8.3c-.8 1.4-1.3 2-1.5 2.3-.5-.5-.8-.7-1.5-1 1.2-1.1 2.2-2.5 2.7-4H46V4h2.5V2.7c-.2.1-1.4.3-1.6.3-.1-.2-.4-.9-.8-1.5.7-.1 3-.2 4.9-1.3l1.1 1.2c.1.1.1.1.1.2s-.1.1-.1.1c-.1 0-.1 0-.4-.1-.7.3-1 .4-1.5.6V4h2v1.6h-1.8c.1.2.8 1.5 2.1 2.6-.6.4-.7.5-1.2 1.2-.7-.7-1.1-1.4-1.2-1.5v4.6zm4.1-1.4v1.1h-1.7V1.5h5.3V12h-1.7v-.9h-1.9zm2-1.5V3.1h-2v6.5h2zm6.7 2.9h-1.5V7.9c-.5 1.3-.8 1.8-1 2.2-.4-.5-.9-.8-1.3-1 1.1-1.5 1.8-3.2 2.3-4.9h-1.8V2.7h1.8V.3l1.6.1c.1 0 .3 0 .3.2 0 .1-.1.2-.4.3v1.8h1.3v1.5h-1.3v.3c.3.8 1 1.9 1.9 3-.4.4-.8.8-1.1 1.3-.4-.8-.5-1.1-.8-1.8v5.5zm6.5-9.6V.3l1.6.1c.2 0 .3 0 .3.2 0 .1-.1.2-.4.3V3h.8v1.5h-.8v8h-1.5v-.8h-2.5v.8h-1.5v-8h-.7V2.9h.7V.3l1.6.1c.1 0 .3 0 .3.2 0 .1-.1.2-.4.3V3l2.5-.1zm-2.5 1.6v2h2.5v-2h-2.5zm0 3.4v2.3h2.5V7.9h-2.5zm10.5-1.7h.8c-.1-.2-.4-.6-.8-.9 1.3-.5 2.2-1.3 2.3-1.4h-1.8V2.8H80c-.4-.2-.7-.4-.9-.5l.6-.5h-1.4V.6h5.8l.7.7c-.7.5-1.8 1.2-2.2 1.4h2.3l.6.6c-.8 1.2-.9 1.4-1.5 2.1-.4-.4-.6-.5-1.1-.8.4-.4.6-.5.8-.8h-1.1v1.3c0 .8-.3.9-1.3 1h4.1v5.2c0 .5-.1 1.2-2.1 1.1-.1-.6-.3-1.2-.3-1.2h-2v.4h-1.3V9.2c-.3-.3-.4-.5-.6-.6v3.9h-1.5V7.9c-.4.3-.5.5-.6.6-.2-.3-.3-.6-.6-1.3v5.2h-1.5v-4c-.3 1.1-.5 1.5-.6 1.8-.2-.3-1-1-1.3-1.3.4-.6 1.2-2.1 1.9-4.8h-1.5V2.7H75V.3l1.6.1c.1 0 .2 0 .2.1 0 .2-.2.2-.3.3v1.9h1.3v1.4h-1.3v.4c.4.9.8 1.5 1.2 2.2v-.5h-.3zm2.9 0c0-.4-.1-.7-.3-1.1-.4.3-.9.7-1.5 1.1h1.8zm-1.5 2.1c.4-.2.7-.5 1-.9h-1v.9zm4.8.4h-1.5c-.3 0-.7 0-.7-.5v-.8h-1.1l.5.2c.1 0 .2.1.2.2s-.2.1-.3.1c-.3.5-.6.8-.9 1.1H83v2.1c.5 0 .6.1.6-.2V8.7zM81 3.9c-.1.2-.3.5-.9 1h.5c.4.1.4 0 .4-.2v-.8zm-.7-2.1c.4.3.8.6.9.6.1-.1.6-.3.9-.6h-1.8zm1.6 8.1h-1.2v.5h1.2v-.5zm.7-2.5v.3c0 .3.1.3.3.3h.8v-.6h-1.1z"/></svg>