<svg class="kodawari_click" xmlns="http://www.w3.org/2000/svg" width="68" height="36" viewBox="0 0 68 36"><path class="click_frame" fill="#fff" stroke="#00836f" stroke-miterlimit="10" d="M66.7 1.9H1.3v22.7h29.5l3.2 9.5 3.2-9.5h29.5z"/><path d="M22.6 11.5l-.3-.9c-.1-.3-.3-.5-.5-.7-.2-.2-.5-.4-.7-.5-.3-.1-.6-.2-1-.2-.5 0-1 .1-1.4.4-.4.2-.7.6-1 1-.2.4-.4.9-.6 1.4-.1.5-.2 1.1-.2 1.6s.1 1.1.2 1.6.3 1 .6 1.4c.2.4.6.7 1 1 .3.3.8.4 1.3.4.4 0 .8-.1 1.1-.2.3-.2.6-.4.8-.6.2-.3.4-.6.5-1 .1-.4.2-.8.2-1.2h1.8c0 .7-.2 1.3-.4 1.9-.2.6-.5 1.1-.9 1.5-.4.4-.8.7-1.4 1-.5.2-1.1.3-1.7.3-.8 0-1.5-.2-2.1-.5s-1.1-.7-1.5-1.3c-.4-.5-.7-1.2-1-1.9s-.3-1.5-.3-2.3c0-.8.1-1.6.3-2.3s.5-1.4 1-1.9c.4-.5.9-1 1.5-1.3.6-.3 1.3-.5 2.1-.5.6 0 1.1.1 1.6.3.5.2 1 .4 1.3.8s.7.7.9 1.2c.2.5.4 1 .4 1.6h-1.6zm4.1-3.6h1.6v11.4h-1.6V7.9zm5.2 0h1.6v1.7h-1.6V7.9zm0 3.2h1.6v8.3h-1.6v-8.3zm9.6 2.7c-.1-.5-.3-.9-.6-1.2-.3-.3-.7-.4-1.1-.4-.2 0-.4 0-.7.1-.2.1-.5.2-.7.4-.2.2-.4.5-.5.9-.1.4-.2.9-.2 1.5 0 .3 0 .7.1 1l.3.9c.2.3.4.5.6.6.2.2.6.2.9.2.5 0 .9-.2 1.2-.5.3-.3.5-.8.6-1.4H43c-.2 1.1-.5 1.9-1.1 2.5s-1.4.9-2.3.9c-.6 0-1.1-.1-1.5-.3-.4-.2-.8-.5-1.1-.9-.3-.4-.5-.8-.7-1.4-.2-.5-.2-1.1-.2-1.7 0-.6.1-1.2.2-1.7s.4-1 .7-1.4c.3-.4.7-.7 1.1-.9.5-.2 1-.3 1.6-.3.4 0 .8.1 1.2.2.4.1.7.3 1 .6.3.2.5.6.7.9s.3.8.3 1.3h-1.4zm3.9-5.9H47v6.5l3-3.3h2l-2.9 3 3.1 5.2h-2l-2.3-4-1 1.1v3h-1.6V7.9z" class="click_text" fill="#00836f"/></svg>