<?xml version="1.0" encoding="utf-8"?>
<!-- Generator: Adobe Illustrator 21.1.0, SVG Export Plug-In . SVG Version: 6.00 Build 0)  -->
<svg version="1.1" id="kodawari" xmlns="http://www.w3.org/2000/svg" xmlns:xlink="http://www.w3.org/1999/xlink" x="0px" y="0px"
	 viewBox="0 0 132 132" style="enable-background:new 0 0 132 132;" width="132px" height="132px" xml:space="preserve">
<style type="text/css">
	.st0{fill:#D6C400;}
	.st1{fill:#FFFFFF;}
</style>
<path class="st0" d="M130.6,66.6c-0.7,35.8-29.1,64.9-64.9,64.9S0.7,102.5,0.7,66.6S29.8,2.3,65.7,1.7
	C101.9,1.1,131.3,29.5,130.6,66.6z"/>
<g>
	<path class="st1" d="M30.2,50.8c1.5,0.6,3.9,2,4.6,2.7c-0.7,0.8-1.6,2.1-1.9,2.6c-1.7-1.4-3.3-2.2-4.5-2.7L30.2,50.8z M29.6,61.3
		c6.2-2.1,11.2-6.6,13.8-10.4c0.6,1.4,1.9,2.5,2,2.6c-2.5,3.7-8.3,8.5-13.5,10.5c0,0.1,0,0.5-0.3,0.5c-0.1,0-0.3-0.2-0.3-0.3
		L29.6,61.3z M32.2,46.4c2,0.8,3.2,1.3,4.9,2.3c-0.4,0.5-1.6,2.1-1.9,2.6c-1.5-1-3.1-1.8-4.8-2.5L32.2,46.4z"/>
	<path class="st1" d="M57.2,60.6h5.3v2.6H49.2v-2.6h5.2v-6.2h-3.7v-2.7h10.5v2.7h-3.9V60.6z"/>
	<path class="st1" d="M80.5,47.8c0.2,0,1,0,1.4-0.1l2.3,1.8c-0.2,0.3-0.5,0.5-0.6,1c-2,4.8-2.4,5.7-3.8,7.7C78,60.4,76,62,72.4,64.1
		c-0.3-0.5-0.8-1.1-2.4-2.4c4.5-2.1,7.5-4.1,9.9-11H68v-2.9H80.5z"/>
	<path class="st1" d="M95.3,61.2c4.3-0.8,5.5-4.1,5.5-6.1c0-1.6-0.8-4.5-4.5-4.8c-0.6,7.2-3.6,12.5-5.7,12.5c-1.5,0-4.4-2.6-4.4-6.2
		c0-4.2,3.8-9.1,9.6-9.1c4.3,0,8,2.9,8,7.6c0,0.9-0.1,3.4-2.3,6.1c-1.2,1.4-2.6,2.1-4.3,2.8C96.7,62.8,96.3,62.3,95.3,61.2z
		 M89.2,56.4c0,1.5,0.8,2.6,1.3,2.6c0.5,0,0.8-0.9,1.1-1.4c0.8-1.9,1.5-4.2,1.5-6.8C90.8,51.7,89.2,54.6,89.2,56.4z"/>
	<path class="st1" d="M33.6,82.2c-1.1,0.9-1.8,2-1.8,2.5c0,0.3,0.3,0.5,0.4,0.6c0.7,0.4,3,0.4,3.9,0.4c4.1,0,6.6-0.7,7.6-1
		c0.1,1.1,0.4,2.5,0.6,3.3c-2.7,0.7-6.8,0.8-8.3,0.8c-4.5,0-7.4-0.8-7.4-3.8c0-1.7,1.4-3.2,2.9-4.5L33.6,82.2z M43,75.3
		c-2.4,1-4.2,2.1-6.2,3.9c0,0-0.2-0.2-1.7-2c0.5-0.4,1-0.7,1.4-1.2c-0.5,0-1.7,0.1-3.5,0.1c-1.5,0-2.2-0.1-2.6-0.1l-0.2-3.2
		c1.6,0.3,4.2,0.4,5.9,0.4c3.1,0,4.7-0.3,5.3-0.4L43,75.3z"/>
	<path class="st1" d="M56.3,72.6c0.2,0,0.3,0.1,0.3,0.3c0,0.2-0.3,0.3-0.4,0.3c-0.1,0.3-0.4,1.7-0.5,2c1-0.2,1.9-0.4,3.2-1l0.3,3.1
		c-1.6,0.5-2.6,0.6-4.4,0.9c-1.3,4-2.9,7.9-5.1,11.5c-1.2-0.7-1.9-1.1-2.9-1.5c2.9-4,4.2-7.6,4.8-9.5c-0.6,0-3,0.1-3.5,0.1l-0.3-3.2
		c0.8,0.1,1.5,0.1,2.2,0.1s1.6,0,2.4-0.1c0.4-2,0.5-3.1,0.5-3.8L56.3,72.6z M57.7,84.4c-0.3,0.4-0.5,0.7-0.5,1.1
		c0,0.6,0.6,0.9,2.8,0.9c0.5,0,2.5,0,4.3-0.8c0,0.4,0,0.6,0,1.1c0,1.3,0.1,1.8,0.1,2.2c-0.5,0.1-1.7,0.3-3.6,0.3
		c-2.4,0-6.4-0.1-6.4-3.2c0-0.7,0.2-1.3,0.7-2.6L57.7,84.4z M56.8,78.8c1-0.2,2.4-0.4,4-0.4c1.5,0,2.7,0.2,3.2,0.3
		c-0.1,1.1-0.2,1.9-0.2,3.1c-0.4-0.1-1.2-0.3-3-0.3c-0.3,0-2.3,0-4,0.3V78.8z M61.3,73.5c0.7,0.7,1.3,1.4,1.9,2.2
		c-0.6,0.4-0.9,0.5-1.5,1.1c-1.1-1.5-1.5-1.9-1.7-2.2L61.3,73.5z M63.2,72.1c0.6,0.5,1.5,1.5,1.8,2.1c-0.6,0.5-0.7,0.5-1.3,1
		c-0.7-0.9-1.1-1.4-1.8-2.1L63.2,72.1z"/>
	<path class="st1" d="M75.3,76.1c-0.3,0.3-0.5,0.6-0.7,1c1.5-0.9,2.8-1.1,3.9-1.1c2.8,0,5.6,1.8,5.6,5.7c0,6.1-6,7-7.4,7.2
		c-0.6-1.6-0.9-2.1-1.6-2.8c2.1-0.1,5.9-0.8,5.9-4.1c0-2-1.4-3-3-3c-1.7,0-3.5,1-4.8,2.1v8.4l-3.2,0.2c0.2-2.5,0.3-4.8,0.3-5.4
		c-0.6,0.8-1.6,2.2-1.7,2.4l-2.2-2.2c2.6-2.7,3.7-4.7,4-5.1v-0.6c-0.5,0.3-1.8,0.7-3,1L67,76.4c1.3-0.1,2.7-0.4,3.6-0.6
		c0-0.6-0.1-3.4-0.1-3.9l3,0.2c0.4,0,0.6,0,0.6,0.3c0,0.2-0.2,0.2-0.4,0.3c-0.1,1.2-0.2,1.7-0.2,2.1c0.1-0.1,0.2-0.1,0.4-0.2
		L75.3,76.1z"/>
	<path class="st1" d="M92.3,72.7c0.4,0.1,0.5,0.1,0.5,0.4c0,0.3-0.3,0.3-0.5,0.3c-0.6,1.6-0.9,3.3-0.9,5c0,0.9,0.1,1.3,0.2,1.7
		c0.2-0.3,0.2-0.5,0.5-1c0.3-0.7,0.5-1,0.6-1.1c0.9,0.8,1,0.9,2,1.6c-0.3,0.5-1.6,2.6-2,5l-2.8,0.3c-1.3-3.3-1.4-6.1-1.4-7.3
		c0-1.6,0.2-2.8,0.6-4.8c0.1-0.4,0.1-0.5,0.1-0.8L92.3,72.7z M101.3,72c0.2,0,0.5,0,0.5,0.3c0,0.2-0.2,0.3-0.3,0.3
		c0,0.7,0.3,3.7,0.3,4.3c0.1,0.7,0.1,1.5,0.1,2.3c0,2.5-0.2,7.5-5.9,10.8c-1.2-1.6-2.1-2.1-2.6-2.3c4.7-2.3,5.2-5.7,5.2-8.6
		c0-2.4-0.1-4.8-0.7-7.2L101.3,72z"/>
</g>
</svg>
