<svg xmlns="http://www.w3.org/2000/svg" width="80" height="88" viewBox="0 0 80 88"><circle cx="41.3" cy="32.5" r="30.6" fill="#004d2c"/><path fill="none" stroke="#fff" stroke-width=".5" stroke-miterlimit="10" d="M58.4 38.9l-17.3-17-17 17.3"/><path d="M8.5 74.3c.2.1.2.1.2.2s-.1.1-.4.2c-.4.7-.5 1-.8 1.7 1.5.2 2.4.1 2.8.1-.2.6-.4 1.2-.4 1.4-1.4 0-2.5-.1-2.9-.2-.3.7-.5 1.5-.6 1.8 1.5.2 2.3.2 3.4.2-.2.5-.4 1.2-.4 1.3-1.8-.1-3-.2-3.4-.3 0 .3-.1.8-.1 1.5 0 1.6 1.2 2.1 2.5 2.1 1.8 0 3-.8 3-2.3 0-.9-.5-1.7-.8-2.3.7-.2 1.1-.4 1.3-.5.7 1.2.9 2.1.9 2.9 0 2.7-2.6 3.5-4.4 3.5-3.4 0-3.8-2.3-3.8-3.4 0-.8.1-1.3.2-1.6-1.1-.2-1.8-.4-2.2-.6l.3-1.3c.7.2 1.2.4 2.2.6l.6-1.8c-1.1-.2-1.7-.4-2.4-.6l.3-1.3c1 .3 1.6.5 2.5.7.1-.4.8-2.1.9-2.5l1.5.5zm7.4 4.2c.4-.1.6-.1 1.9-.6 1.4-.6 2.7-1.1 4.2-1.1 2.2 0 3.4 1.6 3.4 3.4 0 3.2-3 5.1-6.2 5.7-.2-.4-.4-.7-.8-1.2 4.5-.7 5.7-3 5.7-4.4 0-1.4-.9-2.3-2.1-2.3-1.5 0-3.8 1-5.4 2.2l-.7-1.7zm2.5-4.7c.5.2 1.9.6 4.1.6h.8c-.1.6-.1.9-.2 1.4-2.8-.1-4.3-.5-4.9-.7l.2-1.3zm21.3 5.3v1.4H28v-1.4h11.7zm12.7-2.2V78H50v2h-4.7v-2h-1.8v-1.1h1.8V76h-2v2.8c0 2.5-.3 5.1-1.5 7-.4-.3-.9-.5-1.2-.6 1.1-1.6 1.4-4.1 1.4-6.2v-4.1h4.4v-1l1.5.1c.2 0 .3.1.3.2s-.1.2-.3.2v.5H53V76h-2.6c0 .2-.2.2-.3.2v.7h2.3zm-7 4.7h-1.6v-1.1h7l.6.7c-.7 1.1-2 2.1-2.5 2.4 2 .8 3.3.9 3.8.9-.4.6-.6 1.1-.7 1.2-.8-.1-2.6-.5-4.4-1.4-.2.1-1.9 1-3.7 1.3-.1-.3-.3-.8-.8-1.1 1.4-.2 2.4-.6 3.2-.9-1-.7-1.5-1.3-1.8-1.6l.9-.4zm.4 0c.5.5 1.1 1 1.8 1.4.8-.5 1.3-.9 1.7-1.4h-3.5zm2.8-4.7V76h-1.8c.1.2-.2.2-.3.2v.7h2.1zM46.5 78v1h2.1v-1h-2.1zm15.3 5.6c0 .5.2.6.7.6h1.3c.3 0 .6 0 .9-1.6.5.4.7.5 1.2.6-.4 2.2-1 2.3-2 2.3H62c-1 0-1.7-.3-1.7-1.5v-2.7h-2.2l.8.2c.1 0 .3.1.3.2 0 .2-.2.2-.4.2-.4 1-1 2.8-4 4-.2-.3-.7-.9-1.1-1.1 1.8-.5 3.5-1.6 3.8-3.6h-2.1v-7.1h8.5v7.1h-2.3v2.4zm.8-7.3v-.8H57v.8h5.6zm-5.6 1v.8h5.7v-.8H57zm0 1.9v.9h5.7v-.9H57zm18.9-4c-.5.4-3.3 3-3.8 3.5.4-.1 1.1-.4 2-.4 1.9 0 3.7 1.1 3.7 3.3 0 2.8-2.7 3.9-4.8 3.9-1.7 0-3-.8-3-2.1 0-1.1.9-1.8 2.2-1.8.2 0 2.4 0 2.7 2.2.3-.1 1.5-.7 1.5-2.2 0-1.3-.9-2.3-2.7-2.3-2.2 0-3.5 1.2-5.6 3.4l-1.1-1c1.3-.9 5.6-5.1 6.2-5.9-1.3.3-3.6.5-4.5.5l-.1-1.3c1.2.1 4.8-.1 6.6-.8l.7 1zm-2.6 8c-.3-.2-.7-.5-1.2-.5-.4 0-.8.2-.8.7 0 .8 1.1 1 1.6 1 .4 0 .8-.1.9-.1 0-.3-.1-.7-.5-1.1z" fill="#004d2c"/></svg>