<svg xmlns="http://www.w3.org/2000/svg" viewBox="0 0 61.12 76.1" width="61.12" height="76.1"><title>scroll</title><circle cx="30.56" cy="45.54" r="30.56" fill="#004d2c"/><path fill="none" stroke="#fff" stroke-miterlimit="10" stroke-width=".5" d="M47.66 41.13L30.44 58.12 13.45 40.9"/><path d="M19.82 1.49A2.62 2.62 0 0 0 18.24 1a3.79 3.79 0 0 0-.77.08 2 2 0 0 0-.67.26 1.37 1.37 0 0 0-.47.49 1.51 1.51 0 0 0-.18.76 1 1 0 0 0 .25.7 1.87 1.87 0 0 0 .68.44A5.57 5.57 0 0 0 18 4l1.09.24c.37.09.73.19 1.08.3a3.6 3.6 0 0 1 1 .47 2.28 2.28 0 0 1 .68.75A2.33 2.33 0 0 1 22.11 7a2.33 2.33 0 0 1-.33 1.27 2.72 2.72 0 0 1-.85.86 3.69 3.69 0 0 1-1.16.48 5.65 5.65 0 0 1-1.28.15A5.44 5.44 0 0 1 17 9.52a3.66 3.66 0 0 1-1.22-.59 2.81 2.81 0 0 1-.83-1 3.27 3.27 0 0 1-.3-1.46h1.17a2 2 0 0 0 .83 1.7 2.52 2.52 0 0 0 .86.4 4 4 0 0 0 1 .13 4.54 4.54 0 0 0 .84-.08 2.49 2.49 0 0 0 .76-.27A1.43 1.43 0 0 0 20.87 7a1.17 1.17 0 0 0-.25-.78 1.87 1.87 0 0 0-.68-.49 4.92 4.92 0 0 0-1-.31l-1.04-.24q-.55-.12-1.08-.29a3.94 3.94 0 0 1-1-.43 2.05 2.05 0 0 1-.68-.69 2 2 0 0 1-.25-1.06 2.46 2.46 0 0 1 .29-1.22A2.5 2.5 0 0 1 16 .66a3.42 3.42 0 0 1 1.06-.5A4.76 4.76 0 0 1 18.3 0a5 5 0 0 1 1.33.17A3 3 0 0 1 20.7.7a2.57 2.57 0 0 1 .73.92 3.28 3.28 0 0 1 .29 1.32h-1.17a1.93 1.93 0 0 0-.73-1.45zM27.44 4a1.67 1.67 0 0 0-1.12-.35 2.05 2.05 0 0 0-1 .22 1.77 1.77 0 0 0-.64.58 2.44 2.44 0 0 0-.34.84 4.57 4.57 0 0 0-.1 1 3.75 3.75 0 0 0 .11.91 2.45 2.45 0 0 0 .34.79 1.74 1.74 0 0 0 .61.55 1.83 1.83 0 0 0 .9.21 1.81 1.81 0 0 0 1.28-.43A1.94 1.94 0 0 0 28 7h1.13a3.1 3.1 0 0 1-.89 2 2.92 2.92 0 0 1-2 .68 3.51 3.51 0 0 1-1.36-.25 2.65 2.65 0 0 1-1-.7 3 3 0 0 1-.6-1.09 4.51 4.51 0 0 1-.2-1.38 4.94 4.94 0 0 1 .2-1.41 3.25 3.25 0 0 1 .59-1.14 2.77 2.77 0 0 1 1-.77 3.25 3.25 0 0 1 1.39-.28 4.07 4.07 0 0 1 1.07.14 2.62 2.62 0 0 1 .88.42 2.32 2.32 0 0 1 .63.72 2.66 2.66 0 0 1 .31 1H28a1.68 1.68 0 0 0-.56-.94zm3.96-1.22V4.2a3 3 0 0 1 1-1.21 2.48 2.48 0 0 1 1.48-.36V3.8a3.13 3.13 0 0 0-1.11.2 1.79 1.79 0 0 0-.75.53 2.19 2.19 0 0 0-.42.85 4.59 4.59 0 0 0-.13 1.15v3h-1.11V2.78zm3.17 1.98a3.13 3.13 0 0 1 .62-1.12 2.94 2.94 0 0 1 1-.75A3.76 3.76 0 0 1 39 2.9a2.94 2.94 0 0 1 1 .75 3.13 3.13 0 0 1 .62 1.12 4.48 4.48 0 0 1 .21 1.38 4.42 4.42 0 0 1-.21 1.38A3.14 3.14 0 0 1 40 8.64a2.88 2.88 0 0 1-1 .74 3.86 3.86 0 0 1-2.81 0 2.87 2.87 0 0 1-1-.74 3.14 3.14 0 0 1-.62-1.11 4.42 4.42 0 0 1-.21-1.38 4.48 4.48 0 0 1 .21-1.39zm1.13 2.47a2.27 2.27 0 0 0 .45.79 1.93 1.93 0 0 0 .67.49 2 2 0 0 0 1.63 0 1.94 1.94 0 0 0 .66-.51 2.27 2.27 0 0 0 .45-.79 3.34 3.34 0 0 0 .16-1.08 3.34 3.34 0 0 0-.16-1.09 2.35 2.35 0 0 0-.45-.8 1.93 1.93 0 0 0-.67-.49 2 2 0 0 0-1.62 0 1.93 1.93 0 0 0-.67.49 2.35 2.35 0 0 0-.45.8 3.34 3.34 0 0 0-.16 1.09 3.34 3.34 0 0 0 .16 1.1zM43.36.22V9.5h-1.1V.22zm2.89 0V9.5h-1.1V.22z" fill="#004d2c"/></svg>